<?xml version="1.0" encoding="UTF-8"?>
<!DOCTYPE svg PUBLIC "-//W3C//DTD SVG 1.1//EN" "http://www.w3.org/Graphics/SVG/1.1/DTD/svg11.dtd">
<!-- Creator: CorelDRAW 2018 (64 Bit) -->
<svg xmlns="http://www.w3.org/2000/svg" xml:space="preserve" width="96.5203mm" height="44.3795mm" version="1.1" style="shape-rendering:geometricPrecision; text-rendering:geometricPrecision; image-rendering:optimizeQuality; fill-rule:evenodd; clip-rule:evenodd"
viewBox="0 0 6443.73 2962.79"
 xmlns:xlink="http://www.w3.org/1999/xlink">
 <defs>
  <style type="text/css">
   <![CDATA[
    .fil10 {fill:#FEFEFE}
    .fil1 {fill:#FCC795}
    .fil7 {fill:#FCC594}
    .fil36 {fill:#F9FCFE}
    .fil28 {fill:#F3F4F4}
    .fil30 {fill:#F1BE8D}
    .fil15 {fill:#EAB88C}
    .fil27 {fill:#EFE02B}
    .fil13 {fill:#E2804C}
    .fil25 {fill:#DB7F4A}
    .fil14 {fill:#DB7E49}
    .fil26 {fill:#E5D631}
    .fil2 {fill:#CD3539}
    .fil29 {fill:#D37A48}
    .fil56 {fill:#D7D8D8}
    .fil23 {fill:#D28757}
    .fil44 {fill:#C83538}
    .fil38 {fill:#C97647}
    .fil31 {fill:#C87F52}
    .fil52 {fill:#D5C939}
    .fil50 {fill:#C79369}
    .fil42 {fill:#BD6D40}
    .fil32 {fill:#BEBEC2}
    .fil61 {fill:#C5BB3E}
    .fil24 {fill:#BDBABB}
    .fil37 {fill:#A86A45}
    .fil58 {fill:#C1B640}
    .fil9 {fill:#842F31}
    .fil16 {fill:#873031}
    .fil21 {fill:#B6B4B6}
    .fil43 {fill:#985B37}
    .fil5 {fill:#7E2E30}
    .fil17 {fill:#935635}
    .fil59 {fill:#8E5134}
    .fil18 {fill:#792D2F}
    .fil35 {fill:#77362F}
    .fil33 {fill:#742E2E}
    .fil40 {fill:#865639}
    .fil22 {fill:#642E2D}
    .fil12 {fill:#A49A93}
    .fil46 {fill:#947458}
    .fil49 {fill:#734B32}
    .fil47 {fill:#8F7156}
    .fil53 {fill:#8B6D53}
    .fil55 {fill:#948D41}
    .fil34 {fill:#8C796B}
    .fil51 {fill:#77723C}
    .fil48 {fill:#4C3D35}
    .fil57 {fill:#44372F}
    .fil54 {fill:#3B352F}
    .fil45 {fill:#392E2F}
    .fil60 {fill:#585758}
    .fil19 {fill:#322C2D}
    .fil11 {fill:#36332F}
    .fil4 {fill:#2C2B2A}
    .fil41 {fill:#363637}
    .fil3 {fill:#2A2929}
    .fil0 {fill:#282828}
    .fil39 {fill:#292929}
    .fil20 {fill:#2D3039}
    .fil8 {fill:#2D313C}
    .fil6 {fill:#344E99}
    .fil62 {fill:#D21414;fill-rule:nonzero}
    .fil63 {fill:url(#id0);fill-rule:nonzero}
   ]]>
  </style>
  <linearGradient id="id0" gradientUnits="userSpaceOnUse" x1="4670.92" y1="2836.56" x2="4670.92" y2="1658.2">
   <stop offset="0" style="stop-opacity:1; stop-color:#F57D00"/>
   <stop offset="1" style="stop-opacity:1; stop-color:#FAE017"/>
  </linearGradient>
 </defs>
 <g id="Camada_x0020_1">
  <metadata id="CorelCorpID_0Corel-Layer"/>
  <g id="_1655179422944">
   <g>
    <path class="fil0" d="M790.26 84.79c7.15,26.76 35.64,52.3 48.53,81.47 34.73,78.56 98.43,216.83 98.43,302.89 -30.12,-34.65 -59.99,-64.78 -98.43,-93.75 -10.19,-7.67 -17.14,-11.47 -27.1,-18.12 -11.58,-7.73 -18.55,-14.17 -29.52,-21.35 -11.37,-7.45 -17.05,-9.07 -29.06,-16.16 -80.05,-47.25 -158.41,-74.26 -252.59,-86.56 -39.13,-5.11 -59.52,1.74 -88.96,4.19 1.83,22.03 2.28,16.55 15.27,29.95l46.99 54.76c83.94,116.55 136.37,228.67 199.67,354.26 12.48,24.76 19.9,46.91 31.98,69.76 -22.94,-5.35 -63.17,-28.76 -84.79,-39.57 -96.45,-48.24 -89,-42.29 -188.52,-71.49 -35.88,-10.52 -66.75,-18.95 -111.05,-18.95 7.14,30.66 78.24,134.58 103.33,167.98l190.59 278.56c-19.41,-5.19 -75.89,-53.76 -102.84,-72.38 -13.73,-9.48 -23.55,-19.73 -38.47,-23.71 11.66,17.42 14.96,17.53 32.79,29.37 16.04,10.65 21.1,16.6 34.98,27.2 17.12,13.11 57.15,40.42 67.89,56.47 -45.03,-10.49 -101.86,-61.17 -146.96,-62.17 7.3,27.35 130.12,146.78 148.63,162.25 15.02,12.56 19.08,14.05 33.63,28.55 22.32,22.23 50.7,34.4 66.45,57.91 -54.73,-4.55 -53.76,-44.42 -175.23,-62.17 -41.42,-6.05 -24.85,-21.97 -59,-18.36 3.25,1.93 40.4,24.06 45.03,25.37 23.15,6.54 39.69,1.1 68.43,11.96 33.57,12.68 81.89,43.91 109.31,48.59l67.7 1.22c-26.47,-43.23 -54.43,-86.27 -41.08,-156.19 10.96,-57.44 78.92,-117.85 102.52,-45.54l14.72 -33.41c9.45,11.86 7.4,7.81 14.72,22.4 7,2.13 5.98,0.68 15.81,6.52l-0.15 -22.56c-26.34,-61.05 18.67,-156.45 43.71,-205.13 -5.41,59.48 -2,44.42 5.03,101.36 1.2,21.25 3.22,32.11 14.59,48.91l11.46 -69.56c1.36,-22.08 0.21,-20.51 12.59,-39.69 10.7,-61.91 95.42,-155.99 149.27,-166.57 -13.22,37.34 -28.7,63.85 -41.52,101.49 -55.04,5.48 -76.02,6.7 -92.37,52.03l-0.27 31.92c6.54,6.96 -9.05,8.45 13.09,4.07 10.94,-20.46 29.86,-40.96 57.83,-40.76 -2.37,49.42 -20.56,70.94 -14.01,139.6 16.32,-11.38 5.44,-2.35 16.06,-21.76 7.95,-24.14 31.28,-71.61 53.16,-80.57l9.85 24.07 9.79 60.57c37.77,-30.52 -12.9,-104.48 15.54,-132.85 16.37,-16.34 75.2,-62.76 101.58,-67.15 6.86,-8.51 -11.37,-6.2 14.48,-8.42 6.64,14.85 -6.37,42.44 -16.28,54.24 -32.24,56.66 -61.13,151.4 -64.38,228.78 14.59,-6.05 3.69,1.11 18.11,-10.01 37.73,-56.24 190.47,-192.94 274.56,-218.49 -0.79,22.91 -3.19,57.94 -16.42,72.85 -4.89,59.95 -39.34,33.59 -89.4,62.5 -30.56,17.65 -59.51,47.45 -71.31,85.59 45.66,-26.96 39.12,-64.39 126.47,-64.68 -10.81,35.69 -49.56,78.82 -51.15,101.72l25.69 -12.72c11.57,-17.29 29.13,-23.2 45.29,-34.85 14.41,-10.39 26.68,-21.3 43.55,-26.74l9.16 25.58c21.36,-5.06 19.28,-4.87 32.25,-22.57l-6.23 -33.18c10.94,-13.17 52.93,-55.72 65.72,-65.04 11.46,27.95 12.54,65.31 5.71,97.09 -4.31,20 -0.89,16.82 -12.75,27.73 -3.54,57.03 -78.5,127.35 -92.7,166.01l36.37 -17.12c11.03,-12.67 25.94,-19.23 44.68,-27.25 -4.49,22.09 -18.41,36.85 -31.94,51.22l26.48 4.81 12.82 -6.82c43.78,-17.72 59.86,39.34 45.82,78.61 -11.14,31.16 -40.8,85.61 -60.93,92.08 -7.01,13.51 -1.32,10.53 -16.35,21.04 -6.31,4.64 -15.74,10.84 -19.1,12.84 1.8,25.26 -1.7,2.6 10.45,11.26 14.09,-11.38 37.44,-12.96 57.93,-14.9 32.19,-0.53 66.27,5.62 96.48,2.32 31.74,-3.48 56.49,-9.14 92.54,-11.3 0.43,-33.01 28.66,-18.07 42.97,-18.43 15.88,-0.39 28.24,-8.96 74.94,1.68 40.9,9.32 9.81,22.89 32.47,12.7 11.86,-5.49 13.47,-7.56 22.15,-13.31 1.15,-0.76 8.17,-5.55 10.17,-7.07 6.36,-4.81 5.62,-3.88 9.78,-8.16 -22.91,4.75 -26.16,9.7 -41.01,22.61 -21.98,-7.96 -3.91,-11.23 -28.15,-15.41l-36.4 -4.82c-8.12,-1.49 -68.17,-2.45 -80.07,5.23 -20.17,13.04 -5.09,14.77 -31.26,20 -74.34,14.85 -81.72,6.31 -135,6.31 5.92,-4.12 -2.02,-0.25 10.9,-6.06l189.64 -59.07c19.07,-7.66 13.82,3.12 19.91,-19.65 -46.39,0 -68.97,-5.65 -113.05,-5.65 5.88,-4.09 -1.72,-0.36 10.94,-6.02 7.42,-3.32 5.99,-2.53 12.21,-4.75 11.02,-3.93 17.95,-5.51 29.92,-9.65l106.86 -40.1c20.22,-8.63 30.33,-12.57 52.46,-21.02l158.78 -61.66c17.09,-7.72 38.81,-19.09 58.42,-20.72l-152.77 -33.75c-30.91,-1.17 -36.95,7.32 -50.71,-11.47 80.43,0 143.98,-16.96 192.18,-16.96l0 -5.65c-51.09,0 -97.92,5.77 -142.17,10.44 -49.1,5.18 -100.9,8.41 -146.1,12.16 14.08,-19.21 248.93,-138.41 292.9,-164.94 49.32,-29.78 83.68,-41.16 85.81,-66.8 -18.51,-4.31 -24.77,-8.08 -41.89,-14.63 -102.76,-39.36 -258.04,-47.54 -370.73,-47.54l0 -5.65c27.98,0 56.47,-7.73 84.45,-11.64 26.29,-3.68 63.87,-9.31 90.94,-10.8l175.67 -10.86c7.94,-3.32 6.51,-3.36 10.69,-6.27 -147.63,0 -183.4,5.04 -314.9,24.25 -27.01,3.95 -67.62,15.32 -97.72,15.32 -16.22,-69.62 -22.66,-98.83 -56.79,-152.35 -52.85,-82.85 -147.2,-151.2 -252.57,-171.35 -45.54,-8.72 -149.68,-19.61 -193.7,1.52 -41.52,-86.55 -12.89,-120.62 -149.38,-302.82 -39.32,-52.48 -59.7,-75.66 -111.38,-114.71 -40.6,-30.66 -101.95,-68.58 -157.51,-68.58 4.03,15.09 12.9,25.73 20.85,41.32l52.29 151.2c16.54,76.42 28.6,150.39 28.6,242.71 -0.75,-1.19 -1.61,-4.58 -1.86,-3.79l-80.47 -230.41c-13.81,-30.65 -51.45,-99.85 -75.94,-116.25z"/>
    <path class="fil1" d="M1223.98 831.19c-15.82,29.57 -33.71,53.07 -48.65,85.22 -10.08,21.7 -24.98,73.13 -34.62,86.83 -18.6,-13.85 -9.51,1.53 -18.55,-19.29l-9.79 -60.57c-27.23,2.23 -33.31,29.9 -63.01,56.5 -10.61,19.41 0.26,10.38 -16.06,21.76 -6.54,-68.66 11.64,-90.19 14.01,-139.6 -27.97,-0.21 -46.89,20.3 -57.83,40.76 -6.49,14.45 -10.27,20.73 -24,31.2 -13.01,-6.11 -1.82,0.92 -11.6,-7.01 -0.99,-0.8 -4.2,-5.85 -5.2,-7.44l-11.46 69.56c-11.36,-16.8 -13.39,-27.66 -14.59,-48.91 -25.57,23.88 0.34,39.52 -16.32,64.89l-7.44 -63.34c-20.95,22.05 -22.14,73.33 -24.98,102.22l0.15 22.56c-9.83,-5.84 -8.81,-4.39 -15.81,-6.52 0.25,9.87 21.9,23.7 5.5,47.83 -20.88,-10.35 -5.85,9.47 -18.62,-16.56 -10.94,-22.3 -3.01,-5.98 1.64,-11.7 -4.09,37.38 -5.65,67.52 -5.65,113.07l-9.19 2.66c-45.47,9.27 12.34,-9.4 -17.06,0.7l-14.87 24.91 20.4 49.38c13.03,-8.51 4.03,-5.44 13.41,-21.01l5.53 50.78c3.12,102.9 99.33,151.83 187.15,199.21 103.24,55.7 216.31,33.94 315.4,-0.25 13.76,-19.98 38.64,-31.94 59.3,-57.32 41.25,-50.68 96.48,-194.39 114.07,-221.24 1.48,-2.59 8.43,-11.42 8.77,-13.29 3.24,-17.99 10.29,-7.45 -7.96,-14.95l-36.37 17.12c14.2,-38.66 89.15,-108.97 92.7,-166.01 2.79,-21.58 2.28,-18.46 -2.54,-28.09 -8.61,48.15 -90.43,161.76 -116.1,174.49 8.33,-21.78 104.81,-127.2 110.37,-199.39 -51.64,38.03 -24.98,30.49 -40.23,48.82l-22.28 27.8 -12.08 -18.68c-20.28,0.37 -65.67,29.11 -94.44,37.81l-4.54 -8.89c-0.08,-0.85 -0.57,-1.26 -0.86,-1.88l-25.69 12.72c1.58,-22.9 40.34,-66.03 51.15,-101.72 -87.35,0.29 -80.81,37.72 -126.47,64.68 11.8,-38.15 40.74,-67.94 71.31,-85.59 50.06,-28.91 84.51,-2.55 89.4,-62.5 0.39,-26.9 1.41,-6.63 -3.42,-14.49 -114.47,68.57 -169.31,122.93 -243.05,169.43l-11.67 -9.31c-14.42,11.12 -3.52,3.96 -18.11,10.01 3.25,-77.38 32.14,-172.12 64.38,-228.78 -14.31,-19.89 4.55,-5.27 -8.17,-5.85 -7.67,-0.35 -4.32,0.17 -5.33,7.28z"/>
    <path class="fil2" d="M670.9 1417.03c0.65,1.34 1.32,3.24 1.52,4.21 3.37,16.12 6.05,-1.76 -1.8,31.5 -3.46,14.65 -5.6,22.65 -8.49,36.85 -7.21,35.56 -7.16,48.94 1.23,84.46l10.37 -16.68c7.12,-15.7 11.34,-44.68 26.09,-61.25 0.16,0.86 -19.6,72.45 -22.56,91.03 -8.21,51.54 -2.54,85.45 -31.58,97.23 -62.03,73.73 -35.54,75.59 -32.95,92.25 2.05,13.19 0.75,6.68 -1.02,17.04 -1.12,6.53 -4.05,16.37 -5.14,26.05 90.12,32.15 28.51,43.71 99.27,31.25 171.82,-30.25 106.18,-21.57 183.44,22.82 141.87,81.51 153.7,17.29 223.15,4.18l8.2 12.65c37.51,55.19 77.45,49.94 100.12,76.93l21.62 6.1c18.71,-15.8 32.87,-18.27 57.29,-20.69 36.25,-3.61 34.25,-7.41 62.65,-17.49 47.65,-16.92 82.19,-25.46 83.18,-77.38 -2.2,-14.21 -7.64,-20.49 -9.26,-29.03 -4.71,-24.84 -3.32,-6.57 6.85,-34.39 8.44,-23.09 13.15,-44.76 12.2,-69.64l3.24 -84.85c18.63,8.13 2.82,16.12 21.32,24.42 26.54,-46.37 36.58,-107.5 36.14,-169.1 -33.93,4.85 -7.84,-4.72 -28.71,15.66 -52.21,50.95 -60.16,64.87 -134.52,102.19l92 -71.27c20.54,-13.99 20.86,-14.93 27.24,-31.84 -34.89,5.09 -38.2,15.44 -63.64,29.35l-167.74 62.96c-12.39,0.11 -5.59,0.83 -13.21,-3.1l-97.64 36.17 9.27 6.46c-83.24,23 -75.75,43.64 -120.57,-10.79l-68.99 -66.27c-11.28,-12.09 -9.74,-12.02 -22.57,-23.19 -63.7,-55.45 -26.86,-86.17 -55.14,-126.83 -10.34,-14.87 -25.06,-28.09 -34.21,-56.02 -9.99,-30.49 1.46,-25.94 -18.72,-48.79l-9.73 -10.11c-2.97,-1.72 -10.67,-5.39 -12.46,-6.49 -2.16,-1.33 -6.26,-0.53 -7.85,-5.44 -0.71,-2.2 -2.84,-1.97 -4.17,-3.06l-17.28 -12.33 -67.7 -1.22c10.07,14.96 6.51,-5.63 4.17,22.04l-32.93 123.46z"/>
    <path class="fil2" d="M137.18 2280.73c16.82,18.03 23.62,81.96 43.87,114.57 28.85,46.45 46.11,50.44 87.37,76.39 27.41,11.72 62.53,34.68 91.78,26.7 38.22,5.45 107.64,13.19 135.6,-5.88 19.8,-13.5 49.88,-77.75 46.63,-103.06 -18.89,-12.94 -43.42,-27.53 -77.5,-27.28l-10.27 6.6 -44.4 44.67c-12.08,9.91 7.66,-1.7 -12.7,8.79 8.1,-45.96 22.67,-40.49 35.73,-74.81 -31.68,1 -83.86,5.39 -113.89,-1.08 -22.47,-4.85 -54.34,-38.8 -38.69,-62.77 38.42,-14.97 142.33,11.49 176.33,19.59l33.65 9.15c14.04,-8.05 -0.8,3.19 7.84,-8.37 0.83,-1.12 3.83,-5.57 4.63,-6.77l4.46 -7.32c58.81,19.03 128.27,49.17 200.71,42.22 -57.2,-21.16 -213.23,-95.77 -255.32,-124.94 47.71,10.34 111.32,24.8 160.45,38.38 38.53,10.65 130.8,49.48 155.08,48.37l7.43 -130c-66.19,-28.64 -150.89,-114.49 -164.17,-188.67 54.1,22.5 122.39,152.15 177.03,143.78 -0.49,-24.84 11.16,-23.87 10.26,-49.82 -25.95,-45.9 -9.91,22 -31.58,-21.7 -7.74,-15.61 5.05,-61.58 -17.96,-54.4l-11.76 6.39c-9.39,10.72 -15.67,45.98 -20.27,57.27 -1.94,-37.63 5.63,-31.23 10.36,-57.73 5.29,-29.64 -5.15,-20.92 -17.93,-45.58 -26.51,-20.85 -65.41,-67.78 -96.26,-71.19l-10.76 38.76c-10.17,-20.33 2.18,-18.8 -27.36,-15.07 -15.74,55.89 44.12,155.42 65.02,188.56 -8.16,-19.14 -32.11,-44.64 -46.35,-77.7 -13.23,-30.68 -20.69,-59.06 -32.97,-91.21 -45.58,-27.73 -135.1,-29.64 -196.21,-15.74 -59.81,13.62 -113.46,33.99 -151.83,68.11 -33.9,30.14 -74.16,70.88 -96.09,124.39 -32.84,80.12 -7.48,116.22 20.01,178.42z"/>
    <path class="fil2" d="M1445.97 2500.51l-136.42 18.75c-15.55,33.9 -9.67,81.57 14.81,106.45 19.54,19.85 78.36,20.53 108.54,24.31 203.57,25.5 127.75,3.46 216.84,-21.63 51.01,-10.41 81.11,-61.71 103.91,-110.44 24.88,-53.17 53.63,-109.71 32.78,-179.57 -33.79,-113.27 -104.97,-191.9 -207.38,-229.27 -54.84,-3.83 -73.77,30.4 -125.93,44.96 -24.06,35.14 -44.08,80.27 -57.93,132.11l-96.88 -17.2c-29.31,-1.69 -23.41,3.17 -47.29,11.36 4.63,-6.39 5.22,-5.05 8.29,-9.08 8.38,-11.02 -0.37,3.99 8.59,-13.15 -52.47,3.67 -59.6,53.12 -118.67,52.09 4.84,-44.06 35.49,-51.41 39.48,-84.17 -21.8,-19.17 -55.96,-39.54 -78.86,-58.6 -30.49,-25.38 -38.96,-44.66 -63.45,-73.82l1.23 52.42c-29.45,-36.32 -0.5,-65.5 -45.76,-79.81l10.11 249.87c-5.19,22.97 -18.45,35.61 -16.94,62.21 85.36,10.15 139.95,-16.9 213.93,-16.39 -13.55,22.61 -28.49,15.88 -31.49,37.14 44.08,4.77 69.46,8.29 106.27,23.99 161.87,69.04 183.79,-6.68 335.84,-2.25 -17.79,37.56 -26.05,10.76 -55.77,37.99 18.67,13.13 44.73,6.36 70.41,19.27l-140.39 1.36c26.7,33.03 67.31,28.05 70.32,69.47 -51.06,-0.75 -82.22,-34.7 -118.19,-48.37z"/>
    <path class="fil3" d="M137.18 2280.73c-27.5,-62.2 -52.85,-98.3 -20.01,-178.42 21.93,-53.52 62.19,-94.25 96.09,-124.39 38.37,-34.12 92.02,-54.49 151.83,-68.11 61.11,-13.91 150.63,-12 196.21,15.74 12.28,32.15 19.75,60.53 32.97,91.21 14.24,33.05 38.19,58.56 46.35,77.7 -20.9,-33.15 -80.75,-132.67 -65.02,-188.56 29.54,-3.73 17.19,-5.25 27.36,15.07l10.76 -38.76c30.85,3.42 69.75,50.34 96.26,71.19l24.27 13.99c16.56,14.19 5.15,9.63 65.71,23.71 14.86,3.46 27.88,5.44 44.17,6.86l-31.58 53.16c-0.68,1.16 -1.43,2.6 -2.16,3.75l-11.27 14.29c0.9,25.95 -10.75,24.98 -10.26,49.82 -4.99,13.13 -10.19,26.87 -12.86,44.9l-7.43 130c-2.36,37.21 -1.01,46.19 4.06,79.71l-78.51 -1.11c-11.28,9.26 -3.37,-7.56 -5.33,9.27l84.57 4.09 19.75 49.36c1.47,18.62 1.06,37.97 -0.61,59.8 11.01,-6.32 9.09,20.72 9.09,-19.23 12.86,8.61 25.08,26.37 33.91,39.57 24.79,-6.62 35.5,-23.29 70.83,-30.91 31.45,-6.78 70.52,-3 104.39,-3 0,-29.47 -6,-33.77 -11.3,-56.53 18.4,-1.53 27.19,-8.89 49.33,-4.57 15.59,3.04 21.39,11.28 41.11,15.87 -7.88,33.81 -41.83,59.55 -26.12,156.13 4.63,28.47 11.57,46.41 17.3,73.14 6.18,28.77 3.16,64.76 3.16,96.14l4.07 -9.82c17.25,-60.49 -6.41,-111.62 -12.95,-160.84 -14.42,-108.5 14.97,-111.1 19.01,-149.91 7.89,-11.82 3.32,-8.89 -8.99,-16.3 -1.38,-0.83 -26.29,-13.77 -26.78,-13.92 -23.08,-6.89 -34.81,9.63 -64.48,-1.05 -1.17,-1 -2.61,-4.41 -3.04,-3.48l-11.5 -18.86c-13.67,-23.76 -59.55,-73.24 -76.18,-143.97 -18.35,-78.06 -3.95,-161.28 39.54,-210.82 20.84,2.43 15.32,6.32 50.49,8.68 0.68,18.63 2.58,30.72 0.12,49.37 -2.69,20.46 -9.73,30.69 1.43,46.84l2.36 -96.35c20.66,3.71 23.11,3.3 30.69,14.81 4.61,7 14.37,27.66 18.42,37.64 24.49,29.16 32.96,48.44 63.45,73.82 22.91,19.07 57.07,39.44 78.86,58.6 72.14,32.62 31.86,14.15 80.49,28.69l25.59 11.8c0.82,0.49 2.45,1.52 3.53,2.46l96.88 17.2c13.85,-51.84 33.87,-96.98 57.93,-132.11 15.29,-20.19 45.66,-39.3 56.11,-57.04l-18.32 -11.52 -13.14 -0.42c-55.54,-10.54 3.79,-11.77 -59.37,-10.69 -5.44,0.09 -30.02,-1.6 -34.88,-3.18 -27.45,-8.91 -6.78,3.63 -22.36,-19.91l-3.1 16.76c-47.3,-0.67 -171.25,-10.98 -193.07,-42.63 42.33,-1.62 84.71,-0.05 128.46,-2.1 8.75,-0.41 19.83,-0.41 27.95,-0.93 30.37,-1.94 35.42,-3.67 53.77,-12.94 18.13,-9.16 -0.88,-5.97 27.64,-11.54l15.11 38.67c62.33,-13.81 49.74,1.51 60.5,12.35 18.89,-1.86 41.22,-6.03 62.98,-1.63l3.02 20.7c-2.53,20.84 -0.29,15.55 -7.41,29.35 19.15,3.06 23.16,-2.78 42.05,11.74 102.41,37.37 173.59,116 207.38,229.27 20.85,69.85 -7.9,126.39 -32.78,179.57 -22.8,48.73 -52.9,100.02 -103.91,110.44 -13.95,38.89 -79.63,63.82 -118.26,75.06 -43.18,12.55 -131.63,7.82 -179.23,1.2 -71.01,-9.87 -63.12,-55.03 -100.7,-85.33 -20.58,-16.6 -18.31,-16.4 -20.26,-64.45 -0.95,-23.39 0.28,-64.61 12.82,-79.14 2.25,-46 11.69,-16.72 -12.96,-27.18 -8.22,12 5.83,9.23 -9.03,9.89 -11.53,0.51 -3.04,12.42 -7.92,-10.36l-41.4 -3.03c-17.63,10.43 1.72,1.84 16.39,9.85 16.07,8.78 14.21,-8.05 13.69,22.77 -10.2,59.28 -22.35,94.18 2.52,157.41 17.19,23.07 16.21,29.9 41.01,45.61 15.58,17.04 8.02,17.13 6.64,34.1 -1.15,14.06 0.78,18.65 0.17,37.7 -0.98,30.73 -12.78,45.34 -18.95,73.72 33.83,-28.24 25.17,-89.57 25.17,-130 65.89,0 67.33,30.36 237.51,22.72 33.27,-1.5 44.79,-9.58 70.17,-20.27 54.58,-22.99 69.18,-35.88 109.27,-71.6 67.09,-59.77 33.88,-19.68 80.75,-100.13 123.22,-211.46 -49.4,-399.56 -203.79,-435.53 -6.86,-29.45 0.55,-24.23 -5.65,-50.87 -42.4,-9.87 -30.26,-0.83 -67.83,0 -6.98,-26.13 -22.39,-16.96 -56.53,-16.96 -4.62,-17.3 -13.83,-26.44 -22.61,-39.56 28.11,-32.34 86.37,-54.11 61.73,-118.16 -19.51,-50.69 -24.78,-13.95 -0.81,-109.2 5.26,-20.9 8.33,-20.13 12.56,-38.31 6.44,0 23.33,0.96 28.47,0.31 26.24,-3.32 9.69,3.17 22.4,-8.47 -15.36,1.16 -41.71,5.96 -53.91,-6.17l-4.39 -8.06c-4.99,-20.06 0.38,-11.96 1.22,-13.9l-12.7 43c0.95,24.87 -3.76,46.55 -12.2,69.64 -10.17,27.83 -11.56,9.55 -6.85,34.39 1.62,8.54 7.06,14.82 9.26,29.03 4.45,5.77 1.88,-3.69 9.37,16.22 10.22,27.16 2.96,40.27 -7.41,54.36 -46.66,63.41 -78.66,18.73 -130.52,39.26 -11.3,4.47 -21.22,9.89 -35.46,12.22 -31.51,5.15 -27.99,-1.13 -31.05,-2.06 -1.09,-0.33 -3.36,-0.29 -4.13,-2.12 -0.75,-1.8 -2.72,-1.42 -3.94,-2.33l-21.62 -6.1c-28.84,-4.7 -71.76,0.62 -109.05,-4.62 -26.33,-3.71 -57.03,-8.87 -73.78,-28.1l-4 -6.96c-1.24,0.9 -3.1,1.64 -4.14,1.99 -1.05,0.36 -2.96,1.39 -4.29,1.77l-14.79 2.72c-82.74,9.1 -44.38,4.39 -89.39,-6.03 -16.42,-3.8 6.87,-1.94 -10.62,0.84 -40.2,6.38 -163.84,-43.87 -193.91,-60.61 -30.73,11.13 -41.14,29.25 -71.73,12.54 -25.33,-13.84 -31.88,-26.44 -38.47,-61.37 1.09,-9.68 4.02,-19.52 5.14,-26.05 1.77,-10.35 3.07,-3.85 1.02,-17.04 -2.59,-16.66 -29.08,-18.52 32.95,-92.25 -16.22,0.31 -3.23,-11.66 -22.03,14.06 -38.59,52.79 -23.32,52.81 -22.41,88.46 0.69,27.01 -6.31,30.85 4.68,65.53 1.09,3.44 8.75,11.06 4.02,24.91 -5.63,16.52 -17.46,18.37 -32.52,24.07 -25.76,9.75 -21.62,10.06 -46.95,3.74 -18.17,-4.53 -48.83,-9.77 -68.34,-11.34 -84.26,-6.79 -184.29,24.87 -245.28,70.69 -31.62,23.75 -54.79,50.84 -76.61,81.66 -49.64,70.12 -64.69,131.96 -24.88,211.4 13.18,26.3 14.62,20.98 21.8,23.15z"/>
    <path class="fil1" d="M347.67 1326.63l0.7 31.04c70.6,28.13 123.11,67.45 232.45,106.23 72.37,25.66 55.42,33.77 77.18,20.15l12.9 -67.01 32.93 -123.46c2.34,-27.67 5.89,-7.08 -4.17,-22.04 -27.42,-4.69 -75.74,-35.92 -109.31,-48.59 -28.74,-10.86 -45.28,-5.41 -68.43,-11.96 -4.63,-1.31 -41.78,-23.44 -45.03,-25.37 -50.82,-18.01 -62.25,0.95 -86.4,37.02 -18.98,28.34 -38.89,67.62 -42.82,104z"/>
    <path class="fil4" d="M1100.09 1747.03c-2.92,34.92 -7.61,45.24 1.9,80.2 12.7,61.75 90.04,106.15 168.8,95.49 70.74,-9.57 128.62,-65.07 129.37,-142.07 1.7,-172.84 -260.7,-179.76 -300.08,-33.61z"/>
    <path class="fil5" d="M1094.32 2441.01c36.29,-4.24 13.53,-0.76 18.86,5.49l7.3 -8.39c0.51,-0.53 2.3,-1.93 3.28,-3.07l49.03 9.99 41.4 3.03 16.96 0.47c24.65,10.46 15.21,-18.82 12.96,27.18 0.23,-0.11 13.07,-3.81 15.27,-5.65l-4.63 -6.6c-0.26,0.01 4.61,24.15 95.13,23.59 57.95,-0.36 59.9,-7.02 96.09,13.45 35.96,13.67 67.13,47.63 118.19,48.37 -3,-41.42 -43.61,-36.44 -70.32,-69.47l140.39 -1.36c-25.68,-12.9 -51.75,-6.14 -70.41,-19.27 29.72,-27.24 37.98,-0.43 55.77,-37.99 -152.05,-4.43 -173.97,71.29 -335.84,2.25 -36.81,-15.7 -62.19,-19.23 -106.27,-23.99 3,-21.26 17.94,-14.53 31.49,-37.14 -73.98,-0.51 -128.57,26.54 -213.93,16.39 -1.52,-26.6 11.74,-39.25 16.94,-62.21l-10.11 -249.87c45.26,14.31 16.3,43.49 45.76,79.81l-1.23 -52.42c-4.05,-9.98 -13.81,-30.64 -18.42,-37.64 -7.58,-11.52 -10.03,-11.1 -30.69,-14.81l-2.36 96.35c-11.16,-16.15 -4.12,-26.38 -1.43,-46.84 2.46,-18.65 0.56,-30.74 -0.12,-49.37 -35.17,-2.36 -29.65,-6.25 -50.49,-8.68 -43.48,49.54 -57.89,132.75 -39.54,210.82 16.63,70.73 62.51,120.21 76.18,143.97l11.5 18.86c0.43,-0.92 1.87,2.48 3.04,3.48 29.67,10.67 41.4,-5.84 64.48,1.05 0.49,0.15 25.4,13.09 26.78,13.92 12.31,7.41 16.88,4.47 8.99,16.3z"/>
    <path class="fil1" d="M1585.91 1415.11c-15.24,26.98 -34.98,27.71 -57.91,54.33l-14.98 134.87c4.27,49.9 94.75,35.82 139.05,32.27 26,-2.08 52.82,-3.25 78.24,-8.18 57.58,-11.17 38.08,-14.17 66.23,-9.27 1.95,0.34 3.95,1.11 5.55,1.45 1.62,0.35 3.79,0.93 5.59,1.67l-3.09 18.23 0.19 -27.45c6.82,-59.2 -3.38,-167.44 -29.84,-206.9 -36.06,2.16 -60.81,7.82 -92.54,11.3 -30.2,3.3 -64.28,-2.85 -96.48,-2.32z"/>
    <path class="fil6" d="M190.8 1277.87l-1.51 21.86 42.27 16.38c56.96,16.21 61.85,49.97 110.94,34.72l5.17 -24.21c3.93,-36.38 23.84,-75.66 42.82,-104 24.15,-36.07 35.58,-55.03 86.4,-37.02l-4.06 -8.27c-13.06,-25.46 -18.75,-38.42 -43.31,-39.13 -17.58,-0.51 -13.08,2.94 -39.88,-2.38 -13.35,-2.65 -28.83,-3.67 -44.21,-7.12 -91.95,-20.67 -31.11,10.09 -72.02,-17.96 -21.5,-14.74 -46.22,-24.85 -79.01,-25.48l49.6 20.18c19.99,8.12 27.36,12.58 38.17,25.04 -38.23,46.45 -75.84,62.08 -91.37,147.39z"/>
    <path class="fil1" d="M1971.61 1376.25l-4.21 -2.72c-4.16,4.29 -3.42,3.36 -9.78,8.16 -2,1.52 -9.03,6.31 -10.17,7.07 -8.69,5.75 -10.29,7.82 -22.15,13.31 3.96,24.39 13.51,36.5 17.38,62.35 3.54,23.68 6.96,46.2 9.95,68.29l1.72 31.36c25.64,10.32 28.17,21.22 51.28,25.27 25.72,4.5 45.93,-0.38 66.3,-8.06l2.67 -26.85c-27.51,-7.29 -31.16,-37.37 -24.05,-66.61l11.5 -33.96c12.5,8.62 16.22,16.06 39.15,11.5 -0.51,21.09 -0.2,20.17 15.35,32.52 -2.46,23.93 2.07,6.34 -11.26,9.25l-2.06 28.89c9.22,5.43 15.58,10.83 26.68,7.88 6.6,-4.56 5.3,-2.42 12.8,-6.43 37.89,-51.75 22.38,-62.25 -5.18,-110.19 -14.85,-13.47 -38.87,-55.12 -64.4,-58.91 -22.14,-3.29 -27.52,4.6 -52.61,1.86 -23.43,-2.56 -26.57,0.46 -48.9,6.02z"/>
    <path class="fil7" d="M97.5 1085.26l-46.12 40.6c-17.85,43.74 -71.87,70.09 -21.46,111.37 11.52,-7.08 14.63,-9.22 22.89,-18.84 18.78,-21.87 -3.91,-10.19 20.81,-19.35l16.56 -9.62 -13.3 -25.27c11.21,5.49 13.07,8.26 31.09,10.02l7.5 -18.87c14.25,20.98 17.7,59.34 1.54,82.12 -11.72,16.51 -35.42,24.09 -52.6,34.39 15.74,63.82 53.21,25.82 115.4,24.42l11 -18.37c15.54,-85.31 53.14,-100.94 91.37,-147.39 -10.82,-12.45 -18.18,-16.91 -38.17,-25.04l-49.6 -20.18c-0.92,-0.79 -2.7,-2.77 -3.22,-1.71l-16.92 -3.97c-11.75,-1.07 -19.81,-0.29 -32.7,-1.85 -9.09,-1.11 -9.58,-3.87 -23.31,-2.38 -14.25,1.54 -16.88,6.13 -20.75,9.91z"/>
    <path class="fil8" d="M664.1 2524.71c0.48,60.77 -5.48,88.26 -14.22,143.63 -6.56,41.59 -19.26,114.81 0.53,152.3 70.07,-44.92 86.24,-227.74 103.81,-284.74 5.33,-17.28 26.88,-89.21 38.87,-100.73l-19.75 -49.36 -84.57 -4.09c12.4,52.35 7.71,105.82 -24.69,142.98z"/>
    <path class="fil9" d="M1244.11 2475.72c-12.54,14.53 -13.77,55.75 -12.82,79.14 1.96,48.05 -0.32,47.85 20.26,64.45 37.59,30.3 29.69,75.47 100.7,85.33 47.6,6.62 136.05,11.35 179.23,-1.2 38.63,-11.24 104.31,-36.17 118.26,-75.06 -89.09,25.1 -13.28,47.13 -216.84,21.63 -30.18,-3.79 -89,-4.46 -108.54,-24.31 -24.48,-24.87 -30.36,-72.55 -14.81,-106.45l136.42 -18.75c-36.2,-20.47 -38.14,-13.81 -96.09,-13.45 -90.51,0.55 -95.39,-23.58 -95.13,-23.59l4.63 6.6c-2.2,1.84 -15.05,5.54 -15.27,5.65z"/>
    <path class="fil6" d="M1774.93 1406.13c26.46,39.46 36.65,147.69 29.84,206.9 82.01,12.22 81.94,-14.1 144.44,-41.15l3.43 -39.15c-2.99,-22.08 -6.41,-44.61 -9.95,-68.29 -3.87,-25.85 -13.43,-37.96 -17.38,-62.35 -22.66,10.18 8.44,-3.38 -32.47,-12.7 -46.7,-10.63 -59.06,-2.06 -74.94,-1.68 -14.31,0.35 -42.53,-14.59 -42.97,18.43z"/>
    <path class="fil10" d="M1251.8 1149.91c-7.16,14.99 -14.45,27.01 -20.88,43.08 -8.12,20.29 -17.04,33.27 0.77,26.13 18.94,-14.69 45.68,-25.43 44.31,18.09 -0.95,30.2 -15.03,50.55 -42.95,50.16 11.68,39.8 80.64,65.07 131.04,42.59 30.3,-25.86 83.04,-100.23 41.71,-165.45 -13.88,-21.9 -32.99,-44.92 -72.8,-46.67 -40.36,-1.77 -57.68,17.07 -81.19,32.07z"/>
    <path class="fil10" d="M937.81 1229.26l19.95 27.82c28.01,28.39 80.27,23.69 112.79,11.89 1.72,-13.59 2.36,-5.2 -1.76,-16.66 -32.85,-18.51 -13.89,-70.61 15.39,-84.41 16.16,4.96 14.63,3.81 22.48,16.3 16.18,-9.61 10.13,-48.6 4.39,-63.93 -3.24,-36.46 -17.03,-54.46 -46.28,-65.54 -34.64,-13.13 -66.48,-5.17 -87.15,14.4 -35.03,33.15 -65.24,99.5 -39.82,160.13z"/>
    <path class="fil11" d="M1174.04 1755.19c3.59,14.05 -2.94,13.43 19.26,18.78 3.1,0.75 20.82,0.89 26.44,1.2l-6.9 21.46 -32.53 6.46c-0.17,-1.71 -0.33,-3.91 -0.16,-5.15l5.29 -18.13c0.27,-2.28 1.76,-2.54 2.22,-2.97l-28.16 -7.79c-0.11,20.44 4.01,17.75 -9.89,31.53 -5.43,20.3 -7.48,8.86 -7.17,30.36l49.14 13.67c6.56,19.16 1.48,22.49 15.02,33.51 6.9,5.61 10.41,4.56 20.01,8.62l-23.71 7.43c10.47,11.85 45.66,13.56 62.33,10.24 22.3,-4.44 3.52,1.38 24.03,-9.48l23.62 -13.92c-7.54,-29.62 -1.4,-6.7 7.82,-38.93l8.39 -114.69 -46.6 -4.27c19.29,-12.79 29.02,-5.96 31.28,-31.87 -21.66,-12.66 -33.83,0.53 -51.13,-21.31l30.64 2.98 -73.42 -3.16 25.46 0.35c-12.2,19.47 -30.1,20.32 -54.32,21.2 -3.02,17.3 -8.88,49.46 -16.96,63.88z"/>
    <path class="fil12" d="M928.02 1372.96c0.92,1.38 2.56,1.58 3.13,3.85 0.55,2.23 2.36,2.9 3.12,3.73 65.57,69.66 176.47,115.38 282.53,97.14l106.88 -31.28c-11.58,-8.67 -6.8,-0.43 -2.92,-16.2 3.44,-13.99 5.14,-6.41 5.98,-30.08l-141.52 8.04c-15.07,-13.43 -74.06,-11.87 -129.48,-34.29 -38.37,-15.53 -77.95,-35.96 -111.14,-53.31 -0.43,21.38 7.08,53.42 -16.59,52.39z"/>
    <path class="fil8" d="M1113.18 2446.51c-50.08,74.94 -7.28,152.45 0.46,232.48 7.46,77.17 -30.66,181.01 15.52,242.71 14.04,-10.56 14.51,-17.24 22.54,-49.5 11.36,-45.64 20.96,-151.18 28.75,-193.48 -44.69,-50.96 -42.06,-172.5 22.41,-201.06 0.53,-30.82 2.38,-13.99 -13.69,-22.77 -14.67,-8.01 -34.02,0.58 -16.39,-9.85l-49.03 -9.99c-0.97,1.14 -2.76,2.54 -3.28,3.07l-7.3 8.39z"/>
    <path class="fil5" d="M1220.77 1967.55c-22.67,-26.98 -62.61,-21.74 -100.12,-76.93l-8.2 -12.65c-69.45,13.11 -81.29,77.33 -223.15,-4.18 -77.27,-44.39 -11.62,-53.07 -183.44,-22.82 -70.76,12.46 -9.15,0.9 -99.27,-31.25 6.59,34.94 13.15,47.53 38.47,61.37 30.59,16.72 41,-1.41 71.73,-12.54 30.07,16.73 153.72,66.99 193.91,60.61 17.49,-2.78 -5.79,-4.64 10.62,-0.84 45.01,10.41 6.64,15.13 89.39,6.03l14.79 -2.72c1.34,-0.38 3.24,-1.41 4.29,-1.77 1.04,-0.35 2.9,-1.09 4.14,-1.99l4 6.96c16.76,19.23 47.45,24.39 73.78,28.1 37.29,5.24 80.21,-0.08 109.05,4.62z"/>
    <path class="fil9" d="M1363.48 1491.47c-16.94,28.71 -7.19,22.71 -33.58,44.57 -3.65,6.12 -29.37,30.74 -36.23,35.64 -13.19,9.43 -34.45,17.09 -49.17,21.32l-17.08 6.44c7.62,3.94 0.82,3.22 13.21,3.1l167.74 -62.96c25.44,-13.91 28.75,-24.27 63.64,-29.35 -6.39,16.92 -6.7,17.85 -27.24,31.84l-92 71.27c74.35,-37.32 82.31,-51.24 134.52,-102.19 20.88,-20.38 -5.22,-10.8 28.71,-15.66 0.45,61.6 -9.6,122.73 -36.14,169.1 -18.5,-8.3 -2.69,-16.29 -21.32,-24.42l-3.24 84.85 12.7 -43c-0.84,1.94 -6.21,-6.16 -1.22,13.9l4.39 8.06c12.2,12.12 38.55,7.33 53.91,6.17 25.84,4.45 72.1,-2.86 98.43,-11.69 21.83,-7.32 20.24,-10.65 25.92,-19.69 -59.14,14.57 -100,27.92 -163.33,26.64 3.89,-23.61 8.91,-14.24 15.03,-46.18 3.57,-18.65 5.28,-42.19 11.88,-54.94l14.98 -134.87 -0.02 -39.43c-12.14,-8.67 -8.65,14 -10.45,-11.26 3.36,-2 12.79,-8.2 19.1,-12.84 -23.86,3.63 -25,-7.74 -61.59,-5.8 -7.32,7.99 -9.62,11.29 -20.13,14.23l-15.12 1.61c-18.46,1.61 -11.86,14.25 -38.91,42.68 -12.47,13.11 -30.76,25.37 -37.4,32.85z"/>
    <path class="fil6" d="M569.82 2566.22c-5.17,32.81 -8.47,42.96 -2.35,81.52 6.33,39.88 -2.29,47.95 -3.57,82.26 -2.36,63.64 13.45,106.07 72.58,107.5 5.58,-7.79 7.23,-10.31 13.93,-16.86 -19.79,-37.49 -7.1,-110.71 -0.53,-152.3 8.74,-55.37 14.7,-82.86 14.22,-143.63l-8.09 0.96c-16.59,8 -28.81,8.36 -45.92,18.34 -15.17,8.85 -23.21,19.24 -40.27,22.2z"/>
    <path class="fil9" d="M457.05 2303.15c9.29,10.75 29.84,18.67 46.65,21.14 25.99,3.83 11.82,-7.54 45.76,7.31 42.55,18.61 41.17,14.17 74.68,24.51l17.78 7.64c0.83,-1.33 3.08,1.6 4.42,2.68 26.85,3.25 6.38,-0.95 14.97,9.39 12.14,-0.22 19.7,3.1 27.47,5.91 1.96,-16.82 -5.95,-0.01 5.33,-9.27l78.51 1.11c-5.07,-33.52 -6.42,-42.51 -4.06,-79.71 -24.28,1.11 -116.55,-37.72 -155.08,-48.37 -49.12,-13.58 -112.73,-28.04 -160.45,-38.38 42.09,29.16 198.12,103.77 255.32,124.94 -72.44,6.95 -141.9,-23.19 -200.71,-42.22l-4.46 7.32c-0.81,1.2 -3.8,5.65 -4.63,6.77 -8.65,11.56 6.2,0.32 -7.84,8.37l-33.65 -9.15z"/>
    <path class="fil6" d="M1129.16 2921.69l1.95 5.33c11.25,12.44 18.65,16.82 27.07,29.85l-23.15 -4.74c-1.48,15.98 -17.64,6.84 16.91,10.44 50.21,5.23 91.28,-85.29 82.3,-136.38 6.18,-28.37 17.97,-42.99 18.95,-73.72 0.61,-19.05 -1.32,-23.64 -0.17,-37.7 1.39,-16.97 8.95,-17.06 -6.64,-34.1l2.45 29.74 -59.62 -30.62 -8.77 -1.07c-7.79,42.3 -17.4,147.84 -28.75,193.48 -8.02,32.25 -8.5,38.93 -22.54,49.5z"/>
    <path class="fil13" d="M917.13 1515.88c40.37,-2.28 95.65,57.25 160.11,62.62 20.99,8.99 58.34,5.32 86.07,4.96 16.66,-0.22 79.62,-5.06 81.18,9.55 14.72,-4.23 35.98,-11.89 49.17,-21.32 6.86,-4.9 32.59,-29.52 36.23,-35.64 -0.92,-12.55 -10.92,-4.69 -29.53,-1.18 -15.56,2.94 -31.46,5.17 -46.81,8.49 -24.13,5.23 -62.14,27.84 -70.08,22.36 14.65,-9.85 21.92,-7.4 33.3,-24.73 -71.31,-3.18 -130.3,15.21 -189.11,-27.53 -6.7,8.56 -1.6,13.26 -5.65,21.82 -28.1,-29.72 -97.66,-89.69 -131.66,-102.51 2.26,30.18 6.72,67.66 26.78,83.12z"/>
    <path class="fil14" d="M1649.43 1678.79c14.91,7.14 7.3,8.91 16.97,-0.03 41.85,-26.22 96.39,12.28 138.17,-38.29l3.09 -18.23c-1.8,-0.73 -3.97,-1.32 -5.59,-1.67 -1.6,-0.34 -3.6,-1.11 -5.55,-1.45 -28.15,-4.89 -8.65,-1.9 -66.23,9.27 -25.42,4.93 -52.25,6.1 -78.24,8.18 -44.3,3.56 -134.78,17.64 -139.05,-32.27 -6.6,12.75 -8.3,36.3 -11.88,54.94 -6.12,31.94 -11.14,22.57 -15.03,46.18 63.33,1.28 104.19,-12.07 163.33,-26.64z"/>
    <path class="fil15" d="M767.36 1272.75l17.28 12.33c16.88,-9.95 14.47,11.99 3.68,-21.02 -3.48,-10.63 -7.25,-11.73 -9.3,-26.59 -3.42,-24.77 2.96,-39.07 17.46,-53.78l-8.64 -39.66 -1.17 -10.48c-21.8,19.74 -12.89,22.27 -23.37,48.47 -0.23,-29.61 13.15,-44.4 15.21,-68.17 -17.33,2.88 -21.64,8.4 -29.53,16.8 -6.65,6.32 4.25,12.53 -5.17,-0.16 0.58,-39.34 12.28,-55.05 49.1,-56.65 36.24,36.2 32.27,72.31 21.95,122.18 29.4,-10.1 -28.41,8.57 17.06,-0.7l9.19 -2.66c0,-45.55 1.57,-75.69 5.65,-113.07 -4.65,5.72 -12.57,-10.6 -1.64,11.7 12.76,26.02 -2.26,6.2 18.62,16.56 16.4,-24.13 -5.25,-37.96 -5.5,-47.83 -7.32,-14.59 -5.27,-10.55 -14.72,-22.4l-14.72 33.41c-23.6,-72.3 -91.56,-11.9 -102.52,45.54 -13.35,69.92 14.61,112.96 41.08,156.19z"/>
    <path class="fil16" d="M464.95 2362.16c34.07,-0.25 58.61,14.35 77.5,27.28 3.25,25.32 -26.83,89.57 -46.63,103.06 -27.97,19.07 -97.38,11.34 -135.6,5.88 1.11,1.38 2.86,1.52 3.45,4.03l19.25 24.92c4.19,4.95 17.84,17.49 25.92,19.85 17.95,5.24 49.49,-14.49 66.4,-20.92 -1.37,-0.87 -3.67,-3.34 -4.41,-2.02l-23.91 -7.51c42.05,-2.06 64.05,9.67 87.44,-16.25 3.06,-20.62 8.65,-34.58 13.25,-53.13 13.3,-53.58 4.85,-34.15 24.7,-39.82 4.54,24.61 0.19,51.18 -11.2,72.31 3.38,7.79 -5.47,13.02 5.8,3.9 35.54,-4.31 29.21,-45.47 32.62,-84.97 8.26,15.86 0.08,23.07 10.98,38.77 10.41,-18.94 27.65,-33.74 33.07,-60.79 -45.46,-8.33 -50.94,-13.94 -91.78,-30.84 -28.19,-11.66 -16.46,-8.56 -42.43,1.28l-39.69 12.71c-0.88,-1.41 -3.24,1.31 -4.71,2.24z"/>
    <path class="fil14" d="M342.5 1350.84c1.99,57.18 23.73,64.86 23.91,64.53 0.53,-1.01 2.27,2.12 3.18,3.38 3.35,4.99 -8.4,2.25 14.03,11.09 12.6,4.97 13.29,4.93 27.94,2.72 28.65,10.48 43.24,22.96 70.85,38.93 12.56,6.58 19.17,10.35 30.99,15.08 3.87,1.54 12.56,4.26 16.47,6.23 18.07,9.08 7.62,4.17 14.27,10.74 4.46,4.43 -1.78,0.69 8.79,6.3 8.95,4.74 2.48,2.52 11.4,5.07 23.77,6.8 8.51,6.54 28.1,-0.03l54.52 21.43c0.43,-5.91 0.55,-22.63 1.28,-26.62 4.43,-24.33 0.23,1.9 9.77,-25.64 -21.76,13.63 -4.81,5.51 -77.18,-20.15 -109.33,-38.77 -161.85,-78.1 -232.45,-106.23l-0.7 -31.04 -5.17 24.21z"/>
    <path class="fil17" d="M1129.78 1635.62l-67.69 21.84c-37.1,-33.22 -52.11,-57.64 -106.37,-104.84 -16.97,-14.77 -30.58,-22.57 -38.59,-36.74 -20.07,-15.46 -24.52,-52.93 -26.78,-83.12 34,12.82 103.57,72.79 131.66,102.51 4.05,-8.57 -1.05,-13.27 5.65,-21.82 58.81,42.73 117.81,24.34 189.11,27.53 -11.38,17.33 -18.65,14.89 -33.3,24.73 7.94,5.48 45.95,-17.12 70.08,-22.36 15.35,-3.32 31.25,-5.55 46.81,-8.49 18.61,-3.51 28.61,-11.37 29.53,1.18 26.39,-21.86 16.64,-15.86 33.58,-44.57l-21.62 7.56c-99.09,34.19 -212.16,55.95 -315.4,0.25 -87.82,-47.37 -184.03,-96.31 -187.15,-199.21l-30.18 0 9.73 10.11c20.18,22.85 8.73,18.3 18.72,48.79 9.15,27.93 23.87,41.14 34.21,56.02 28.28,40.66 -8.57,71.38 55.14,126.83 12.82,11.16 11.29,11.1 22.57,23.19l68.99 66.27c44.82,54.43 37.33,33.79 120.57,10.79l-9.27 -6.46z"/>
    <path class="fil7" d="M1129.78 1635.62l97.64 -36.17 17.08 -6.44c-1.56,-14.61 -64.52,-9.77 -81.18,-9.55 -27.73,0.36 -65.08,4.03 -86.07,-4.96 -64.46,-5.37 -119.74,-64.9 -160.11,-62.62 8.01,14.17 21.62,21.97 38.59,36.74 54.26,47.2 69.27,71.62 106.37,104.84l67.69 -21.84z"/>
    <path class="fil13" d="M1191.22 1048.53l11.67 9.31c73.74,-46.51 128.58,-100.86 243.05,-169.43 4.83,7.86 3.81,-12.42 3.42,14.49 13.23,-14.91 15.62,-49.94 16.42,-72.85 -84.09,25.55 -236.83,162.25 -274.56,218.49z"/>
    <path class="fil18" d="M1477.77 2085.09l-13.3 -8.92c5.37,-10.71 9.48,-18.1 13.95,-27.21 -10.76,-10.84 1.83,-26.16 -60.5,-12.35l-15.11 -38.67c-28.52,5.57 -9.51,2.38 -27.64,11.54 -18.35,9.27 -23.4,11 -53.77,12.94 -8.12,0.51 -19.2,0.52 -27.95,0.93 -43.75,2.05 -86.13,0.48 -128.46,2.1 21.82,31.66 145.77,41.97 193.07,42.63l3.1 -16.76c15.58,23.55 -5.09,11 22.36,19.91 4.87,1.58 29.44,3.27 34.88,3.18 63.16,-1.08 3.83,0.15 59.37,10.69z"/>
    <path class="fil19" d="M566.9 2483.75c-10.07,16.89 -9.93,14.37 -32.56,16.74 -23.39,25.92 -45.38,14.19 -87.44,16.25l23.91 7.51c0.74,-1.33 3.04,1.15 4.41,2.02 -16.91,6.43 -48.45,26.16 -66.4,20.92 -8.08,-2.36 -21.72,-14.9 -25.92,-19.85l-19.25 -24.92c-0.59,-2.51 -2.34,-2.66 -3.45,-4.03 -29.25,7.98 -64.38,-14.98 -91.78,-26.7 6.88,18.81 34.84,22.18 70.44,37.19 23.61,9.95 45,38.63 66.13,47.59 33.07,14.02 37.25,-21.42 76.7,-15.72 21.47,3.1 27.61,9.07 48.84,8.61 36.5,-0.78 26.1,-15.09 39.29,-3.06l61.85 -70.73c18.87,-44.6 24.86,-41.12 29.65,-99.75 -8.59,-10.34 11.88,-6.14 -14.97,-9.39l-2.78 10.34c-5.42,27.04 -22.65,41.85 -33.07,60.79 -10.9,-15.7 -2.72,-22.91 -10.98,-38.77 -3.41,39.5 2.92,80.66 -32.62,84.97z"/>
    <path class="fil20" d="M369.59 1418.75c-0.91,-1.26 -2.65,-4.39 -3.18,-3.38 -0.17,0.33 -21.92,-7.35 -23.91,-64.53 -49.08,15.25 -53.98,-18.51 -110.94,-34.72l-42.27 -16.38c-5.5,21.58 -4.59,15.89 -0.47,33.01 -26.97,2.64 -33.05,-4.62 -54.41,-4.44 -27.28,0.24 -27.91,8.79 -63.17,5.81 -9.85,-11.3 -36.3,-38.39 -16.23,-52.57l-9.23 -18.76c-0.44,-2.46 -2.02,-2.64 -3.06,-3.94l-12.82 -21.62c-50.41,-41.28 3.61,-67.63 21.46,-111.37l-11.54 11.58c-6.34,7.69 -4.39,6.42 -9.51,13.17 -61.09,80.45 -14.94,65.75 8.98,120.43 6.71,15.33 -8.1,85.37 57.84,71.28 16.56,-3.54 20.26,-8.08 36.29,-6.86 10.11,0.76 27.47,7.55 41.51,8.41 34.29,2.07 3.41,-13.17 29.07,5.39 50.6,36.58 49.8,26.13 94.17,52.89 45.05,27.17 25.48,8.22 71.39,16.61z"/>
    <path class="fil5" d="M1101.99 1827.23c-9.51,-34.96 -4.83,-45.28 -1.9,-80.2l-9.73 24.28c-72.81,-6.56 -118.18,-42.09 -166.37,-62.13 -16.92,-7.04 -31.81,-15.48 -48.82,-14.91l-8 1.46c4.73,13.65 -0.21,6.12 22.93,24.98l75.29 60.39c59.8,41.75 76.28,29.14 136.6,46.13z"/>
    <path class="fil21" d="M1084.19 2761.58l1.64 2.44c4.47,78.63 -15.41,116.32 34.05,186.53 1.96,6.7 -10.33,8.64 15.16,1.58 -5.27,-5.21 3.57,-3.96 -16.59,-12.88 0.37,-27.27 -2.52,-2.56 12.66,-12.22l-1.95 -5.33c-46.18,-61.69 -8.06,-165.54 -15.52,-242.71 -7.74,-80.03 -50.54,-157.54 -0.46,-232.48 -5.33,-6.26 17.43,-9.73 -18.86,-5.49 -4.05,38.81 -33.43,41.41 -19.01,149.91 6.54,49.22 30.2,100.35 12.95,160.84l-4.07 9.82z"/>
    <path class="fil20" d="M1804.76 1613.02l-0.19 27.45c-41.79,50.57 -96.33,12.08 -138.17,38.29l162.35 -6.95c25.51,-7.58 73.32,-11.1 105.37,-30.54 23.84,-14.45 6.04,-9.93 26.18,-24.69 14.61,9.79 17.62,15.22 41.52,16.96l-47.38 -28.26 -0.09 -41.2 -1.72 -31.36 -3.43 39.15c-62.51,27.05 -62.43,53.37 -144.44,41.15z"/>
    <path class="fil22" d="M454.68 2368.76l10.27 -6.6c1.47,-0.93 3.83,-3.65 4.71,-2.24l39.69 -12.71c25.98,-9.84 14.24,-12.94 42.43,-1.28 40.84,16.9 46.32,22.51 91.78,30.84l2.78 -10.34c-1.34,-1.08 -3.59,-4.01 -4.42,-2.68l-17.78 -7.64c-33.51,-10.34 -32.13,-5.9 -74.68,-24.51 -33.94,-14.85 -19.77,-3.48 -45.76,-7.31 -16.81,-2.47 -37.36,-10.39 -46.65,-21.14 -34,-8.1 -137.91,-34.57 -176.33,-19.59 9.34,26.65 42.03,29.15 74.26,31.26 36.67,2.4 48.28,7.68 84.72,18.49l-24.81 4.34c34.96,2.28 32.17,9.79 68.58,3.04l-44.79 15.61 15.99 12.48z"/>
    <path class="fil23" d="M1122.16 983.95c9.05,20.82 -0.05,5.44 18.55,19.29 9.65,-13.7 24.54,-65.12 34.62,-86.83 14.93,-32.15 32.83,-55.64 48.65,-85.22 -8.91,-8.24 -7.44,2.14 -4.74,-11.88 0.02,-0.08 5.64,-10.13 5.71,-10.23 11.98,-18.73 7.6,-4.51 15.84,-28.43l-1.52 3.29c-26.38,4.39 -85.21,50.82 -101.58,67.15 -28.44,28.37 22.23,102.34 -15.54,132.85z"/>
    <path class="fil24" d="M650.41 2820.65c-6.7,6.54 -8.35,9.07 -13.93,16.86 9.32,5.23 -10.34,5.56 18.11,5.07 26.96,-0.47 9.01,0.05 18.02,-5.07 9.85,-10.1 18.95,-22.11 30.59,-37.32 5.08,-17.82 17.19,-33.64 25.1,-64.62l20.87 -85.91c9.63,-37.63 20.63,-128.31 43.31,-154.67 1.68,-21.84 2.08,-41.18 0.61,-59.8 -12,11.53 -33.55,83.46 -38.87,100.73 -17.57,57 -33.75,239.82 -103.81,284.74z"/>
    <path class="fil25" d="M1515.23 1220.47c-17.59,26.86 -72.82,170.57 -114.07,221.24 -20.66,25.38 -45.54,37.34 -59.3,57.32l21.62 -7.56c6.64,-7.48 24.93,-19.73 37.4,-32.85 27.04,-28.43 20.45,-41.07 38.91,-42.68l15.12 -1.61c10.51,-2.94 12.8,-6.24 20.13,-14.23 1.36,-12 -0.3,-20.35 3.29,-34.17l44.7 -15.63c-1.28,-13.02 4.29,-3.23 -5.57,-12.54 -10.01,-53.72 22.42,-83.79 53.75,-106.24l-3.12 -17.36 -12.82 6.82c-6.08,19.01 -49.7,96.99 -68.26,103.49l49.4 -103.54c-3.99,8.29 -5.15,7.59 -13.64,12.25 -11.16,-6.84 -12.26,10.72 -7.54,-12.73z"/>
    <path class="fil26" d="M1202.92 1894.17l23.71 -7.43c-9.6,-4.06 -13.12,-3.01 -20.01,-8.62 -13.54,-11.02 -8.46,-14.35 -15.02,-33.51l-49.14 -13.67c-0.31,-21.5 1.74,-10.07 7.17,-30.36l3.33 -31.38c3.25,-2.16 5.28,-3.28 9.32,-5.92 8.7,-5.68 1.89,13.17 7.69,-5.14 0.67,-2.12 2.76,-1.9 4.09,-2.94 8.08,-14.42 13.95,-46.57 16.96,-63.88 24.23,-0.88 42.13,-1.72 54.32,-21.2l-25.46 -0.35c-26.77,14.21 -34.58,10.15 -60.14,33.63 -16.73,15.36 -35.06,34.23 -39.28,66.86 -11.58,89.45 29.43,93.04 82.46,123.91z"/>
    <path class="fil27" d="M1312.89 1881.01c31.45,-19.34 64.69,-55.54 61.69,-111.87 -3.12,-58.3 -41.04,-76.96 -81.28,-96.22l-30.64 -2.98c17.29,21.84 29.46,8.65 51.13,21.31 -2.26,25.91 -12,19.08 -31.28,31.87l46.6 4.27 -8.39 114.69c-9.22,32.23 -15.35,9.31 -7.82,38.93z"/>
    <path class="fil28" d="M1185.22 1408.16c-57.55,19.52 -171.87,-42.4 -221.54,-59.1 6.16,23.27 65.17,56.13 95.79,66.87 17.1,6 20.23,11.02 47.24,15.53l14.42 2.19c32,7.27 7.91,10.46 59.06,8.52 39.17,-1.48 29.27,2.84 79.1,-6.92 38.54,-7.54 29.99,-2.49 34.68,-16.51 -16.28,-5.37 -31.86,-2.32 -51.43,-1.75 -18.17,0.53 -43.8,2.22 -57.31,-8.84z"/>
    <path class="fil5" d="M776 2163.86c2.67,-18.03 7.86,-31.76 12.86,-44.9 -54.64,8.37 -122.93,-121.28 -177.03,-143.78 13.28,74.18 97.98,160.03 164.17,188.67z"/>
    <path class="fil29" d="M1954.36 1564.08l0.09 41.2 47.38 28.26c17.36,14.09 78.08,1.34 94.14,0 7.06,-8.45 0.95,-2.68 0.03,-11.3 12.45,-41.16 32.42,-41.67 -21.39,-67.8l-2.67 26.85c-20.37,7.68 -40.58,12.56 -66.3,8.06 -23.11,-4.05 -25.64,-14.95 -51.28,-25.27z"/>
    <path class="fil30" d="M1571.21 1231.54c39.88,-1.34 37.39,18.85 26.1,50.22l-19.89 15.68c-3.77,9.91 8.78,4.42 -5.79,8.89 -0.29,-21.07 3.62,-31.42 -18.95,-36.58 -25.07,60.91 -7.15,26.16 -14.07,67.98 -5.09,30.82 -19.17,25.48 -26.7,53.68l41.07 -6.54c20.13,-6.47 49.8,-60.92 60.93,-92.08 14.04,-39.28 -2.04,-96.33 -45.82,-78.61l3.12 17.36z"/>
    <path class="fil31" d="M1519.92 1016.73c1,0.95 2.13,2.58 2.41,3.37l1.54 19.05c15.25,-18.33 -11.41,-10.79 40.23,-48.82 -5.55,72.19 -102.04,177.61 -110.37,199.39 25.66,-12.73 107.49,-126.34 116.1,-174.49 4.82,9.63 5.33,6.51 2.54,28.09 11.86,-10.91 8.45,-7.72 12.75,-27.73 6.83,-31.78 5.75,-69.14 -5.71,-97.09 -12.78,9.32 -54.78,51.87 -65.72,65.04l6.23 33.18z"/>
    <path class="fil32" d="M1180.45 2678.72l8.77 1.07c-4.61,-24.85 -5.71,-5.87 0.43,-24.17 4.45,-13.25 9.41,-15.21 15.72,-20.56 -24.87,-63.23 -12.72,-98.12 -2.52,-157.41 -64.47,28.56 -67.1,150.1 -22.41,201.06z"/>
    <path class="fil9" d="M1242.38 1973.65c1.22,0.91 3.19,0.53 3.94,2.33 0.76,1.82 3.04,1.79 4.13,2.12 3.06,0.92 -0.46,7.2 31.05,2.06 14.24,-2.33 24.16,-7.74 35.46,-12.22 51.86,-20.53 83.86,24.15 130.52,-39.26 10.37,-14.09 17.63,-27.2 7.41,-54.36 -7.49,-19.91 -4.92,-10.45 -9.37,-16.22 -0.99,51.92 -35.53,60.46 -83.18,77.38 -28.4,10.08 -26.4,13.89 -62.65,17.49 -24.42,2.42 -38.58,4.89 -57.29,20.69z"/>
    <path class="fil14" d="M961.28 879.86c6.8,-12.11 7.99,-8.83 15.38,-13.05 16.35,-45.34 37.33,-46.55 92.37,-52.03 12.82,-37.64 28.3,-64.15 41.52,-101.49 -53.85,10.59 -138.57,104.67 -149.27,166.57z"/>
    <path class="fil16" d="M454.68 2368.76l-15.99 -12.48 44.79 -15.61c-36.4,6.75 -33.62,-0.76 -68.58,-3.04l24.81 -4.34c-36.44,-10.81 -48.05,-16.09 -84.72,-18.49 -32.24,-2.11 -64.92,-4.61 -74.26,-31.26 -15.65,23.97 16.22,57.92 38.69,62.77 30.02,6.48 82.21,2.08 113.89,1.08 -13.07,34.32 -27.63,28.85 -35.73,74.81 20.36,-10.49 0.63,1.13 12.7,-8.79l44.4 -44.67z"/>
    <path class="fil9" d="M799.12 2069.14l11.27 -14.29c0.73,-1.15 1.48,-2.58 2.16,-3.75l31.58 -53.16c-16.29,-1.42 -29.31,-3.4 -44.17,-6.86 -60.56,-14.08 -49.16,-9.51 -65.71,-23.71l-24.27 -13.99c12.78,24.67 23.23,15.94 17.93,45.58 -4.73,26.5 -12.3,20.09 -10.36,57.73 4.6,-11.29 10.88,-46.55 20.27,-57.27l11.76 -6.39c23.01,-7.18 10.21,38.79 17.96,54.4 21.66,43.69 5.63,-24.21 31.58,21.7z"/>
    <path class="fil28" d="M1254.53 1452.67l-130.36 -4.79c-1.68,-0.31 -3.12,-0.55 -4.77,-0.95l-45.16 -13.63c-20.22,-5.41 -3.7,-1.48 -19.99,-8 -20.25,-8.11 0.1,0.19 -18.67,-4.71 -15.15,-3.97 -9.46,-9.73 -26.36,-16.26l-16.22 -4.76c-13.13,-8.19 -6.7,-12.79 -32.41,-19.61 21.43,31.88 80.5,64.94 118.99,77.56 61.15,20.03 84.06,17.78 139.16,8.15 25.21,-4.41 24.37,-2.29 35.76,-13z"/>
    <path class="fil32" d="M631.67 2475.56l16.17 -6.58c9.73,20.87 19.3,31.77 8.17,56.69l8.09 -0.96c32.4,-37.17 37.09,-90.63 24.69,-142.98 -7.77,-2.81 -15.33,-6.14 -27.47,-5.91 -4.79,58.62 -10.78,55.14 -29.65,99.75z"/>
    <path class="fil33" d="M888.65 1615.43c-15.02,-54.68 -64.58,-93.33 -103.96,-196.08 -0.63,-1.64 -6.77,-16.24 -6.92,-16.5 -0.74,-1.28 -1.58,-2.7 -2.37,-3.89 -0.81,-1.21 -2,-2.62 -2.78,-3.68 -0.8,-1.07 -2.44,-2.64 -3.12,-3.48 -0.69,-0.86 -2.12,-2.34 -3.28,-3.4 3.06,54.1 50.9,157.19 81.19,193.38 23.13,27.63 11.28,27.12 41.26,33.65z"/>
    <path class="fil34" d="M1251.8 1149.91c23.51,-15 40.83,-33.84 81.19,-32.07 39.8,1.74 58.92,24.76 72.8,46.67 41.33,65.22 -11.4,139.59 -41.71,165.45 56.95,12.82 129.05,-228.74 -31.24,-224.26 -34.9,0.97 -80.42,21.73 -81.04,44.22z"/>
    <path class="fil9" d="M1298.31 2268.99c-1.08,-0.94 -2.71,-1.96 -3.53,-2.46l-25.59 -11.8c-48.63,-14.54 -8.35,3.93 -80.49,-28.69 -3.99,32.76 -34.64,40.11 -39.48,84.17 59.08,1.03 66.21,-48.42 118.67,-52.09 -8.96,17.14 -0.21,2.14 -8.59,13.15 -3.07,4.03 -3.66,2.69 -8.29,9.08 23.88,-8.19 17.98,-13.05 47.29,-11.36z"/>
    <path class="fil13" d="M189.29 1299.74l1.51 -21.86 -11 18.37c-62.18,1.4 -99.65,39.4 -115.4,-24.42l-9.39 9.73c-20.07,14.17 6.38,41.27 16.23,52.57 35.26,2.97 35.88,-5.57 63.17,-5.81 21.36,-0.18 27.44,7.08 54.41,4.44 -4.12,-17.12 -5.03,-11.43 0.47,-33.01z"/>
    <path class="fil35" d="M658 1484.04c-9.53,27.55 -5.34,1.32 -9.77,25.64 -0.73,3.99 -0.84,20.7 -1.28,26.62l-54.52 -21.43c9.93,15.81 -3.5,5.23 16.97,17.22 24.35,14.26 30.98,-1.88 43.19,46.95 13.88,55.48 5,47.15 -5.1,93.84l-1.8 11.5c29.04,-11.78 23.37,-45.69 31.58,-97.23 2.96,-18.59 22.72,-90.17 22.56,-91.03 -14.75,16.56 -18.97,45.55 -26.09,61.25l-10.37 16.68c-8.39,-35.52 -8.44,-48.9 -1.23,-84.46 2.88,-14.2 5.03,-22.2 8.49,-36.85 7.85,-33.27 5.17,-15.39 1.8,-31.5 -0.2,-0.97 -0.87,-2.87 -1.52,-4.21l-12.9 67.01z"/>
    <path class="fil34" d="M937.81 1229.26c-25.42,-60.63 4.79,-126.98 39.82,-160.13 20.67,-19.57 52.51,-27.53 87.15,-14.4 29.25,11.08 43.05,29.08 46.28,65.54 9.4,-7.36 8.15,-0.37 6.52,-22.42 -0.65,-8.77 -5.15,-18.45 -8.93,-25.67 -26.92,-51.48 -106.86,-39.48 -137.45,-15.21 -36.16,28.7 -66.92,117.93 -45.51,165.81 14.25,31.87 11.44,7.3 12.12,6.49z"/>
    <path class="fil31" d="M873.9 1043.98c2.84,-28.89 4.03,-80.17 24.98,-102.22l7.44 63.34c16.66,-25.37 -9.25,-41.01 16.32,-64.89 -7.03,-56.93 -10.44,-41.87 -5.03,-101.36 -25.04,48.68 -70.05,144.08 -43.71,205.13z"/>
    <path class="fil36" d="M569.82 2546.29l0 19.92c17.06,-2.96 25.1,-13.35 40.27,-22.2 17.1,-9.98 29.33,-10.33 45.92,-18.34 11.13,-24.92 1.56,-35.82 -8.17,-56.69l-16.17 6.58 -61.85 70.73z"/>
    <path class="fil37" d="M748.96 1130.64c5.75,-23.11 14.03,-32.9 30,-42.48 13.47,8.28 6.98,7 16.98,14.06 -16.9,18.49 -5.14,-2.43 -15.07,25.68 2.03,-0.64 4.87,-4.2 5.95,-2.3 3.81,6.7 7.82,-2.74 10.29,-2.94 19.56,-1.54 -7.88,-8.06 8.98,2.17 -5.26,17.42 4.71,8.01 -18.25,19.2l8.64 39.66c-7.38,9.51 -2.18,-0.85 5.89,4.22 0.85,0.53 2.74,1.58 3.65,2.15 1.2,0.77 7.47,4.65 8.83,5.96 10.32,-49.86 14.29,-85.98 -21.95,-122.18 -36.82,1.6 -48.52,17.31 -49.1,56.65 9.41,12.69 -1.48,6.48 5.17,0.16z"/>
    <path class="fil38" d="M784.64 1285.08c1.33,1.09 3.46,0.87 4.17,3.06 1.59,4.91 5.69,4.11 7.85,5.44 1.79,1.09 9.49,4.77 12.46,6.49l30.18 0 -5.53 -50.78c-9.37,15.57 -0.37,12.5 -13.41,21.01l-20.4 -49.38 14.87 -24.91c-1.36,-1.3 -7.63,-5.19 -8.83,-5.96 -0.91,-0.57 -2.8,-1.62 -3.65,-2.15 -8.07,-5.07 -13.27,5.29 -5.89,-4.22 -14.5,14.71 -20.88,29.01 -17.46,53.78 2.05,14.86 5.82,15.96 9.3,26.59 10.8,33.01 13.21,11.07 -3.68,21.02z"/>
    <path class="fil39" d="M1068.79 1252.3c34.6,-1.29 39.21,-30.74 37.88,-68.11 -7.85,-12.5 -6.32,-11.34 -22.48,-16.3 -29.28,13.81 -48.24,65.91 -15.39,84.41z"/>
    <path class="fil40" d="M2050.55 1487.83c-7.11,29.24 -3.45,59.32 24.05,66.61 53.81,26.13 33.84,26.64 21.39,67.8 14.73,-6.17 10.56,2.55 19.37,-14.91 11.78,-23.39 -10.75,-8.15 19.13,-42.53 18.97,-21.82 10.43,-1.46 8.21,-27.31 -7.5,4.01 -6.2,1.87 -12.8,6.43 -5.43,7.99 -7.04,9.74 -11.34,21.72 -33.72,-13.89 -53.92,-12.69 -64.08,-51.73 24.37,1.39 15.5,-2.08 29.76,10.86 6.48,-19.37 2.31,-15.19 21.03,-17.62 -4.47,-14.52 6.6,-4.91 -16.92,-14.08 -0.06,-13.04 3.72,-7.52 -3.59,-16.34l-34.22 11.12z"/>
    <path class="fil39" d="M1231.7 1219.12c-11.25,30.06 -18.01,45.86 1.36,68.24 27.93,0.39 42,-19.95 42.95,-50.16 1.37,-43.51 -25.37,-32.77 -44.31,-18.09z"/>
    <path class="fil41" d="M703.21 2800.18c20.28,-9.83 27.39,-34.52 35.09,-59.87 8.38,-27.59 12.25,-53.66 19.24,-82.5 4.44,-18.35 37.26,-146.03 34.95,-162.84 -22.69,26.36 -33.69,117.04 -43.31,154.67l-20.87 85.91c-7.9,30.98 -20.01,46.81 -25.1,64.62z"/>
    <path class="fil42" d="M1517.46 1337.77c9.87,9.31 4.29,-0.49 5.57,12.54l-44.7 15.63c-3.59,13.82 -1.93,22.17 -3.29,34.17 36.58,-1.94 37.73,9.43 61.59,5.8 15.03,-10.51 9.34,-7.53 16.35,-21.04l-41.07 6.54c7.53,-28.2 21.61,-22.86 26.7,-53.68 6.92,-41.82 -11,-7.07 14.07,-67.98 -16.61,13.02 -8.92,9.66 -21.78,19.91 0.14,2.34 1.19,16.12 0.69,21.27 -3.97,41.35 1.48,16.68 -14.13,26.85z"/>
    <path class="fil43" d="M73.62 1199.04l-7.72 9.41c13.94,7.92 5.57,-8.2 12.13,17.77 15.77,-12.72 10.11,-19.9 28.75,-10.99 15.39,30.7 -33.97,52.97 -64.04,43.61 1.03,1.3 2.62,1.48 3.06,3.94l9.23 18.76 9.39 -9.73c17.18,-10.31 40.88,-17.89 52.6,-34.39 16.17,-22.79 12.71,-61.15 -1.54,-82.12l-7.5 18.87c-18.03,-1.76 -19.88,-4.53 -31.09,-10.02l13.3 25.27 -16.56 9.62z"/>
    <path class="fil14" d="M29.92 1237.24l12.82 21.62c30.07,9.36 79.44,-12.91 64.04,-43.61 -18.64,-8.91 -12.98,-1.73 -28.75,10.99 -6.56,-25.98 1.81,-9.85 -12.13,-17.77l7.72 -9.41c-24.71,9.17 -2.03,-2.52 -20.81,19.35 -8.26,9.62 -11.38,11.76 -22.89,18.84z"/>
    <path class="fil17" d="M1516.04 1192.22c18.25,7.5 11.2,-3.03 7.96,14.95 -0.34,1.87 -7.29,10.7 -8.77,13.29 -4.73,23.45 -3.63,5.89 7.54,12.73 8.49,-4.66 9.65,-3.96 13.64,-12.25l-49.4 103.54c18.56,-6.5 62.17,-84.48 68.26,-103.49l-26.48 -4.81c13.53,-14.37 27.45,-29.13 31.94,-51.22 -18.73,8.02 -33.65,14.58 -44.68,27.25z"/>
    <path class="fil13" d="M1389.67 1075.31c0.29,0.63 0.78,1.03 0.86,1.88l4.54 8.89c28.77,-8.7 74.16,-37.43 94.44,-37.81l-1.84 -8.98 -9.16 -25.58c-16.87,5.44 -29.14,16.35 -43.55,26.74 -16.16,11.65 -33.72,17.56 -45.29,34.85z"/>
    <path class="fil33" d="M1490.91 2085.51l18.32 11.52c-10.44,17.74 -40.81,36.85 -56.11,57.04 52.16,-14.55 71.09,-48.78 125.93,-44.96 -18.89,-14.53 -22.9,-8.68 -42.05,-11.74 7.12,-13.8 4.88,-8.51 7.41,-29.35 -1.41,0.87 -3.18,2.04 -4.19,2.68l-19.31 11.36c-16.59,6.49 -12.62,4.17 -30,3.44z"/>
    <path class="fil44" d="M910.38 2181.82l13.93 39.82 12.65 -61.49c4.91,-23.83 11.45,-52.41 15.7,-78.48 -23.59,15.3 -48.02,53.25 -42.29,100.15z"/>
    <path class="fil45" d="M268.42 2471.69c-41.26,-25.95 -58.52,-29.94 -87.37,-76.39 -20.26,-32.61 -27.06,-96.55 -43.87,-114.57 -7.83,58.85 37.27,140.92 98,184.87l9.45 7.52c0.63,0.51 2,1.76 3.01,2.64l20.79 -4.06z"/>
    <path class="fil7" d="M1140.1 887.43l2.2 81.27 12.96 -32.17c13.2,-37.36 36.86,-67.16 48.15,-98.82 -24.26,12.72 -44.96,32.73 -63.32,49.72z"/>
    <path class="fil44" d="M1478.42 2048.96c-4.47,9.11 -8.58,16.5 -13.95,27.21l13.3 8.92 13.14 0.42c17.38,0.73 13.41,3.04 30,-3.44l19.31 -11.36c1.01,-0.63 2.78,-1.8 4.19,-2.68l-3.02 -20.7c-21.75,-4.4 -44.09,-0.23 -62.98,1.63z"/>
    <path class="fil43" d="M1517.46 1337.77c15.6,-10.17 10.16,14.5 14.13,-26.85 0.49,-5.15 -0.55,-18.93 -0.69,-21.27 12.86,-10.25 5.17,-6.89 21.78,-19.91 22.57,5.15 18.67,15.51 18.95,36.58 14.57,-4.47 2.02,1.01 5.79,-8.89 1.3,-31.24 -7.82,-19.19 -18.03,-42.59 11.54,-7.24 14.36,-14.11 30.44,-14.53 11.88,27.21 -0.34,23.56 7.48,41.45 11.3,-31.36 13.79,-51.55 -26.1,-50.22 -31.32,22.44 -63.76,52.51 -53.75,106.24z"/>
    <path class="fil36" d="M1189.22 2679.79l59.62 30.62 -2.45 -29.74c-24.8,-15.72 -23.82,-22.54 -41.01,-45.61 -6.31,5.34 -11.27,7.3 -15.72,20.56 -6.15,18.29 -5.04,-0.68 -0.43,24.17z"/>
    <path class="fil46" d="M1323.12 1363.12c16.04,10.13 98.44,15.13 109.92,9.48 -9.46,-22.4 -22.28,-25.08 -48.9,-24.49 -20.89,0.47 -47.61,6.54 -61.02,15.01z"/>
    <path class="fil22" d="M534.34 2500.5c22.63,-2.38 22.49,0.15 32.56,-16.74 -11.28,9.12 -2.42,3.89 -5.8,-3.9 11.39,-21.13 15.74,-47.69 11.2,-72.31 -19.85,5.66 -11.4,-13.77 -24.7,39.82 -4.61,18.55 -10.19,32.51 -13.25,53.13z"/>
    <path class="fil14" d="M2129.91 1543.91c-11.11,2.95 -17.46,-2.45 -26.68,-7.88l2.06 -28.89c-18.72,2.42 -14.55,-1.75 -21.03,17.62 -14.26,-12.94 -5.38,-9.47 -29.76,-10.86 10.15,39.04 30.36,37.85 64.08,51.73 4.3,-11.98 5.9,-13.73 11.34,-21.72z"/>
    <path class="fil19" d="M1119.87 2950.55c-49.46,-70.21 -29.58,-107.9 -34.05,-186.53 -16.42,10.64 -3.21,14.53 -8.55,49.67 -5.65,37.28 -1.8,126.58 42.59,136.86z"/>
    <path class="fil47" d="M863.29 1281.66l97.76 7.87c-10.89,-18 -31.92,-25.82 -47.51,-28.58 -21.36,-3.78 -40.74,1.71 -50.25,20.71z"/>
    <path class="fil48" d="M1971.61 1376.25c22.33,-5.55 25.48,-8.58 48.9,-6.02 25.1,2.74 30.47,-5.15 52.61,-1.86 25.53,3.79 49.55,45.44 64.4,58.91 5.28,-19.16 -4.4,-19.11 -17.62,-32.48 -13.62,-13.76 -11.54,-22.5 -27.24,-29.28 -13.23,-5.71 -103.91,-12 -115.4,2.9l-5.65 7.82z"/>
    <path class="fil16" d="M204.77 2289.22c7.83,14.99 25.4,24.07 44.65,28.13 -2.68,-16.55 -6.68,-29.58 -5.89,-52.27 -33.81,4.4 -28.09,-0.28 -38.75,24.15z"/>
    <path class="fil49" d="M961.28 879.86c-12.38,19.18 -11.24,17.6 -12.59,39.69 1,1.6 4.21,6.64 5.2,7.44 9.78,7.93 -1.42,0.9 11.6,7.01 13.73,-10.47 17.51,-16.75 24,-31.2 -22.14,4.38 -6.56,2.9 -13.09,-4.07l0.27 -31.92c-7.39,4.23 -8.58,0.94 -15.38,13.05z"/>
    <path class="fil23" d="M748.96 1130.64c7.9,-8.4 12.2,-13.92 29.53,-16.8 -2.06,23.77 -15.44,38.55 -15.21,68.17 10.48,-26.2 1.58,-28.73 23.37,-48.47l1.17 10.48c22.95,-11.19 12.98,-1.78 18.25,-19.2 -16.86,-10.23 10.58,-3.71 -8.98,-2.17 -2.47,0.19 -6.48,9.63 -10.29,2.94 -1.08,-1.9 -3.92,1.66 -5.95,2.3 9.93,-28.11 -1.82,-7.19 15.07,-25.68 -10,-7.06 -3.52,-5.78 -16.98,-14.06 -15.96,9.58 -24.24,19.37 -30,42.48z"/>
    <path class="fil13" d="M1527.97 1430.01l0.02 39.43c22.94,-26.62 42.67,-27.35 57.91,-54.33 -20.5,1.94 -43.85,3.52 -57.93,14.9z"/>
    <path class="fil39" d="M928.02 1372.96c23.67,1.03 16.16,-31.02 16.59,-52.39 -51.96,6.14 -32.17,25.64 -16.59,52.39z"/>
    <path class="fil50" d="M673.85 1319.63c-15.65,-22.95 9.91,-23.77 -18.15,-37.61 -12.83,-6.32 -45.84,-14.21 -63.24,-15.43l81.39 53.03z"/>
    <path class="fil51" d="M1149.61 1800.58c13.9,-13.78 9.77,-11.1 9.89,-31.53l28.16 7.79c-0.46,0.43 -1.94,0.69 -2.22,2.97l-5.29 18.13c-0.17,1.24 -0.01,3.44 0.16,5.15l32.53 -6.46 6.9 -21.46c-5.62,-0.31 -23.34,-0.45 -26.44,-1.2 -22.2,-5.35 -15.67,-4.73 -19.26,-18.78 -1.32,1.04 -3.41,0.82 -4.09,2.94 -5.8,18.31 1.01,-0.54 -7.69,5.14 -4.04,2.64 -6.07,3.76 -9.32,5.92l-3.33 31.38z"/>
    <path class="fil48" d="M2142.71 1537.48c13.34,1.24 6.53,7.41 15.44,-0.03 23.41,-38.03 17.4,-71.26 -5.65,-107.4 -7.81,-6.52 -3.52,-1.02 -14.96,-2.76 27.56,47.94 43.07,58.44 5.18,110.19z"/>
    <path class="fil23" d="M2050.55 1487.83l34.22 -11.12c7.3,8.82 3.52,3.3 3.59,16.34 23.53,9.17 12.46,-0.44 16.92,14.08 13.33,-2.91 8.81,14.67 11.26,-9.25 -15.55,-12.35 -15.86,-11.43 -15.35,-32.52 -22.93,4.57 -26.65,-2.88 -39.15,-11.5l-11.5 33.96z"/>
    <path class="fil14" d="M1049.36 979.88c29.7,-26.6 35.78,-54.27 63.01,-56.5l-9.85 -24.07c-21.88,8.97 -45.21,56.43 -53.16,80.57z"/>
    <path class="fil25" d="M1577.41 1297.43l19.89 -15.68c-7.82,-17.89 4.4,-14.24 -7.48,-41.45 -16.08,0.43 -18.9,7.3 -30.44,14.53 10.21,23.4 19.33,11.35 18.03,42.59z"/>
    <path class="fil4" d="M1323.68 1446.4c25.14,-12.98 31.13,-8.38 33.83,-40.82l-30.77 -5.46c-0.84,23.67 -2.54,16.09 -5.98,30.08 -3.89,15.78 -8.66,7.54 2.92,16.2z"/>
    <path class="fil43" d="M1223.98 831.19c1.01,-7.11 -2.34,-7.62 5.33,-7.28 12.72,0.57 -6.14,-14.04 8.17,5.85 9.91,-11.8 22.92,-39.39 16.28,-54.24 -25.85,2.22 -7.62,-0.09 -14.48,8.42l1.52 -3.29c-8.24,23.93 -3.87,9.7 -15.84,28.43 -0.07,0.1 -5.69,10.15 -5.71,10.23 -2.7,14.01 -4.17,3.64 4.74,11.88z"/>
    <path class="fil52" d="M1283.66 1866.89c-3.23,-21.7 -34.27,-20.37 -57.97,-19.04 4.86,15.36 0.63,15.07 18.74,19.65 13.59,3.44 26.32,2.23 39.23,-0.61z"/>
    <path class="fil53" d="M1487.68 1039.3l1.84 8.98 12.08 18.68 22.28 -27.8 -1.54 -19.05c-0.28,-0.79 -1.41,-2.42 -2.41,-3.37 -12.96,17.69 -10.89,17.5 -32.25,22.57z"/>
    <path class="fil46" d="M1119.56 1344.24c7.66,-4.46 7.66,-9.18 24.75,-3.71l12.3 5.76c2.32,1.05 4.4,2.48 6.68,3.57 -2.58,-20.08 3.93,-30.6 -21.85,-28.47 -15.56,1.28 -19.53,11.42 -21.88,22.84z"/>
    <path class="fil26" d="M1226.38 1716.15c28.07,4.77 39.47,2.04 49.51,-19.43 -27.05,-4.07 -38.42,6.28 -49.51,19.43z"/>
    <path class="fil54" d="M482.41 1471.49c-27.61,-15.97 -42.2,-28.45 -70.85,-38.93 6.4,12.01 -2.01,4.54 11.27,14.62 1.93,1.46 13.39,7.12 18.1,10.05 19.49,12.1 17.44,15.93 41.48,14.26z"/>
    <path class="fil55" d="M1259.27 1740.94c32.93,19.9 44.18,-0.38 45.08,-1.1 -3.2,-1.42 -16.42,-7.82 -22.43,-8.33 -36.85,-3.12 -17.62,3.68 -22.65,9.43z"/>
    <path class="fil54" d="M544.14 1503.54c-6.66,-6.56 3.79,-1.66 -14.27,-10.74 -3.91,-1.97 -12.6,-4.69 -16.47,-6.23 -11.82,-4.73 -18.43,-8.51 -30.99,-15.08 2.1,11.68 -4.12,7.02 2.62,15.09 24.39,5.68 28.13,14.79 59.11,16.96z"/>
    <path class="fil56" d="M1135.03 2952.13l23.15 4.74c-8.42,-13.02 -15.82,-17.4 -27.07,-29.85 -15.18,9.67 -12.3,-15.05 -12.66,12.22 20.16,8.93 11.32,7.68 16.59,12.88z"/>
    <path class="fil55" d="M1252.14 1763.55c17.24,6.82 31.72,9.69 48.58,-1.64 -56.42,-16.53 -47.78,0.98 -48.58,1.64z"/>
    <path class="fil57" d="M51.38 1125.87l46.12 -40.6c-17.05,3.28 -17.54,2.61 -29.63,12.51 -14.25,11.67 -14.51,11.47 -16.49,28.09z"/>
    <path class="fil58" d="M1175.04 1814.42c8.93,18.35 5.74,12.84 28.78,13.73 -5.86,-14.33 -4.57,-21.65 -28.78,-13.73z"/>
    <path class="fil59" d="M1077.25 1578.5l18.51 -5.95c-6.1,-10.88 5.07,-5.29 -8.3,-11.2 -8.59,-3.79 -5.98,-1.57 -15.01,-2.07l4.79 19.22z"/>
    <path class="fil60" d="M672.62 2837.5c12.61,-3.71 12.13,-3 20.76,-11.96 15.96,-16.57 9.19,-7.02 9.83,-25.36 -11.64,15.21 -20.74,27.22 -30.59,37.32z"/>
    <path class="fil52" d="M1201.37 1757.89c1.4,0.85 1.86,16.48 25.16,0 -2.84,-1.66 2.49,-6.48 -12.64,-5.4 -14.55,1.03 -4.25,-0.18 -12.52,5.4z"/>
    <path class="fil61" d="M1209.62 1735.28c25.7,21.36 21.42,0.45 21.93,0 -5.21,-3.21 5.42,-6.36 -11.69,-5 -12.01,0.95 -4.78,0.77 -10.24,5z"/>
    <path class="fil0" d="M456.77 955.25c-9.91,-14.81 -2.86,-11.68 -22.61,-16.96 9.92,14.81 2.86,11.68 22.61,16.96z"/>
    <path class="fil0" d="M473.73 966.56c-8.45,-12.16 -0.83,-7.44 -16.96,-11.31 8.45,12.16 0.83,7.44 16.96,11.31z"/>
    <path class="fil0" d="M790.26 84.79c-4.55,-17.02 0.07,-12.41 -16.96,-16.96l16.96 16.96z"/>
   </g>
   <g>
    <path class="fil62" d="M3741.65 1139.4c11.42,30.1 17.91,55.79 19.46,77.07 1.56,21.28 2.34,41.77 2.34,61.5l0 99.65c-10.38,64.36 -29.58,124.3 -57.61,179.84 -28.03,55.53 -62.53,103.54 -103.54,144.02 -41,40.48 -86.93,72.4 -137.79,95.75 -50.86,23.36 -103.81,35.04 -158.82,35.04 -64.36,0 -124.05,-15.05 -179.06,-45.16 -55.02,-30.1 -103.02,-70.33 -144.02,-120.67 -41,-50.34 -73.18,-108.99 -96.54,-175.94 -23.36,-66.95 -35.04,-137.79 -35.04,-212.53 0,-73.7 11.68,-142.99 35.04,-207.87 23.35,-64.88 55.53,-121.44 96.54,-169.71 41,-48.27 89,-86.41 144.02,-114.44 55.01,-28.03 114.7,-42.04 179.06,-42.04 44.63,0 87.71,7 129.23,21.02 41.52,14.01 80.45,33.99 116.78,59.95 36.33,25.94 69.03,57.35 98.1,94.2 29.06,36.85 53.46,77.59 73.18,122.22l-277.15 77.85c-5.19,-14.53 -12.2,-26.73 -21.02,-36.59 -8.83,-9.86 -18.69,-17.91 -29.59,-24.13 -10.9,-6.23 -22.32,-10.63 -34.25,-13.23 -11.94,-2.6 -23.09,-3.89 -33.47,-3.89 -24.91,0 -48.01,4.67 -69.28,14.01 -21.28,9.34 -40.22,22.58 -56.83,39.7 -16.61,17.12 -29.58,37.89 -38.93,62.28 -9.34,24.39 -14.01,51.64 -14.01,81.74 0,24.91 4.67,49.05 14.01,72.4 9.35,23.36 22.32,44.38 38.93,63.06 16.61,18.69 35.55,33.73 56.83,45.16 21.28,11.42 44.38,17.12 69.28,17.12 20.76,0 43.33,-8.3 67.73,-24.91 24.39,-16.6 41.26,-35.29 50.6,-56.05l-197.74 -18.69 0 -197.74 217.98 0 275.59 0zm423.51 -231.99c52.93,0 102.24,9.6 147.91,28.8 45.67,19.21 85.11,45.41 118.33,78.63 33.21,33.21 59.43,72.66 78.63,118.33 19.2,45.67 28.81,94.97 28.81,147.91 0,53.98 -9.61,105.1 -28.81,153.37 -19.2,48.27 -45.42,90.83 -78.63,127.67 -33.22,36.85 -72.66,66.17 -118.33,87.97 -45.68,21.8 -94.98,32.7 -147.91,32.7 -53.98,0 -105.1,-10.9 -153.37,-32.7 -48.27,-21.8 -90.83,-51.12 -127.68,-87.97 -36.85,-36.85 -66.17,-79.4 -87.97,-127.67 -21.8,-48.27 -32.69,-99.39 -32.69,-153.37 0,-52.94 10.9,-102.24 32.69,-147.91 21.8,-45.67 51.13,-85.12 87.97,-118.33 36.85,-33.22 79.41,-59.42 127.68,-78.63 48.27,-19.2 99.39,-28.8 153.37,-28.8zm80.96 401.7l77.85 -80.97 -105.88 0 -52.93 -105.87 -28.03 105.87 -133.9 0 108.99 80.97 -56.05 133.9 108.99 -80.96 105.88 80.96 -24.91 -133.9zm1049.43 -471.78l-339.43 537.17 319.19 278.7 -238.23 179.06 -219.53 -258.47 0 238.23 -238.23 20.24 -40.48 -1096.14 319.19 0 -20.24 379.91 158.81 -339.42 298.95 60.72zm437.52 -57.61c42.56,-4.15 84.08,-8.3 124.56,-12.46 34.25,-4.15 69.8,-8.56 106.66,-13.23 36.85,-4.67 68.25,-9.61 94.2,-14.79 6.23,53.98 13.49,118.34 21.8,193.07 8.3,74.73 13.75,152.59 16.35,233.55 2.6,80.96 0,161.41 -7.78,241.33 -7.79,79.93 -24.13,151.29 -49.04,214.09 -24.91,62.8 -60.2,113.67 -105.88,152.59 -45.67,38.92 -105.88,58.39 -180.61,58.39 -76.81,0 -142.73,-17.65 -197.74,-52.94 -55.01,-35.29 -100.42,-82 -136.24,-140.13 -35.81,-58.13 -63.06,-125.08 -81.74,-200.86 -18.69,-75.77 -30.88,-154.14 -36.59,-235.11 -5.71,-80.96 -5.71,-161.67 0,-242.11 5.71,-80.45 15.31,-154.4 28.81,-221.88l284.93 80.97c-3.11,13.49 -8.57,40.74 -16.35,81.74 -7.78,41 -14.53,88.49 -20.24,142.47 -5.71,53.98 -8.82,110.81 -9.34,170.49 -0.52,59.69 4.15,114.18 14.01,163.49 9.86,49.3 26.46,90.05 49.82,122.22 23.35,32.18 56.83,48.27 100.43,48.27 26.98,0 47.75,-14.79 62.28,-44.38 14.53,-29.59 24.13,-67.73 28.81,-114.44 4.67,-46.71 4.93,-99.13 0.77,-157.26 -4.15,-58.13 -10.63,-115.74 -19.46,-172.82 -8.83,-57.09 -19.72,-110.56 -32.7,-160.38 -12.97,-49.82 -26.21,-89.79 -39.7,-119.89z"/>
    <path class="fil63" d="M2851.49 2318.25l-194.95 0 0 106.99c0,22.34 1.65,36.81 4.83,43.28 3.3,6.48 9.52,9.65 18.79,9.65 11.55,0 19.29,-4.31 23.1,-12.82 3.93,-8.63 5.83,-25.26 5.83,-49.88l0 -65.24 142.41 0 0 36.56c0,30.59 -1.9,54.06 -5.71,70.44 -3.93,16.38 -12.94,33.89 -27.03,52.55 -14.09,18.66 -32.11,32.61 -53.82,42.01 -21.7,9.27 -48.86,13.97 -81.61,13.97 -31.73,0 -59.78,-4.57 -84.14,-13.84 -24.25,-9.14 -43.16,-21.7 -56.73,-37.69 -13.59,-15.99 -22.85,-33.63 -28.05,-52.93 -5.21,-19.16 -7.87,-47.09 -7.87,-83.89l0 -144.06c0,-43.15 5.84,-77.17 17.51,-102.17 11.68,-24.88 30.72,-44.04 57.25,-57.25 26.65,-13.33 57.11,-19.92 91.64,-19.92 42.14,0 76.91,8 104.33,23.99 27.42,16 46.71,37.19 57.75,63.59 11.04,26.27 16.5,63.46 16.5,111.31l0 65.37zm-150.02 -79.97l0 -36.04c0,-25.64 -1.4,-42.01 -4.19,-49.5 -2.8,-7.49 -8.51,-11.17 -17.14,-11.17 -10.67,0 -17.26,3.17 -19.8,9.51 -2.54,6.35 -3.81,23.36 -3.81,51.15l0 36.04 44.94 0zm382.41 19.8l0 103.57 -196.48 0 0 -103.57 196.48 0zm373.53 -8.38l-141.65 0 0 -57.11c0,-19.79 -1.65,-33.25 -4.95,-40.36 -3.3,-7.11 -9.39,-10.66 -18.28,-10.66 -8.89,0 -14.85,3.04 -17.9,9.27 -3.04,6.22 -4.57,20.05 -4.57,41.63l0 232.9c0,17.64 2.28,30.84 6.86,39.6 4.44,8.77 11.17,13.21 20.05,13.21 10.28,0 17.26,-4.57 20.94,-13.71 3.68,-9.14 5.45,-26.4 5.45,-51.91l0 -58.51 134.03 0c-0.25,39.34 -1.66,68.92 -4.31,88.59 -2.54,19.67 -10.92,39.85 -25.01,60.54 -13.96,20.69 -32.37,36.3 -54.96,46.83 -22.59,10.53 -50.51,15.74 -83.89,15.74 -42.39,0 -76.15,-7.24 -101.03,-21.83 -24.75,-14.47 -42.39,-34.78 -52.67,-60.93 -10.28,-26.27 -15.48,-63.34 -15.48,-111.56l0 -140.24c0,-42.01 4.19,-73.62 12.69,-94.94 8.38,-21.32 26.4,-40.36 54.07,-57.11 27.54,-16.76 61.05,-25.13 100.64,-25.13 39.22,0 72.73,8.37 100.65,25 27.8,16.63 46.33,37.57 55.47,62.96 9.26,25.38 13.83,61.3 13.83,107.75zm383.55 -13.33l0 120.96c0,44.42 -2.28,76.91 -6.73,97.73 -4.44,20.69 -13.96,39.98 -28.55,58 -14.59,18.02 -33.38,31.22 -56.35,39.86 -22.97,8.5 -49.25,12.82 -78.94,12.82 -33.25,0 -61.43,-3.69 -84.41,-10.92 -23.09,-7.36 -41,-18.41 -53.68,-33.13 -12.82,-14.85 -21.96,-32.74 -27.42,-53.68 -5.46,-20.94 -8.12,-52.42 -8.12,-94.3l0 -126.54c0,-45.94 4.95,-81.73 14.85,-107.62 9.9,-25.77 27.79,-46.46 53.56,-62.07 25.77,-15.61 58.76,-23.48 98.87,-23.48 33.63,0 62.57,5.07 86.82,15.1 24.11,10.03 42.77,23.11 55.97,39.22 13.08,16.12 22.08,32.75 26.9,49.88 4.83,17.13 7.24,43.15 7.24,78.18zm-150.02 -37.19c0,-25.26 -1.4,-41.25 -4.07,-47.73 -2.79,-6.6 -8.63,-9.89 -17.64,-9.89 -9.01,0 -14.98,3.3 -18.03,9.89 -2.92,6.48 -4.45,22.46 -4.45,47.73l0 222.75c0,23.35 1.53,38.59 4.45,45.56 3.04,7.1 8.89,10.66 17.64,10.66 9.01,0 14.85,-3.17 17.76,-9.65 2.92,-6.47 4.32,-20.31 4.32,-41.63l0 -227.69zm348.14 -136.06l-2.28 46.96c11.68,-18.66 25.51,-32.75 41.63,-42.01 15.99,-9.39 34.39,-14.09 54.96,-14.09 40.1,0 71.58,18.66 94.68,56.1 12.56,-18.66 26.78,-32.75 42.65,-42.01 15.86,-9.39 33.38,-14.09 52.79,-14.09 25.39,0 46.59,6.22 63.21,18.66 16.76,12.3 27.41,27.54 32.11,45.56 4.69,17.89 7.11,47.09 7.11,87.57l0 350.81 -145.45 0 0 -321.75c0,-42.14 -1.4,-68.16 -4.32,-78.18 -2.79,-10.03 -9.39,-15.1 -19.92,-15.1 -10.66,0 -17.52,4.95 -20.56,14.85 -3.18,9.9 -4.7,36.04 -4.7,78.44l0 321.75 -145.45 0 0 -313.49c0,-48.36 -1.14,-77.42 -3.55,-87.07 -2.29,-9.65 -8.89,-14.47 -19.55,-14.47 -6.72,0 -12.31,2.54 -17.13,7.61 -4.7,5.08 -7.24,11.3 -7.74,18.66 -0.51,7.24 -0.76,22.85 -0.76,46.58l0 342.18 -145.45 0 0 -493.47 147.73 0zm587.13 0l-2.28 46.96c11.68,-18.66 25.52,-32.75 41.63,-42.01 16,-9.39 34.39,-14.09 54.96,-14.09 40.1,0 71.58,18.66 94.68,56.1 12.57,-18.66 26.78,-32.75 42.65,-42.01 15.86,-9.39 33.37,-14.09 52.79,-14.09 25.38,0 46.58,6.22 63.2,18.66 16.76,12.3 27.42,27.54 32.11,45.56 4.7,17.89 7.12,47.09 7.12,87.57l0 350.81 -145.46 0 0 -321.75c0,-42.14 -1.4,-68.16 -4.31,-78.18 -2.8,-10.03 -9.39,-15.1 -19.93,-15.1 -10.66,0 -17.51,4.95 -20.56,14.85 -3.17,9.9 -4.69,36.04 -4.69,78.44l0 321.75 -145.45 0 0 -313.49c0,-48.36 -1.15,-77.42 -3.55,-87.07 -2.29,-9.65 -8.89,-14.47 -19.55,-14.47 -6.73,0 -12.32,2.54 -17.14,7.61 -4.7,5.08 -7.23,11.3 -7.74,18.66 -0.51,7.24 -0.76,22.85 -0.76,46.58l0 342.18 -145.45 0 0 -493.47 147.73 0zm779.04 255.11l-194.95 0 0 106.99c0,22.34 1.66,36.81 4.83,43.28 3.3,6.48 9.52,9.65 18.79,9.65 11.55,0 19.29,-4.31 23.1,-12.82 3.93,-8.63 5.84,-25.26 5.84,-49.88l0 -65.24 142.4 0 0 36.56c0,30.59 -1.9,54.06 -5.71,70.44 -3.93,16.38 -12.94,33.89 -27.03,52.55 -14.09,18.66 -32.11,32.61 -53.82,42.01 -21.7,9.27 -48.86,13.97 -81.61,13.97 -31.73,0 -59.78,-4.57 -84.14,-13.84 -24.25,-9.14 -43.15,-21.7 -56.73,-37.69 -13.59,-15.99 -22.85,-33.63 -28.05,-52.93 -5.21,-19.16 -7.86,-47.09 -7.86,-83.89l0 -144.06c0,-43.15 5.83,-77.17 17.51,-102.17 11.68,-24.88 30.71,-44.04 57.24,-57.25 26.65,-13.33 57.11,-19.92 91.64,-19.92 42.13,0 76.91,8 104.33,23.99 27.41,16 46.71,37.19 57.75,63.59 11.04,26.27 16.5,63.46 16.5,111.31l0 65.37zm-150.02 -79.97l0 -36.04c0,-25.64 -1.4,-42.01 -4.19,-49.5 -2.8,-7.49 -8.51,-11.17 -17.14,-11.17 -10.66,0 -17.26,3.17 -19.8,9.51 -2.54,6.35 -3.81,23.36 -3.81,51.15l0 36.04 44.94 0zm348.14 -175.15l-5.33 64.98c21.96,-46.71 53.69,-71.33 95.19,-74.12l0 173.63c-27.55,0 -47.85,3.68 -60.79,11.16 -12.94,7.49 -20.82,17.77 -23.86,31.1 -2.92,13.21 -4.45,43.79 -4.45,91.76l0 194.95 -150.02 0 0 -493.47 149.26 0zm456.03 186.57l-141.64 0 0 -57.11c0,-19.79 -1.65,-33.25 -4.95,-40.36 -3.3,-7.11 -9.39,-10.66 -18.28,-10.66 -8.88,0 -14.85,3.04 -17.89,9.27 -3.05,6.22 -4.57,20.05 -4.57,41.63l0 232.9c0,17.64 2.29,30.84 6.86,39.6 4.44,8.77 11.17,13.21 20.05,13.21 10.28,0 17.26,-4.57 20.94,-13.71 3.68,-9.14 5.45,-26.4 5.45,-51.91l0 -58.51 134.03 0c-0.25,39.34 -1.65,68.92 -4.31,88.59 -2.54,19.67 -10.92,39.85 -25,60.54 -13.96,20.69 -32.37,36.3 -54.96,46.83 -22.59,10.53 -50.52,15.74 -83.9,15.74 -42.39,0 -76.15,-7.24 -101.03,-21.83 -24.75,-14.47 -42.39,-34.78 -52.67,-60.93 -10.27,-26.27 -15.48,-63.34 -15.48,-111.56l0 -140.24c0,-42.01 4.19,-73.62 12.7,-94.94 8.37,-21.32 26.4,-40.36 54.06,-57.11 27.55,-16.76 61.05,-25.13 100.65,-25.13 39.22,0 72.73,8.37 100.65,25 27.8,16.63 46.33,37.57 55.46,62.96 9.27,25.38 13.83,61.3 13.83,107.75zm384.32 68.54l-194.95 0 0 106.99c0,22.34 1.65,36.81 4.82,43.28 3.3,6.48 9.52,9.65 18.79,9.65 11.55,0 19.29,-4.31 23.1,-12.82 3.94,-8.63 5.84,-25.26 5.84,-49.88l0 -65.24 142.41 0 0 36.56c0,30.59 -1.9,54.06 -5.71,70.44 -3.93,16.38 -12.94,33.89 -27.03,52.55 -14.09,18.66 -32.11,32.61 -53.82,42.01 -21.7,9.27 -48.87,13.97 -81.61,13.97 -31.73,0 -59.78,-4.57 -84.15,-13.84 -24.24,-9.14 -43.15,-21.7 -56.73,-37.69 -13.58,-15.99 -22.85,-33.63 -28.05,-52.93 -5.21,-19.16 -7.87,-47.09 -7.87,-83.89l0 -144.06c0,-43.15 5.83,-77.17 17.51,-102.17 11.68,-24.88 30.72,-44.04 57.25,-57.25 26.65,-13.33 57.11,-19.92 91.64,-19.92 42.14,0 76.91,8 104.33,23.99 27.42,16 46.71,37.19 57.75,63.59 11.05,26.27 16.5,63.46 16.5,111.31l0 65.37zm-150.02 -79.97l0 -36.04c0,-25.64 -1.4,-42.01 -4.19,-49.5 -2.79,-7.49 -8.51,-11.17 -17.14,-11.17 -10.66,0 -17.26,3.17 -19.79,9.51 -2.54,6.35 -3.81,23.36 -3.81,51.15l0 36.04 44.93 0z"/>
   </g>
  </g>
 </g>
</svg>
