<?xml version="1.0" encoding="UTF-8"?>
<!DOCTYPE svg PUBLIC "-//W3C//DTD SVG 1.1//EN" "http://www.w3.org/Graphics/SVG/1.1/DTD/svg11.dtd">
<!-- Creator: CorelDRAW 2018 (64 Bit) -->
<svg xmlns="http://www.w3.org/2000/svg" xml:space="preserve" width="33.4273mm" height="44.3795mm" version="1.1" style="shape-rendering:geometricPrecision; text-rendering:geometricPrecision; image-rendering:optimizeQuality; fill-rule:evenodd; clip-rule:evenodd"
viewBox="0 0 741.96 985.06"
 xmlns:xlink="http://www.w3.org/1999/xlink">
 <defs>
  <style type="text/css">
   <![CDATA[
    .fil10 {fill:#FEFEFE}
    .fil1 {fill:#FCC795}
    .fil7 {fill:#FCC594}
    .fil36 {fill:#F9FCFE}
    .fil28 {fill:#F3F4F4}
    .fil30 {fill:#F1BE8D}
    .fil15 {fill:#EAB88C}
    .fil27 {fill:#EFE02B}
    .fil13 {fill:#E2804C}
    .fil25 {fill:#DB7F4A}
    .fil14 {fill:#DB7E49}
    .fil26 {fill:#E5D631}
    .fil2 {fill:#CD3539}
    .fil29 {fill:#D37A48}
    .fil56 {fill:#D7D8D8}
    .fil23 {fill:#D28757}
    .fil44 {fill:#C83538}
    .fil38 {fill:#C97647}
    .fil31 {fill:#C87F52}
    .fil52 {fill:#D5C939}
    .fil50 {fill:#C79369}
    .fil42 {fill:#BD6D40}
    .fil32 {fill:#BEBEC2}
    .fil61 {fill:#C5BB3E}
    .fil24 {fill:#BDBABB}
    .fil37 {fill:#A86A45}
    .fil58 {fill:#C1B640}
    .fil9 {fill:#842F31}
    .fil16 {fill:#873031}
    .fil21 {fill:#B6B4B6}
    .fil43 {fill:#985B37}
    .fil5 {fill:#7E2E30}
    .fil17 {fill:#935635}
    .fil59 {fill:#8E5134}
    .fil18 {fill:#792D2F}
    .fil35 {fill:#77362F}
    .fil33 {fill:#742E2E}
    .fil40 {fill:#865639}
    .fil22 {fill:#642E2D}
    .fil12 {fill:#A49A93}
    .fil46 {fill:#947458}
    .fil49 {fill:#734B32}
    .fil47 {fill:#8F7156}
    .fil53 {fill:#8B6D53}
    .fil55 {fill:#948D41}
    .fil34 {fill:#8C796B}
    .fil51 {fill:#77723C}
    .fil48 {fill:#4C3D35}
    .fil57 {fill:#44372F}
    .fil54 {fill:#3B352F}
    .fil45 {fill:#392E2F}
    .fil60 {fill:#585758}
    .fil19 {fill:#322C2D}
    .fil11 {fill:#36332F}
    .fil4 {fill:#2C2B2A}
    .fil41 {fill:#363637}
    .fil3 {fill:#2A2929}
    .fil0 {fill:#282828}
    .fil39 {fill:#292929}
    .fil20 {fill:#2D3039}
    .fil8 {fill:#2D313C}
    .fil6 {fill:#344E99}
   ]]>
  </style>
 </defs>
 <g id="Camada_x0020_1">
  <metadata id="CorelCorpID_0Corel-Layer"/>
  <g id="_1655321405376">
   <path class="fil0" d="M262.74 28.19c2.38,8.9 11.85,17.39 16.14,27.09 11.55,26.12 32.73,72.09 32.73,100.7 -10.01,-11.52 -19.95,-21.54 -32.73,-31.17 -3.39,-2.55 -5.7,-3.81 -9.01,-6.02 -3.85,-2.57 -6.17,-4.71 -9.82,-7.1 -3.78,-2.48 -5.67,-3.01 -9.66,-5.37 -26.62,-15.71 -52.67,-24.69 -83.98,-28.78 -13.01,-1.7 -19.79,0.58 -29.58,1.39 0.61,7.32 0.76,5.5 5.08,9.96l15.62 18.21c27.91,38.75 45.34,76.03 66.39,117.78 4.15,8.23 6.62,15.6 10.63,23.19 -7.63,-1.78 -21,-9.56 -28.19,-13.16 -32.07,-16.04 -29.59,-14.06 -62.68,-23.77 -11.93,-3.5 -22.19,-6.3 -36.92,-6.3 2.38,10.19 26.01,44.74 34.36,55.85l63.37 92.61c-6.45,-1.72 -25.23,-17.87 -34.19,-24.07 -4.57,-3.15 -7.83,-6.56 -12.79,-7.88 3.88,5.79 4.97,5.83 10.9,9.77 5.33,3.54 7.02,5.52 11.63,9.04 5.69,4.36 19,13.44 22.57,18.77 -14.97,-3.49 -33.86,-20.34 -48.86,-20.67 2.43,9.09 43.26,48.8 49.42,53.94 4.99,4.18 6.34,4.67 11.18,9.49 7.42,7.39 16.86,11.44 22.09,19.25 -18.2,-1.51 -17.87,-14.77 -58.26,-20.67 -13.77,-2.01 -8.26,-7.3 -19.62,-6.1 1.08,0.64 13.43,8 14.97,8.43 7.7,2.18 13.2,0.37 22.75,3.98 11.16,4.22 27.23,14.6 36.34,16.16l22.51 0.41c-8.8,-14.37 -18.1,-28.68 -13.66,-51.93 3.64,-19.1 26.24,-39.18 34.09,-15.14l4.89 -11.11c3.14,3.94 2.46,2.6 4.89,7.45 2.33,0.71 1.99,0.23 5.26,2.17l-0.05 -7.5c-8.76,-20.3 6.21,-52.01 14.53,-68.2 -1.8,19.78 -0.66,14.77 1.67,33.7 0.4,7.07 1.07,10.68 4.85,16.26l3.81 -23.13c0.45,-7.34 0.07,-6.82 4.19,-13.2 3.56,-20.58 31.73,-51.86 49.63,-55.38 -4.39,12.41 -9.54,21.23 -13.8,33.74 -18.3,1.82 -25.27,2.23 -30.71,17.3l-0.09 10.61c2.17,2.32 -3.01,2.81 4.35,1.35 3.64,-6.8 9.93,-13.62 19.23,-13.55 -0.79,16.43 -6.83,23.59 -4.66,46.41 5.42,-3.78 1.81,-0.78 5.34,-7.24 2.64,-8.03 10.4,-23.81 17.67,-26.79l3.27 8 3.26 20.14c12.56,-10.15 -4.29,-34.74 5.17,-44.17 5.44,-5.43 25,-20.87 33.77,-22.33 2.28,-2.83 -3.78,-2.06 4.81,-2.8 2.21,4.94 -2.12,14.11 -5.41,18.03 -10.72,18.84 -20.32,50.34 -21.4,76.06 4.85,-2.01 1.23,0.37 6.02,-3.33 12.54,-18.7 63.33,-64.15 91.28,-72.64 -0.26,7.62 -1.06,19.26 -5.46,24.22 -1.62,19.93 -13.08,11.17 -29.72,20.78 -10.16,5.87 -19.79,15.77 -23.71,28.46 15.18,-8.96 13.01,-21.41 42.05,-21.5 -3.59,11.87 -16.48,26.2 -17,33.82l8.54 -4.23c3.85,-5.75 9.68,-7.71 15.06,-11.59 4.79,-3.46 8.87,-7.08 14.48,-8.89l3.05 8.51c7.1,-1.68 6.41,-1.62 10.72,-7.5l-2.07 -11.03c3.64,-4.38 17.6,-18.53 21.85,-21.62 3.81,9.29 4.17,21.71 1.9,32.28 -1.43,6.65 -0.3,5.59 -4.24,9.22 -1.18,18.96 -26.1,42.34 -30.82,55.19l12.09 -5.69c3.67,-4.21 8.63,-6.39 14.85,-9.06 -1.49,7.34 -6.12,12.25 -10.62,17.03l8.81 1.6 4.26 -2.27c14.56,-5.89 19.9,13.08 15.24,26.14 -3.7,10.36 -13.56,28.46 -20.26,30.61 -2.33,4.49 -0.44,3.5 -5.44,7 -2.1,1.54 -5.23,3.6 -6.35,4.27 0.6,8.4 -0.56,0.86 3.47,3.74 4.68,-3.78 12.45,-4.31 19.26,-4.95 10.7,-0.18 22.03,1.87 32.08,0.77 10.55,-1.16 18.78,-3.04 30.77,-3.76 0.14,-10.98 9.53,-6.01 14.29,-6.13 5.28,-0.13 9.39,-2.98 24.92,0.56 13.6,3.1 3.26,7.61 10.79,4.22 3.94,-1.83 4.48,-2.51 7.36,-4.43 0.38,-0.25 2.72,-1.85 3.38,-2.35 2.11,-1.6 1.87,-1.29 3.25,-2.71 -7.62,1.58 -8.7,3.23 -13.64,7.52 -7.31,-2.65 -1.3,-3.73 -9.36,-5.13l-12.1 -1.6c-2.7,-0.49 -22.66,-0.81 -26.62,1.74 -6.71,4.33 -1.69,4.91 -10.39,6.65 -24.72,4.94 -27.17,2.1 -44.88,2.1 1.97,-1.37 -0.67,-0.08 3.62,-2.02l63.05 -19.64c6.34,-2.55 4.59,1.04 6.62,-6.53 -15.42,0 -22.93,-1.88 -37.59,-1.88 1.96,-1.36 -0.57,-0.12 3.64,-2 2.47,-1.1 1.99,-0.84 4.06,-1.58 3.66,-1.31 5.97,-1.83 9.95,-3.21l35.53 -13.33c6.72,-2.87 10.08,-4.18 17.44,-6.99l52.79 -20.5c5.68,-2.57 12.9,-6.35 19.42,-6.89l-50.79 -11.22c-10.28,-0.39 -12.28,2.43 -16.86,-3.81 26.74,0 47.87,-5.64 63.9,-5.64l0 -1.88c-16.98,0 -32.56,1.92 -47.27,3.47 -16.33,1.72 -33.55,2.79 -48.57,4.04 4.68,-6.39 82.76,-46.02 97.38,-54.84 16.4,-9.9 27.82,-13.69 28.53,-22.21 -6.16,-1.43 -8.24,-2.69 -13.93,-4.87 -34.16,-13.08 -85.79,-15.81 -123.26,-15.81l0 -1.88c9.3,0 18.78,-2.57 28.08,-3.87 8.74,-1.22 21.24,-3.1 30.24,-3.59l58.41 -3.61c2.64,-1.1 2.16,-1.12 3.55,-2.08 -49.08,0 -60.98,1.68 -104.7,8.06 -8.98,1.31 -22.48,5.09 -32.49,5.09 -5.39,-23.15 -7.53,-32.86 -18.88,-50.65 -17.57,-27.55 -48.94,-50.27 -83.98,-56.97 -15.14,-2.9 -49.77,-6.52 -64.4,0.5 -13.81,-28.78 -4.29,-40.1 -49.66,-100.68 -13.07,-17.45 -19.85,-25.16 -37.03,-38.14 -13.5,-10.19 -33.9,-22.8 -52.37,-22.8 1.34,5.02 4.29,8.55 6.93,13.74l17.39 50.27c5.5,25.41 9.51,50 9.51,80.7 -0.25,-0.4 -0.53,-1.52 -0.62,-1.26l-26.75 -76.61c-4.59,-10.19 -17.1,-33.2 -25.25,-38.65z"/>
   <path class="fil1" d="M406.95 276.35c-5.26,9.83 -11.21,17.65 -16.17,28.33 -3.35,7.22 -8.3,24.31 -11.51,28.87 -6.18,-4.6 -3.16,0.51 -6.17,-6.41l-3.26 -20.14c-9.05,0.74 -11.08,9.94 -20.95,18.78 -3.53,6.45 0.09,3.45 -5.34,7.24 -2.18,-22.83 3.87,-29.99 4.66,-46.41 -9.3,-0.07 -15.59,6.75 -19.23,13.55 -2.16,4.81 -3.41,6.89 -7.98,10.37 -4.33,-2.03 -0.6,0.31 -3.86,-2.33 -0.33,-0.27 -1.4,-1.94 -1.73,-2.47l-3.81 23.13c-3.78,-5.58 -4.45,-9.2 -4.85,-16.26 -8.5,7.94 0.11,13.14 -5.43,21.57l-2.47 -21.06c-6.97,7.33 -7.36,24.38 -8.3,33.99l0.05 7.5c-3.27,-1.94 -2.93,-1.46 -5.26,-2.17 0.08,3.28 7.28,7.88 1.83,15.9 -6.94,-3.44 -1.95,3.15 -6.19,-5.5 -3.64,-7.42 -1,-1.99 0.54,-3.89 -1.36,12.43 -1.88,22.45 -1.88,37.59l-3.06 0.88c-15.12,3.08 4.1,-3.13 -5.67,0.23l-4.95 8.28 6.78 16.42c4.33,-2.83 1.34,-1.81 4.46,-6.99l1.84 16.88c1.04,34.21 33.03,50.48 62.22,66.23 34.32,18.52 71.92,11.28 104.86,-0.08 4.57,-6.64 12.85,-10.62 19.72,-19.06 13.72,-16.85 32.08,-64.63 37.93,-73.56 0.49,-0.86 2.8,-3.8 2.91,-4.42 1.08,-5.98 3.42,-2.48 -2.65,-4.97l-12.09 5.69c4.72,-12.85 29.64,-36.23 30.82,-55.19 0.93,-7.17 0.76,-6.14 -0.85,-9.34 -2.86,16.01 -30.07,53.78 -38.6,58.01 2.77,-7.24 34.85,-42.29 36.69,-66.29 -17.17,12.64 -8.3,10.14 -13.38,16.23l-7.41 9.24 -4.02 -6.21c-6.74,0.12 -21.83,9.68 -31.4,12.57l-1.51 -2.96c-0.03,-0.28 -0.19,-0.42 -0.29,-0.63l-8.54 4.23c0.53,-7.61 13.41,-21.95 17,-33.82 -29.04,0.1 -26.87,12.54 -42.05,21.5 3.92,-12.68 13.55,-22.59 23.71,-28.46 16.65,-9.61 28.1,-0.85 29.72,-20.78 0.13,-8.95 0.47,-2.2 -1.14,-4.82 -38.06,22.8 -56.29,40.87 -80.81,56.33l-3.88 -3.09c-4.79,3.7 -1.17,1.32 -6.02,3.33 1.08,-25.73 10.69,-57.23 21.4,-76.06 -4.76,-6.61 1.51,-1.75 -2.72,-1.94 -2.55,-0.12 -1.44,0.06 -1.77,2.42z"/>
   <path class="fil2" d="M223.06 471.13c0.22,0.45 0.44,1.08 0.51,1.4 1.12,5.36 2.01,-0.59 -0.6,10.47 -1.15,4.87 -1.86,7.53 -2.82,12.25 -2.4,11.82 -2.38,16.27 0.41,28.08l3.45 -5.55c2.37,-5.22 3.77,-14.86 8.67,-20.36 0.05,0.29 -6.52,24.09 -7.5,30.27 -2.73,17.14 -0.84,28.41 -10.5,32.33 -20.62,24.51 -11.82,25.13 -10.96,30.67 0.68,4.39 0.25,2.22 -0.34,5.66 -0.37,2.17 -1.35,5.44 -1.71,8.66 29.96,10.69 9.48,14.53 33.01,10.39 57.13,-10.06 35.3,-7.17 60.99,7.59 47.17,27.1 51.1,5.75 74.19,1.39l2.73 4.21c12.47,18.35 25.75,16.61 33.29,25.58l7.19 2.03c6.22,-5.25 10.93,-6.07 19.05,-6.88 12.05,-1.2 11.39,-2.46 20.83,-5.82 15.84,-5.62 27.33,-8.46 27.66,-25.73 -0.73,-4.72 -2.54,-6.81 -3.08,-9.65 -1.56,-8.26 -1.1,-2.18 2.28,-11.44 2.81,-7.68 4.37,-14.88 4.06,-23.15l1.08 -28.21c6.19,2.7 0.94,5.36 7.09,8.12 8.82,-15.42 12.16,-35.74 12.01,-56.22 -11.28,1.61 -2.61,-1.57 -9.55,5.21 -17.36,16.94 -20,21.57 -44.72,33.98l30.59 -23.7c6.83,-4.65 6.93,-4.96 9.06,-10.59 -11.6,1.69 -12.7,5.13 -21.16,9.76l-55.77 20.93c-4.12,0.04 -1.86,0.28 -4.39,-1.03l-32.46 12.03 3.08 2.15c-27.67,7.65 -25.18,14.51 -40.09,-3.59l-22.94 -22.03c-3.75,-4.02 -3.24,-4 -7.5,-7.71 -21.18,-18.44 -8.93,-28.65 -18.33,-42.17 -3.44,-4.95 -8.33,-9.34 -11.38,-18.62 -3.32,-10.14 0.49,-8.63 -6.22,-16.22l-3.23 -3.36c-0.99,-0.57 -3.55,-1.79 -4.14,-2.16 -0.72,-0.44 -2.08,-0.18 -2.61,-1.81 -0.24,-0.73 -0.94,-0.65 -1.39,-1.02l-5.74 -4.1 -22.51 -0.41c3.35,4.97 2.16,-1.87 1.39,7.33l-10.95 41.05z"/>
   <path class="fil2" d="M45.61 758.29c5.59,5.99 7.85,27.25 14.59,38.09 9.59,15.44 15.33,16.77 29.05,25.4 9.11,3.9 20.79,11.53 30.52,8.88 12.71,1.81 35.79,4.38 45.09,-1.96 6.58,-4.49 16.59,-25.85 15.5,-34.27 -6.28,-4.3 -14.44,-9.15 -25.77,-9.07l-3.41 2.2 -14.76 14.85c-4.02,3.3 2.55,-0.57 -4.22,2.92 2.69,-15.28 7.54,-13.46 11.88,-24.87 -10.53,0.33 -27.88,1.79 -37.86,-0.36 -7.47,-1.61 -18.07,-12.9 -12.86,-20.87 12.77,-4.98 47.32,3.82 58.62,6.51l11.19 3.04c4.67,-2.68 -0.27,1.06 2.61,-2.78 0.28,-0.37 1.27,-1.85 1.54,-2.25l1.48 -2.43c19.55,6.33 42.65,16.35 66.73,14.04 -19.02,-7.04 -70.9,-31.84 -84.89,-41.54 15.86,3.44 37.01,8.25 53.34,12.76 12.81,3.54 43.49,16.45 51.56,16.08l2.47 -43.22c-22.01,-9.52 -50.17,-38.06 -54.58,-62.73 17.99,7.48 40.69,50.59 58.86,47.8 -0.16,-8.26 3.71,-7.94 3.41,-16.57 -8.63,-15.26 -3.3,7.31 -10.5,-7.21 -2.57,-5.19 1.68,-20.47 -5.97,-18.09l-3.91 2.12c-3.12,3.56 -5.21,15.29 -6.74,19.04 -0.64,-12.51 1.87,-10.38 3.44,-19.19 1.76,-9.86 -1.71,-6.95 -5.96,-15.16 -8.81,-6.93 -21.75,-22.53 -32,-23.67l-3.58 12.89c-3.38,-6.76 0.73,-6.25 -9.1,-5.01 -5.23,18.58 14.67,51.67 21.62,62.69 -2.71,-6.36 -10.67,-14.84 -15.41,-25.83 -4.4,-10.2 -6.88,-19.64 -10.96,-30.33 -15.15,-9.22 -44.92,-9.86 -65.23,-5.23 -19.89,4.53 -37.72,11.3 -50.48,22.64 -11.27,10.02 -24.66,23.57 -31.95,41.36 -10.92,26.64 -2.49,38.64 6.65,59.32z"/>
   <path class="fil2" d="M480.75 831.36l-45.36 6.23c-5.17,11.27 -3.22,27.12 4.92,35.39 6.5,6.6 26.05,6.83 36.09,8.08 67.68,8.48 42.47,1.15 72.1,-7.19 16.96,-3.46 26.97,-20.52 34.55,-36.72 8.27,-17.68 17.83,-36.48 10.9,-59.7 -11.24,-37.66 -34.9,-63.8 -68.95,-76.23 -18.23,-1.27 -24.53,10.11 -41.87,14.95 -8,11.68 -14.65,26.69 -19.26,43.92l-32.21 -5.72c-9.74,-0.56 -7.78,1.05 -15.72,3.78 1.54,-2.12 1.74,-1.68 2.76,-3.02 2.79,-3.66 -0.12,1.33 2.85,-4.37 -17.44,1.22 -19.81,17.66 -39.46,17.32 1.61,-14.65 11.8,-17.09 13.12,-27.99 -7.25,-6.37 -18.6,-13.14 -26.22,-19.48 -10.14,-8.44 -12.95,-14.85 -21.1,-24.54l0.41 17.43c-9.79,-12.08 -0.17,-21.78 -15.21,-26.54l3.36 83.08c-1.73,7.64 -6.14,11.84 -5.63,20.68 28.38,3.38 46.53,-5.62 71.13,-5.45 -4.51,7.52 -9.47,5.28 -10.47,12.35 14.66,1.58 23.09,2.76 35.33,7.98 53.82,22.96 61.11,-2.22 111.66,-0.75 -5.92,12.49 -8.66,3.58 -18.54,12.63 6.21,4.36 14.87,2.12 23.41,6.41l-46.68 0.45c8.88,10.98 22.38,9.32 23.38,23.1 -16.98,-0.25 -27.34,-11.54 -39.29,-16.08z"/>
   <path class="fil3" d="M45.61 758.29c-9.14,-20.68 -17.57,-32.68 -6.65,-59.32 7.29,-17.79 20.68,-31.34 31.95,-41.36 12.76,-11.34 30.6,-18.12 50.48,-22.64 20.32,-4.62 50.08,-3.99 65.23,5.23 4.08,10.69 6.57,20.13 10.96,30.33 4.73,10.99 12.7,19.47 15.41,25.83 -6.95,-11.02 -26.85,-44.11 -21.62,-62.69 9.82,-1.24 5.72,-1.75 9.1,5.01l3.58 -12.89c10.26,1.14 23.19,16.74 32,23.67l8.07 4.65c5.5,4.72 1.71,3.2 21.85,7.88 4.94,1.15 9.27,1.81 14.69,2.28l-10.5 17.67c-0.23,0.39 -0.48,0.86 -0.72,1.25l-3.75 4.75c0.3,8.63 -3.57,8.31 -3.41,16.57 -1.66,4.37 -3.39,8.93 -4.28,14.93l-2.47 43.22c-0.78,12.37 -0.34,15.36 1.35,26.5l-26.1 -0.37c-3.75,3.08 -1.12,-2.51 -1.77,3.08l28.12 1.36 6.57 16.41c0.49,6.19 0.35,12.62 -0.2,19.88 3.66,-2.1 3.02,6.89 3.02,-6.39 4.28,2.86 8.34,8.77 11.28,13.16 8.24,-2.2 11.8,-7.74 23.55,-10.28 10.46,-2.26 23.45,-1 34.71,-1 0,-9.8 -2,-11.23 -3.76,-18.79 6.12,-0.51 9.04,-2.95 16.4,-1.52 5.18,1.01 7.11,3.75 13.67,5.28 -2.62,11.24 -13.91,19.8 -8.69,51.91 1.54,9.46 3.85,15.43 5.75,24.32 2.05,9.57 1.05,21.53 1.05,31.96l1.35 -3.27c5.74,-20.11 -2.13,-37.11 -4.31,-53.48 -4.79,-36.07 4.98,-36.94 6.32,-49.84 2.62,-3.93 1.1,-2.95 -2.99,-5.42 -0.46,-0.28 -8.74,-4.58 -8.91,-4.63 -7.67,-2.29 -11.57,3.2 -21.44,-0.35 -0.39,-0.33 -0.87,-1.46 -1.01,-1.16l-3.82 -6.27c-4.55,-7.9 -19.8,-24.35 -25.33,-47.87 -6.1,-25.95 -1.31,-53.62 13.14,-70.09 6.93,0.81 5.09,2.1 16.79,2.89 0.23,6.19 0.86,10.21 0.04,16.41 -0.89,6.8 -3.23,10.2 0.48,15.57l0.79 -32.03c6.87,1.23 7.68,1.1 10.2,4.93 1.53,2.33 4.78,9.2 6.12,12.51 8.14,9.7 10.96,16.11 21.1,24.54 7.62,6.34 18.97,13.11 26.22,19.48 23.99,10.85 10.59,4.71 26.76,9.54l8.51 3.92c0.27,0.16 0.81,0.5 1.17,0.82l32.21 5.72c4.61,-17.24 11.26,-32.24 19.26,-43.92 5.09,-6.71 15.18,-13.06 18.65,-18.96l-6.09 -3.83 -4.37 -0.14c-18.47,-3.5 1.26,-3.91 -19.74,-3.55 -1.81,0.03 -9.98,-0.53 -11.6,-1.06 -9.13,-2.96 -2.26,1.21 -7.43,-6.62l-1.03 5.57c-15.73,-0.22 -56.94,-3.65 -64.19,-14.17 14.07,-0.54 28.16,-0.02 42.71,-0.7 2.91,-0.14 6.59,-0.14 9.29,-0.31 10.1,-0.64 11.78,-1.22 17.88,-4.3 6.03,-3.05 -0.29,-1.98 9.19,-3.84l5.03 12.86c20.72,-4.59 16.54,0.5 20.11,4.11 6.28,-0.62 13.71,-2 20.94,-0.54l1 6.88c-0.84,6.93 -0.1,5.17 -2.46,9.76 6.37,1.02 7.7,-0.93 13.98,3.9 34.05,12.43 57.71,38.57 68.95,76.23 6.93,23.22 -2.63,42.02 -10.9,59.7 -7.58,16.2 -17.59,33.25 -34.55,36.72 -4.64,12.93 -26.48,21.22 -39.32,24.96 -14.36,4.17 -43.76,2.6 -59.59,0.4 -23.61,-3.28 -20.98,-18.3 -33.48,-28.37 -6.84,-5.52 -6.09,-5.45 -6.74,-21.43 -0.32,-7.78 0.09,-21.48 4.26,-26.31 0.75,-15.29 3.89,-5.56 -4.31,-9.04 -2.73,3.99 1.94,3.07 -3,3.29 -3.83,0.17 -1.01,4.13 -2.63,-3.44l-13.77 -1.01c-5.86,3.47 0.57,0.61 5.45,3.27 5.34,2.92 4.73,-2.68 4.55,7.57 -3.39,19.71 -7.43,31.31 0.84,52.33 5.72,7.67 5.39,9.94 13.64,15.16 5.18,5.66 2.67,5.7 2.21,11.34 -0.38,4.67 0.26,6.2 0.06,12.53 -0.33,10.22 -4.25,15.08 -6.3,24.51 11.25,-9.39 8.37,-29.78 8.37,-43.22 21.91,0 22.38,10.09 78.97,7.55 11.06,-0.5 14.89,-3.19 23.33,-6.74 18.15,-7.64 23,-11.93 36.33,-23.81 22.31,-19.87 11.26,-6.54 26.85,-33.29 40.97,-70.31 -16.43,-132.84 -67.75,-144.8 -2.28,-9.79 0.18,-8.06 -1.88,-16.91 -14.1,-3.28 -10.06,-0.28 -22.55,0 -2.32,-8.69 -7.44,-5.64 -18.79,-5.64 -1.54,-5.75 -4.6,-8.79 -7.52,-13.15 9.34,-10.75 28.72,-17.99 20.52,-39.29 -6.49,-16.85 -8.24,-4.64 -0.27,-36.31 1.75,-6.95 2.77,-6.69 4.18,-12.74 2.14,0 7.76,0.32 9.47,0.1 8.73,-1.1 3.22,1.05 7.45,-2.81 -5.11,0.39 -13.87,1.98 -17.92,-2.05l-1.46 -2.68c-1.66,-6.67 0.13,-3.98 0.41,-4.62l-4.22 14.3c0.32,8.27 -1.25,15.48 -4.06,23.15 -3.38,9.25 -3.84,3.18 -2.28,11.44 0.54,2.84 2.35,4.93 3.08,9.65 1.48,1.92 0.62,-1.23 3.11,5.39 3.4,9.03 0.98,13.39 -2.46,18.07 -15.51,21.08 -26.15,6.23 -43.39,13.05 -3.76,1.49 -7.05,3.29 -11.79,4.06 -10.48,1.71 -9.31,-0.38 -10.32,-0.68 -0.36,-0.11 -1.12,-0.1 -1.37,-0.7 -0.25,-0.6 -0.9,-0.47 -1.31,-0.77l-7.19 -2.03c-9.59,-1.56 -23.86,0.21 -36.26,-1.54 -8.75,-1.23 -18.96,-2.95 -24.53,-9.34l-1.33 -2.31c-0.41,0.3 -1.03,0.55 -1.38,0.66 -0.35,0.12 -0.98,0.46 -1.43,0.59l-4.92 0.9c-27.51,3.03 -14.75,1.46 -29.72,-2 -5.46,-1.26 2.28,-0.64 -3.53,0.28 -13.36,2.12 -54.47,-14.59 -64.47,-20.15 -10.22,3.7 -13.68,9.73 -23.85,4.17 -8.42,-4.6 -10.6,-8.79 -12.79,-20.41 0.36,-3.22 1.34,-6.49 1.71,-8.66 0.59,-3.44 1.02,-1.28 0.34,-5.66 -0.86,-5.54 -9.67,-6.16 10.96,-30.67 -5.39,0.1 -1.07,-3.88 -7.32,4.67 -12.83,17.55 -7.75,17.56 -7.45,29.41 0.23,8.98 -2.1,10.26 1.56,21.79 0.36,1.15 2.91,3.68 1.34,8.28 -1.87,5.49 -5.8,6.11 -10.81,8 -8.57,3.24 -7.19,3.34 -15.61,1.24 -6.04,-1.51 -16.23,-3.25 -22.72,-3.77 -28.01,-2.26 -61.27,8.27 -81.55,23.5 -10.51,7.9 -18.22,16.9 -25.47,27.15 -16.5,23.31 -21.51,43.87 -8.27,70.28 4.38,8.74 4.86,6.98 7.25,7.7z"/>
   <path class="fil1" d="M115.59 441.07l0.23 10.32c23.47,9.35 40.93,22.43 77.28,35.32 24.06,8.53 18.43,11.23 25.66,6.7l4.29 -22.28 10.95 -41.05c0.78,-9.2 1.96,-2.35 -1.39,-7.33 -9.12,-1.56 -25.18,-11.94 -36.34,-16.16 -9.56,-3.61 -15.06,-1.8 -22.75,-3.98 -1.54,-0.44 -13.89,-7.79 -14.97,-8.43 -16.9,-5.99 -20.7,0.32 -28.73,12.31 -6.31,9.42 -12.93,22.48 -14.24,34.58z"/>
   <path class="fil4" d="M365.76 580.85c-0.97,11.61 -2.53,15.04 0.63,26.66 4.22,20.53 29.94,35.29 56.12,31.75 23.52,-3.18 42.76,-21.63 43.01,-47.24 0.56,-57.47 -86.68,-59.77 -99.77,-11.18z"/>
   <path class="fil5" d="M363.84 811.58c12.07,-1.41 4.5,-0.25 6.27,1.83l2.43 -2.79c0.17,-0.18 0.77,-0.64 1.09,-1.02l16.3 3.32 13.77 1.01 5.64 0.16c8.19,3.48 5.06,-6.26 4.31,9.04 0.08,-0.04 4.35,-1.27 5.08,-1.88l-1.54 -2.19c-0.09,0 1.53,8.03 31.63,7.84 19.27,-0.12 19.91,-2.34 31.95,4.47 11.96,4.55 22.32,15.83 39.29,16.08 -1,-13.77 -14.5,-12.11 -23.38,-23.1l46.68 -0.45c-8.54,-4.29 -17.2,-2.04 -23.41,-6.41 9.88,-9.06 12.63,-0.14 18.54,-12.63 -50.55,-1.47 -57.84,23.7 -111.66,0.75 -12.24,-5.22 -20.68,-6.39 -35.33,-7.98 1,-7.07 5.96,-4.83 10.47,-12.35 -24.6,-0.17 -42.75,8.83 -71.13,5.45 -0.5,-8.85 3.9,-13.05 5.63,-20.68l-3.36 -83.08c15.05,4.76 5.42,14.46 15.21,26.54l-0.41 -17.43c-1.35,-3.32 -4.59,-10.19 -6.12,-12.51 -2.52,-3.83 -3.34,-3.69 -10.2,-4.93l-0.79 32.03c-3.71,-5.37 -1.37,-8.77 -0.48,-15.57 0.82,-6.2 0.19,-10.22 -0.04,-16.41 -11.69,-0.79 -9.86,-2.08 -16.79,-2.89 -14.46,16.47 -19.25,44.14 -13.14,70.09 5.53,23.52 20.78,39.97 25.33,47.87l3.82 6.27c0.14,-0.31 0.62,0.83 1.01,1.16 9.86,3.55 13.76,-1.94 21.44,0.35 0.16,0.05 8.45,4.35 8.91,4.63 4.09,2.46 5.61,1.49 2.99,5.42z"/>
   <path class="fil1" d="M527.28 470.49c-5.07,8.97 -11.63,9.21 -19.26,18.06l-4.98 44.84c1.42,16.59 31.5,11.91 46.23,10.73 8.64,-0.69 17.56,-1.08 26.01,-2.72 19.14,-3.71 12.66,-4.71 22.02,-3.08 0.65,0.11 1.31,0.37 1.84,0.48 0.54,0.12 1.26,0.31 1.86,0.55l-1.03 6.06 0.06 -9.12c2.27,-19.68 -1.12,-55.67 -9.92,-68.79 -11.99,0.72 -20.22,2.6 -30.77,3.76 -10.04,1.1 -21.37,-0.95 -32.08,-0.77z"/>
   <path class="fil6" d="M63.44 424.86l-0.5 7.27 14.05 5.45c18.94,5.39 20.56,16.61 36.88,11.54l1.72 -8.05c1.31,-12.09 7.93,-25.16 14.24,-34.58 8.03,-11.99 11.83,-18.3 28.73,-12.31l-1.35 -2.75c-4.34,-8.47 -6.23,-12.77 -14.4,-13.01 -5.84,-0.17 -4.35,0.98 -13.26,-0.79 -4.44,-0.88 -9.58,-1.22 -14.7,-2.37 -30.57,-6.87 -10.34,3.35 -23.95,-5.97 -7.15,-4.9 -15.37,-8.26 -26.27,-8.47l16.49 6.71c6.65,2.7 9.1,4.18 12.69,8.32 -12.71,15.44 -25.22,20.64 -30.38,49.01z"/>
   <path class="fil1" d="M655.52 457.57l-1.4 -0.9c-1.38,1.43 -1.14,1.12 -3.25,2.71 -0.67,0.5 -3,2.1 -3.38,2.35 -2.89,1.91 -3.42,2.6 -7.36,4.43 1.32,8.11 4.49,12.13 5.78,20.73 1.18,7.87 2.32,15.36 3.31,22.7l0.57 10.43c8.53,3.43 9.36,7.06 17.05,8.4 8.55,1.5 15.27,-0.13 22.04,-2.68l0.89 -8.93c-9.14,-2.42 -10.36,-12.42 -8,-22.15l3.82 -11.29c4.16,2.87 5.39,5.34 13.02,3.82 -0.17,7.01 -0.07,6.71 5.1,10.81 -0.82,7.96 0.69,2.11 -3.74,3.08l-0.68 9.61c3.07,1.8 5.18,3.6 8.87,2.62 2.2,-1.52 1.76,-0.81 4.26,-2.14 12.6,-17.21 7.44,-20.7 -1.72,-36.64 -4.94,-4.48 -12.92,-18.33 -21.41,-19.59 -7.36,-1.09 -9.15,1.53 -17.49,0.62 -7.79,-0.85 -8.83,0.15 -16.26,2z"/>
   <path class="fil7" d="M32.42 360.83l-15.34 13.5c-5.94,14.54 -23.9,23.3 -7.14,37.03 3.83,-2.35 4.86,-3.07 7.61,-6.26 6.24,-7.27 -1.3,-3.39 6.92,-6.43l5.51 -3.2 -4.42 -8.4c3.73,1.83 4.34,2.75 10.34,3.33l2.49 -6.27c4.74,6.97 5.89,19.73 0.51,27.3 -3.9,5.49 -11.78,8.01 -17.49,11.44 5.23,21.22 17.69,8.58 38.37,8.12l3.66 -6.11c5.17,-28.36 17.67,-33.56 30.38,-49.01 -3.6,-4.14 -6.04,-5.62 -12.69,-8.32l-16.49 -6.71c-0.31,-0.26 -0.9,-0.92 -1.07,-0.57l-5.63 -1.32c-3.91,-0.36 -6.59,-0.1 -10.87,-0.61 -3.02,-0.37 -3.19,-1.29 -7.75,-0.79 -4.74,0.51 -5.61,2.04 -6.9,3.3z"/>
   <path class="fil8" d="M220.8 839.41c0.16,20.21 -1.82,29.35 -4.73,47.76 -2.18,13.83 -6.4,38.17 0.18,50.64 23.3,-14.93 28.67,-75.72 34.52,-94.67 1.77,-5.74 8.94,-29.66 12.92,-33.49l-6.57 -16.41 -28.12 -1.36c4.12,17.4 2.56,35.18 -8.21,47.54z"/>
   <path class="fil9" d="M413.64 823.12c-4.17,4.83 -4.58,18.54 -4.26,26.31 0.65,15.98 -0.11,15.91 6.74,21.43 12.5,10.07 9.87,25.09 33.48,28.37 15.83,2.2 45.23,3.77 59.59,-0.4 12.84,-3.74 34.68,-12.03 39.32,-24.96 -29.62,8.34 -4.41,15.67 -72.1,7.19 -10.03,-1.26 -29.59,-1.48 -36.09,-8.08 -8.14,-8.27 -10.09,-24.12 -4.92,-35.39l45.36 -6.23c-12.03,-6.81 -12.68,-4.59 -31.95,-4.47 -30.09,0.18 -31.71,-7.84 -31.63,-7.84l1.54 2.19c-0.73,0.61 -5,1.84 -5.08,1.88z"/>
   <path class="fil6" d="M590.12 467.51c8.8,13.12 12.19,49.1 9.92,68.79 27.27,4.06 27.24,-4.69 48.02,-13.68l1.14 -13.02c-0.99,-7.34 -2.13,-14.83 -3.31,-22.7 -1.29,-8.59 -4.46,-12.62 -5.78,-20.73 -7.53,3.38 2.81,-1.13 -10.79,-4.22 -15.53,-3.54 -19.63,-0.69 -24.92,-0.56 -4.76,0.12 -14.14,-4.85 -14.29,6.13z"/>
   <path class="fil10" d="M416.2 382.32c-2.38,4.99 -4.8,8.98 -6.94,14.32 -2.7,6.75 -5.66,11.06 0.26,8.69 6.3,-4.88 15.19,-8.45 14.73,6.01 -0.32,10.04 -5,16.81 -14.28,16.68 3.88,13.23 26.81,21.63 43.57,14.16 10.07,-8.6 27.61,-33.33 13.87,-55.01 -4.61,-7.28 -10.97,-14.94 -24.2,-15.52 -13.42,-0.59 -19.18,5.68 -27,10.66z"/>
   <path class="fil10" d="M311.8 408.7l6.63 9.25c9.31,9.44 26.69,7.88 37.5,3.95 0.57,-4.52 0.78,-1.73 -0.58,-5.54 -10.92,-6.15 -4.62,-23.47 5.12,-28.07 5.37,1.65 4.87,1.27 7.48,5.42 5.38,-3.19 3.37,-16.16 1.46,-21.26 -1.08,-12.12 -5.66,-18.11 -15.39,-21.79 -11.52,-4.37 -22.1,-1.72 -28.98,4.79 -11.65,11.02 -21.69,33.08 -13.24,53.24z"/>
   <path class="fil11" d="M390.34 583.56c1.19,4.67 -0.98,4.47 6.4,6.24 1.03,0.25 6.92,0.3 8.79,0.4l-2.3 7.13 -10.81 2.15c-0.06,-0.57 -0.11,-1.3 -0.05,-1.71l1.76 -6.03c0.09,-0.76 0.58,-0.84 0.74,-0.99l-9.36 -2.59c-0.04,6.79 1.33,5.9 -3.29,10.48 -1.8,6.75 -2.49,2.95 -2.38,10.09l16.34 4.54c2.18,6.37 0.49,7.48 4.99,11.14 2.29,1.86 3.46,1.52 6.65,2.87l-7.88 2.47c3.48,3.94 15.18,4.51 20.72,3.4 7.42,-1.48 1.17,0.46 7.99,-3.15l7.85 -4.63c-2.51,-9.85 -0.47,-2.23 2.6,-12.94l2.79 -38.13 -15.49 -1.42c6.41,-4.25 9.65,-1.98 10.4,-10.6 -7.2,-4.21 -11.25,0.18 -17,-7.09l10.19 0.99 -24.41 -1.05 8.46 0.12c-4.06,6.47 -10.01,6.75 -18.06,7.05 -1,5.75 -2.95,16.44 -5.64,21.24z"/>
   <path class="fil12" d="M308.54 456.48c0.31,0.46 0.85,0.52 1.04,1.28 0.18,0.74 0.78,0.97 1.04,1.24 21.8,23.16 58.67,38.36 93.93,32.3l35.53 -10.4c-3.85,-2.88 -2.26,-0.14 -0.97,-5.39 1.15,-4.65 1.71,-2.13 1.99,-10l-47.05 2.67c-5.01,-4.46 -24.62,-3.95 -43.05,-11.4 -12.76,-5.16 -25.92,-11.96 -36.95,-17.72 -0.14,7.11 2.36,17.76 -5.52,17.42z"/>
   <path class="fil8" d="M370.11 813.41c-16.65,24.92 -2.42,50.69 0.15,77.29 2.48,25.66 -10.19,60.18 5.16,80.69 4.67,-3.51 4.83,-5.73 7.49,-16.46 3.78,-15.17 6.97,-50.26 9.56,-64.33 -14.86,-16.94 -13.98,-57.35 7.45,-66.85 0.18,-10.25 0.79,-4.65 -4.55,-7.57 -4.88,-2.66 -11.31,0.19 -5.45,-3.27l-16.3 -3.32c-0.32,0.38 -0.92,0.85 -1.09,1.02l-2.43 2.79z"/>
   <path class="fil5" d="M405.88 654.17c-7.54,-8.97 -20.82,-7.23 -33.29,-25.58l-2.73 -4.21c-23.09,4.36 -27.03,25.71 -74.19,-1.39 -25.69,-14.76 -3.86,-17.64 -60.99,-7.59 -23.53,4.14 -3.04,0.3 -33.01,-10.39 2.19,11.62 4.37,15.8 12.79,20.41 10.17,5.56 13.63,-0.47 23.85,-4.17 10,5.56 51.11,22.27 64.47,20.15 5.82,-0.92 -1.93,-1.54 3.53,-0.28 14.96,3.46 2.21,5.03 29.72,2l4.92 -0.9c0.44,-0.13 1.08,-0.47 1.43,-0.59 0.35,-0.12 0.97,-0.36 1.38,-0.66l1.33 2.31c5.57,6.39 15.78,8.11 24.53,9.34 12.4,1.74 26.67,-0.03 36.26,1.54z"/>
   <path class="fil9" d="M453.33 495.88c-5.63,9.54 -2.39,7.55 -11.16,14.82 -1.21,2.04 -9.77,10.22 -12.05,11.85 -4.38,3.14 -11.45,5.68 -16.35,7.09l-5.68 2.14c2.53,1.31 0.27,1.07 4.39,1.03l55.77 -20.93c8.46,-4.63 9.56,-8.07 21.16,-9.76 -2.12,5.62 -2.23,5.94 -9.06,10.59l-30.59 23.7c24.72,-12.41 27.37,-17.04 44.72,-33.98 6.94,-6.77 -1.74,-3.59 9.55,-5.21 0.15,20.48 -3.19,40.81 -12.01,56.22 -6.15,-2.76 -0.89,-5.42 -7.09,-8.12l-1.08 28.21 4.22 -14.3c-0.28,0.65 -2.06,-2.05 -0.41,4.62l1.46 2.68c4.06,4.03 12.82,2.44 17.92,2.05 8.59,1.48 23.97,-0.95 32.73,-3.89 7.26,-2.43 6.73,-3.54 8.62,-6.55 -19.66,4.85 -33.25,9.28 -54.3,8.86 1.29,-7.85 2.96,-4.73 5,-15.35 1.19,-6.2 1.76,-14.03 3.95,-18.27l4.98 -44.84 -0.01 -13.11c-4.04,-2.88 -2.87,4.65 -3.47,-3.74 1.12,-0.67 4.25,-2.73 6.35,-4.27 -7.93,1.21 -8.31,-2.57 -20.48,-1.93 -2.43,2.66 -3.2,3.75 -6.69,4.73l-5.03 0.53c-6.14,0.53 -3.94,4.74 -12.94,14.19 -4.15,4.36 -10.23,8.43 -12.43,10.92z"/>
   <path class="fil6" d="M189.45 853.21c-1.72,10.91 -2.82,14.28 -0.78,27.1 2.1,13.26 -0.76,15.94 -1.19,27.35 -0.78,21.16 4.47,35.27 24.13,35.74 1.86,-2.59 2.4,-3.43 4.63,-5.6 -6.58,-12.46 -2.36,-36.81 -0.18,-50.64 2.91,-18.41 4.89,-27.55 4.73,-47.76l-2.69 0.32c-5.52,2.66 -9.58,2.78 -15.27,6.1 -5.04,2.94 -7.72,6.4 -13.39,7.38z"/>
   <path class="fil9" d="M151.96 765.74c3.09,3.57 9.92,6.21 15.51,7.03 8.64,1.27 3.93,-2.51 15.21,2.43 14.15,6.19 13.69,4.71 24.83,8.15l5.91 2.54c0.28,-0.44 1.03,0.53 1.47,0.89 8.93,1.08 2.12,-0.32 4.98,3.12 4.04,-0.07 6.55,1.03 9.13,1.97 0.65,-5.59 -1.98,-0 1.77,-3.08l26.1 0.37c-1.68,-11.14 -2.13,-14.13 -1.35,-26.5 -8.07,0.37 -38.75,-12.54 -51.56,-16.08 -16.33,-4.51 -37.48,-9.32 -53.34,-12.76 13.99,9.7 65.87,34.5 84.89,41.54 -24.08,2.31 -47.18,-7.71 -66.73,-14.04l-1.48 2.43c-0.27,0.4 -1.26,1.88 -1.54,2.25 -2.87,3.84 2.06,0.11 -2.61,2.78l-11.19 -3.04z"/>
   <path class="fil6" d="M375.42 971.4l0.65 1.77c3.74,4.14 6.2,5.59 9,9.92l-7.7 -1.58c-0.49,5.31 -5.86,2.27 5.62,3.47 16.69,1.74 30.35,-28.36 27.36,-45.34 2.05,-9.43 5.98,-14.29 6.3,-24.51 0.2,-6.33 -0.44,-7.86 -0.06,-12.53 0.46,-5.64 2.97,-5.67 -2.21,-11.34l0.81 9.89 -19.82 -10.18 -2.92 -0.36c-2.59,14.06 -5.78,49.15 -9.56,64.33 -2.67,10.72 -2.83,12.94 -7.49,16.46z"/>
   <path class="fil13" d="M304.93 504c13.42,-0.76 31.8,19.03 53.23,20.82 6.98,2.99 19.4,1.77 28.62,1.65 5.54,-0.07 26.47,-1.68 26.99,3.17 4.89,-1.41 11.96,-3.95 16.35,-7.09 2.28,-1.63 10.83,-9.82 12.05,-11.85 -0.31,-4.17 -3.63,-1.56 -9.82,-0.39 -5.17,0.98 -10.46,1.72 -15.56,2.82 -8.02,1.74 -20.66,9.26 -23.3,7.43 4.87,-3.27 7.29,-2.46 11.07,-8.22 -23.71,-1.06 -43.32,5.06 -62.88,-9.15 -2.23,2.85 -0.53,4.41 -1.88,7.26 -9.34,-9.88 -32.47,-29.82 -43.78,-34.08 0.75,10.03 2.23,22.5 8.91,27.63z"/>
   <path class="fil14" d="M548.4 558.16c4.96,2.37 2.43,2.96 5.64,-0.01 13.91,-8.72 32.05,4.08 45.94,-12.73l1.03 -6.06c-0.6,-0.24 -1.32,-0.44 -1.86,-0.55 -0.53,-0.11 -1.2,-0.37 -1.84,-0.48 -9.36,-1.63 -2.87,-0.63 -22.02,3.08 -8.45,1.64 -17.37,2.03 -26.01,2.72 -14.73,1.18 -44.81,5.86 -46.23,-10.73 -2.19,4.24 -2.76,12.07 -3.95,18.27 -2.04,10.62 -3.7,7.5 -5,15.35 21.06,0.42 34.64,-4.01 54.3,-8.86z"/>
   <path class="fil15" d="M255.13 423.16l5.74 4.1c5.61,-3.31 4.81,3.99 1.22,-6.99 -1.16,-3.53 -2.41,-3.9 -3.09,-8.84 -1.14,-8.24 0.98,-12.99 5.8,-17.88l-2.87 -13.19 -0.39 -3.48c-7.25,6.56 -4.29,7.4 -7.77,16.11 -0.08,-9.85 4.37,-14.76 5.06,-22.66 -5.76,0.96 -7.19,2.79 -9.82,5.58 -2.21,2.1 1.41,4.17 -1.72,-0.05 0.19,-13.08 4.08,-18.3 16.33,-18.83 12.05,12.03 10.73,24.04 7.3,40.62 9.78,-3.36 -9.44,2.85 5.67,-0.23l3.06 -0.88c0,-15.14 0.52,-25.17 1.88,-37.59 -1.54,1.9 -4.18,-3.52 -0.54,3.89 4.24,8.65 -0.75,2.06 6.19,5.5 5.45,-8.02 -1.74,-12.62 -1.83,-15.9 -2.43,-4.85 -1.75,-3.51 -4.89,-7.45l-4.89 11.11c-7.85,-24.04 -30.44,-3.96 -34.09,15.14 -4.44,23.25 4.86,37.56 13.66,51.93z"/>
   <path class="fil16" d="M154.58 785.36c11.33,-0.08 19.49,4.77 25.77,9.07 1.08,8.42 -8.92,29.78 -15.5,34.27 -9.3,6.34 -32.38,3.77 -45.09,1.96 0.37,0.46 0.95,0.51 1.15,1.34l6.4 8.29c1.39,1.64 5.93,5.82 8.62,6.6 5.97,1.74 16.45,-4.82 22.08,-6.95 -0.46,-0.29 -1.22,-1.11 -1.47,-0.67l-7.95 -2.5c13.98,-0.68 21.3,3.21 29.07,-5.4 1.02,-6.86 2.87,-11.5 4.41,-17.67 4.42,-17.81 1.61,-11.36 8.21,-13.24 1.51,8.18 0.06,17.02 -3.72,24.04 1.13,2.59 -1.82,4.33 1.93,1.3 11.82,-1.43 9.71,-15.12 10.85,-28.25 2.75,5.27 0.03,7.67 3.65,12.89 3.46,-6.3 9.19,-11.22 10.99,-20.21 -15.12,-2.77 -16.94,-4.63 -30.52,-10.25 -9.37,-3.88 -5.47,-2.85 -14.11,0.43l-13.2 4.23c-0.29,-0.47 -1.08,0.44 -1.56,0.74z"/>
   <path class="fil14" d="M113.87 449.12c0.66,19.01 7.89,21.56 7.95,21.45 0.18,-0.34 0.75,0.71 1.06,1.12 1.11,1.66 -2.79,0.75 4.67,3.69 4.19,1.65 4.42,1.64 9.29,0.91 9.53,3.48 14.38,7.63 23.56,12.94 4.18,2.19 6.37,3.44 10.3,5.01 1.29,0.51 4.18,1.42 5.48,2.07 6.01,3.02 2.53,1.39 4.75,3.57 1.48,1.47 -0.59,0.23 2.92,2.09 2.97,1.58 0.83,0.84 3.79,1.68 7.9,2.26 2.83,2.17 9.34,-0.01l18.13 7.13c0.14,-1.97 0.18,-7.52 0.42,-8.85 1.47,-8.09 0.08,0.63 3.25,-8.53 -7.23,4.53 -1.6,1.83 -25.66,-6.7 -36.35,-12.89 -53.81,-25.97 -77.28,-35.32l-0.23 -10.32 -1.72 8.05z"/>
   <path class="fil17" d="M375.63 543.81l-22.5 7.26c-12.33,-11.04 -17.33,-19.16 -35.37,-34.86 -5.64,-4.91 -10.17,-7.5 -12.83,-12.21 -6.67,-5.14 -8.15,-17.6 -8.91,-27.63 11.3,4.26 34.43,24.2 43.78,34.08 1.35,-2.85 -0.35,-4.41 1.88,-7.26 19.55,14.21 39.17,8.09 62.88,9.15 -3.78,5.76 -6.2,4.95 -11.07,8.22 2.64,1.82 15.28,-5.69 23.3,-7.43 5.1,-1.11 10.39,-1.85 15.56,-2.82 6.19,-1.17 9.51,-3.78 9.82,0.39 8.77,-7.27 5.53,-5.27 11.16,-14.82l-7.19 2.51c-32.95,11.37 -70.54,18.6 -104.86,0.08 -29.2,-15.75 -61.18,-32.02 -62.22,-66.23l-10.03 0 3.23 3.36c6.71,7.6 2.9,6.08 6.22,16.22 3.04,9.29 7.94,13.68 11.38,18.62 9.4,13.52 -2.85,23.73 18.33,42.17 4.26,3.71 3.75,3.69 7.5,7.71l22.94 22.03c14.9,18.1 12.41,11.23 40.09,3.59l-3.08 -2.15z"/>
   <path class="fil7" d="M375.63 543.81l32.46 -12.03 5.68 -2.14c-0.52,-4.86 -21.45,-3.25 -26.99,-3.17 -9.22,0.12 -21.64,1.34 -28.62,-1.65 -21.43,-1.79 -39.81,-21.58 -53.23,-20.82 2.66,4.71 7.19,7.3 12.83,12.21 18.04,15.69 23.03,23.81 35.37,34.86l22.5 -7.26z"/>
   <path class="fil13" d="M396.05 348.61l3.88 3.09c24.52,-15.46 42.75,-33.53 80.81,-56.33 1.6,2.61 1.27,-4.13 1.14,4.82 4.4,-4.96 5.19,-16.6 5.46,-24.22 -27.96,8.49 -78.74,53.94 -91.28,72.64z"/>
   <path class="fil18" d="M491.32 693.25l-4.42 -2.97c1.79,-3.56 3.15,-6.02 4.64,-9.05 -3.58,-3.6 0.61,-8.7 -20.11,-4.11l-5.03 -12.86c-9.48,1.85 -3.16,0.79 -9.19,3.84 -6.1,3.08 -7.78,3.66 -17.88,4.3 -2.7,0.17 -6.38,0.17 -9.29,0.31 -14.55,0.68 -28.64,0.16 -42.71,0.7 7.25,10.53 48.47,13.95 64.19,14.17l1.03 -5.57c5.18,7.83 -1.69,3.66 7.43,6.62 1.62,0.53 9.79,1.09 11.6,1.06 21,-0.36 1.27,0.05 19.74,3.55z"/>
   <path class="fil19" d="M188.48 825.79c-3.35,5.62 -3.3,4.78 -10.83,5.57 -7.78,8.62 -15.09,4.72 -29.07,5.4l7.95 2.5c0.25,-0.44 1.01,0.38 1.47,0.67 -5.62,2.14 -16.11,8.7 -22.08,6.95 -2.69,-0.78 -7.22,-4.95 -8.62,-6.6l-6.4 -8.29c-0.2,-0.83 -0.78,-0.88 -1.15,-1.34 -9.72,2.65 -21.4,-4.98 -30.52,-8.88 2.29,6.25 11.58,7.37 23.42,12.36 7.85,3.31 14.96,12.84 21.99,15.82 10.99,4.66 12.38,-7.12 25.5,-5.23 7.14,1.03 9.18,3.01 16.24,2.86 12.14,-0.26 8.68,-5.02 13.06,-1.02l20.56 -23.52c6.27,-14.83 8.27,-13.67 9.86,-33.16 -2.86,-3.44 3.95,-2.04 -4.98,-3.12l-0.93 3.44c-1.8,8.99 -7.53,13.91 -10.99,20.21 -3.62,-5.22 -0.9,-7.62 -3.65,-12.89 -1.13,13.13 0.97,26.82 -10.85,28.25z"/>
   <path class="fil20" d="M122.88 471.7c-0.3,-0.42 -0.88,-1.46 -1.06,-1.12 -0.06,0.11 -7.29,-2.44 -7.95,-21.45 -16.32,5.07 -17.95,-6.16 -36.88,-11.54l-14.05 -5.45c-1.83,7.17 -1.52,5.28 -0.16,10.97 -8.97,0.88 -10.99,-1.54 -18.09,-1.48 -9.07,0.08 -9.28,2.92 -21,1.93 -3.28,-3.76 -12.07,-12.77 -5.4,-17.48l-3.07 -6.24c-0.15,-0.82 -0.67,-0.88 -1.02,-1.31l-4.26 -7.19c-16.76,-13.73 1.2,-22.48 7.14,-37.03l-3.84 3.85c-2.11,2.56 -1.46,2.14 -3.16,4.38 -20.31,26.75 -4.97,21.86 2.99,40.04 2.23,5.1 -2.69,28.38 19.23,23.7 5.51,-1.18 6.74,-2.69 12.07,-2.28 3.36,0.25 9.13,2.51 13.8,2.79 11.4,0.69 1.13,-4.38 9.67,1.79 16.82,12.16 16.56,8.69 31.31,17.58 14.98,9.03 8.47,2.73 23.74,5.52z"/>
   <path class="fil5" d="M366.39 607.51c-3.16,-11.62 -1.6,-15.06 -0.63,-26.66l-3.23 8.07c-24.21,-2.18 -39.29,-13.99 -55.32,-20.66 -5.63,-2.34 -10.58,-5.15 -16.23,-4.96l-2.66 0.49c1.57,4.54 -0.07,2.03 7.62,8.31l25.03 20.08c19.88,13.88 25.36,9.69 45.42,15.34z"/>
   <path class="fil21" d="M360.47 918.16l0.54 0.81c1.48,26.14 -5.13,38.67 11.32,62.02 0.65,2.23 -3.44,2.87 5.04,0.53 -1.75,-1.73 1.19,-1.32 -5.52,-4.28 0.12,-9.07 -0.84,-0.85 4.21,-4.06l-0.65 -1.77c-15.36,-20.51 -2.68,-55.04 -5.16,-80.69 -2.57,-26.61 -16.8,-52.38 -0.15,-77.29 -1.77,-2.08 5.8,-3.24 -6.27,-1.83 -1.35,12.9 -11.12,13.77 -6.32,49.84 2.18,16.36 10.04,33.36 4.31,53.48l-1.35 3.27z"/>
   <path class="fil20" d="M600.04 536.29l-0.06 9.12c-13.89,16.81 -32.03,4.02 -45.94,12.73l53.98 -2.31c8.48,-2.52 24.38,-3.69 35.03,-10.15 7.93,-4.81 2.01,-3.3 8.71,-8.21 4.86,3.25 5.86,5.06 13.8,5.64l-15.75 -9.4 -0.03 -13.7 -0.57 -10.43 -1.14 13.02c-20.78,8.99 -20.76,17.75 -48.02,13.68z"/>
   <path class="fil22" d="M151.17 787.56l3.41 -2.2c0.49,-0.31 1.27,-1.21 1.56,-0.74l13.2 -4.23c8.64,-3.27 4.73,-4.3 14.11,-0.43 13.58,5.62 15.4,7.48 30.52,10.25l0.93 -3.44c-0.44,-0.36 -1.19,-1.33 -1.47,-0.89l-5.91 -2.54c-11.14,-3.44 -10.68,-1.96 -24.83,-8.15 -11.28,-4.94 -6.57,-1.16 -15.21,-2.43 -5.59,-0.82 -12.42,-3.45 -15.51,-7.03 -11.3,-2.69 -45.85,-11.49 -58.62,-6.51 3.11,8.86 13.97,9.69 24.69,10.39 12.19,0.8 16.05,2.55 28.17,6.15l-8.25 1.44c11.62,0.76 10.7,3.25 22.8,1.01l-14.89 5.19 5.32 4.15z"/>
   <path class="fil23" d="M373.09 327.14c3.01,6.92 -0.02,1.81 6.17,6.41 3.21,-4.55 8.16,-21.65 11.51,-28.87 4.97,-10.69 10.92,-18.5 16.17,-28.33 -2.96,-2.74 -2.47,0.71 -1.58,-3.95 0.01,-0.03 1.88,-3.37 1.9,-3.4 3.98,-6.23 2.53,-1.5 5.27,-9.45l-0.5 1.09c-8.77,1.46 -28.33,16.9 -33.77,22.33 -9.46,9.43 7.39,34.02 -5.17,44.17z"/>
   <path class="fil24" d="M216.25 937.8c-2.23,2.18 -2.77,3.01 -4.63,5.6 3.1,1.74 -3.44,1.85 6.02,1.68 8.97,-0.16 2.99,0.02 5.99,-1.68 3.27,-3.36 6.3,-7.35 10.17,-12.41 1.69,-5.92 5.72,-11.18 8.34,-21.49l6.94 -28.56c3.2,-12.51 6.86,-42.66 14.4,-51.42 0.56,-7.26 0.69,-13.69 0.2,-19.88 -3.99,3.83 -11.15,27.75 -12.92,33.49 -5.84,18.95 -11.22,79.74 -34.52,94.67z"/>
   <path class="fil25" d="M503.78 405.78c-5.85,8.93 -24.21,56.71 -37.93,73.56 -6.87,8.44 -15.14,12.41 -19.72,19.06l7.19 -2.51c2.21,-2.49 8.29,-6.56 12.43,-10.92 8.99,-9.45 6.8,-13.66 12.94,-14.19l5.03 -0.53c3.49,-0.98 4.26,-2.08 6.69,-4.73 0.45,-3.99 -0.1,-6.77 1.09,-11.36l14.86 -5.2c-0.43,-4.33 1.43,-1.07 -1.85,-4.17 -3.33,-17.86 7.46,-27.86 17.87,-35.32l-1.04 -5.77 -4.26 2.27c-2.02,6.32 -16.52,32.25 -22.69,34.41l16.43 -34.42c-1.33,2.76 -1.71,2.52 -4.53,4.07 -3.71,-2.28 -4.08,3.56 -2.51,-4.23z"/>
   <path class="fil26" d="M399.94 629.77l7.88 -2.47c-3.19,-1.35 -4.36,-1 -6.65,-2.87 -4.5,-3.66 -2.81,-4.77 -4.99,-11.14l-16.34 -4.54c-0.1,-7.15 0.58,-3.35 2.38,-10.09l1.11 -10.43c1.08,-0.72 1.76,-1.09 3.1,-1.97 2.89,-1.89 0.63,4.38 2.56,-1.71 0.22,-0.71 0.92,-0.63 1.36,-0.98 2.69,-4.79 4.64,-15.48 5.64,-21.24 8.06,-0.29 14.01,-0.57 18.06,-7.05l-8.46 -0.12c-8.9,4.72 -11.5,3.38 -19.99,11.18 -5.56,5.11 -11.66,11.38 -13.06,22.23 -3.85,29.74 9.78,30.94 27.41,41.2z"/>
   <path class="fil27" d="M436.51 625.39c10.46,-6.43 21.51,-18.47 20.51,-37.19 -1.04,-19.38 -13.65,-25.59 -27.02,-31.99l-10.19 -0.99c5.75,7.26 9.8,2.88 17,7.09 -0.75,8.61 -3.99,6.34 -10.4,10.6l15.49 1.42 -2.79 38.13c-3.07,10.72 -5.11,3.1 -2.6,12.94z"/>
   <path class="fil28" d="M394.06 468.18c-19.14,6.49 -57.14,-14.1 -73.66,-19.65 2.05,7.74 21.67,18.66 31.85,22.23 5.69,1.99 6.73,3.66 15.71,5.16l4.79 0.73c10.64,2.42 2.63,3.48 19.63,2.83 13.02,-0.49 9.73,0.94 26.3,-2.3 12.81,-2.51 9.97,-0.83 11.53,-5.49 -5.41,-1.78 -10.59,-0.77 -17.1,-0.58 -6.04,0.18 -14.56,0.74 -19.06,-2.94z"/>
   <path class="fil5" d="M258 719.44c0.89,-5.99 2.61,-10.56 4.28,-14.93 -18.17,2.78 -40.87,-40.32 -58.86,-47.8 4.41,24.66 32.58,53.21 54.58,62.73z"/>
   <path class="fil29" d="M649.78 520.02l0.03 13.7 15.75 9.4c5.77,4.69 25.96,0.45 31.3,0 2.35,-2.81 0.32,-0.89 0.01,-3.76 4.14,-13.69 10.78,-13.85 -7.11,-22.54l-0.89 8.93c-6.77,2.55 -13.49,4.18 -22.04,2.68 -7.68,-1.35 -8.52,-4.97 -17.05,-8.4z"/>
   <path class="fil30" d="M522.39 409.46c13.26,-0.44 12.43,6.27 8.68,16.7l-6.61 5.21c-1.25,3.29 2.92,1.47 -1.92,2.96 -0.1,-7.01 1.2,-10.45 -6.3,-12.16 -8.33,20.25 -2.38,8.7 -4.68,22.6 -1.69,10.25 -6.37,8.47 -8.88,17.85l13.66 -2.18c6.69,-2.15 16.56,-20.25 20.26,-30.61 4.67,-13.06 -0.68,-32.03 -15.24,-26.14l1.04 5.77z"/>
   <path class="fil31" d="M505.34 338.04c0.33,0.32 0.71,0.86 0.8,1.12l0.51 6.33c5.07,-6.09 -3.79,-3.59 13.38,-16.23 -1.85,24 -33.92,59.05 -36.69,66.29 8.53,-4.23 35.74,-42.01 38.6,-58.01 1.6,3.2 1.77,2.16 0.85,9.34 3.94,-3.63 2.81,-2.57 4.24,-9.22 2.27,-10.57 1.91,-22.99 -1.9,-32.28 -4.25,3.1 -18.21,17.25 -21.85,21.62l2.07 11.03z"/>
   <path class="fil32" d="M392.47 890.61l2.92 0.36c-1.53,-8.26 -1.9,-1.95 0.14,-8.04 1.48,-4.41 3.13,-5.06 5.23,-6.83 -8.27,-21.02 -4.23,-32.62 -0.84,-52.33 -21.43,9.5 -22.31,49.9 -7.45,66.85z"/>
   <path class="fil9" d="M413.06 656.19c0.41,0.3 1.06,0.18 1.31,0.77 0.25,0.61 1.01,0.59 1.37,0.7 1.02,0.31 -0.15,2.39 10.32,0.68 4.73,-0.77 8.03,-2.57 11.79,-4.06 17.24,-6.83 27.88,8.03 43.39,-13.05 3.45,-4.69 5.86,-9.04 2.46,-18.07 -2.49,-6.62 -1.64,-3.47 -3.11,-5.39 -0.33,17.26 -11.81,20.1 -27.66,25.73 -9.44,3.35 -8.78,4.62 -20.83,5.82 -8.12,0.81 -12.83,1.63 -19.05,6.88z"/>
   <path class="fil14" d="M319.6 292.53c2.26,-4.03 2.66,-2.93 5.11,-4.34 5.44,-15.07 12.41,-15.48 30.71,-17.3 4.26,-12.51 9.41,-21.33 13.8,-33.74 -17.9,3.52 -46.07,34.8 -49.63,55.38z"/>
   <path class="fil16" d="M151.17 787.56l-5.32 -4.15 14.89 -5.19c-12.1,2.24 -11.18,-0.25 -22.8,-1.01l8.25 -1.44c-12.11,-3.59 -15.97,-5.35 -28.17,-6.15 -10.72,-0.7 -21.59,-1.53 -24.69,-10.39 -5.2,7.97 5.39,19.26 12.86,20.87 9.98,2.15 27.33,0.69 37.86,0.36 -4.34,11.41 -9.19,9.59 -11.88,24.87 6.77,-3.49 0.21,0.38 4.22,-2.92l14.76 -14.85z"/>
   <path class="fil9" d="M265.69 687.94l3.75 -4.75c0.24,-0.38 0.49,-0.86 0.72,-1.25l10.5 -17.67c-5.42,-0.47 -9.74,-1.13 -14.69,-2.28 -20.13,-4.68 -16.34,-3.16 -21.85,-7.88l-8.07 -4.65c4.25,8.2 7.72,5.3 5.96,15.16 -1.57,8.81 -4.09,6.68 -3.44,19.19 1.53,-3.75 3.62,-15.48 6.74,-19.04l3.91 -2.12c7.65,-2.39 3.4,12.9 5.97,18.09 7.2,14.53 1.87,-8.05 10.5,7.21z"/>
   <path class="fil28" d="M417.1 482.98l-43.34 -1.59c-0.56,-0.1 -1.04,-0.18 -1.58,-0.32l-15.01 -4.53c-6.72,-1.8 -1.23,-0.49 -6.65,-2.66 -6.73,-2.7 0.03,0.06 -6.21,-1.57 -5.04,-1.32 -3.15,-3.24 -8.76,-5.41l-5.39 -1.58c-4.36,-2.72 -2.23,-4.25 -10.78,-6.52 7.13,10.6 26.76,21.59 39.56,25.79 20.33,6.66 27.95,5.91 46.27,2.71 8.38,-1.46 8.1,-0.76 11.89,-4.32z"/>
   <path class="fil32" d="M210.01 823.07l5.38 -2.19c3.23,6.94 6.42,10.56 2.72,18.85l2.69 -0.32c10.77,-12.36 12.33,-30.13 8.21,-47.54 -2.58,-0.93 -5.1,-2.04 -9.13,-1.97 -1.59,19.49 -3.58,18.33 -9.86,33.16z"/>
   <path class="fil33" d="M295.46 537.1c-4.99,-18.18 -21.47,-31.03 -34.56,-65.19 -0.21,-0.54 -2.25,-5.4 -2.3,-5.48 -0.25,-0.43 -0.53,-0.9 -0.79,-1.29 -0.27,-0.4 -0.67,-0.87 -0.93,-1.22 -0.27,-0.36 -0.81,-0.88 -1.04,-1.16 -0.23,-0.29 -0.7,-0.78 -1.09,-1.13 1.02,17.99 16.92,52.26 26.99,64.29 7.69,9.19 3.75,9.02 13.72,11.19z"/>
   <path class="fil34" d="M416.2 382.32c7.82,-4.99 13.58,-11.25 27,-10.66 13.23,0.58 19.59,8.23 24.2,15.52 13.74,21.68 -3.79,46.41 -13.87,55.01 18.94,4.26 42.91,-76.05 -10.39,-74.56 -11.6,0.32 -26.74,7.22 -26.94,14.7z"/>
   <path class="fil9" d="M431.66 754.39c-0.36,-0.31 -0.9,-0.65 -1.17,-0.82l-8.51 -3.92c-16.17,-4.83 -2.77,1.31 -26.76,-9.54 -1.33,10.89 -11.52,13.34 -13.12,27.99 19.64,0.34 22.01,-16.1 39.46,-17.32 -2.98,5.7 -0.07,0.71 -2.85,4.37 -1.02,1.34 -1.22,0.89 -2.76,3.02 7.94,-2.72 5.98,-4.34 15.72,-3.78z"/>
   <path class="fil13" d="M62.94 432.13l0.5 -7.27 -3.66 6.11c-20.67,0.46 -33.13,13.1 -38.37,-8.12l-3.12 3.24c-6.67,4.71 2.12,13.72 5.4,17.48 11.72,0.99 11.93,-1.85 21,-1.93 7.1,-0.06 9.12,2.36 18.09,1.48 -1.37,-5.69 -1.67,-3.8 0.16,-10.97z"/>
   <path class="fil35" d="M218.77 493.41c-3.17,9.16 -1.78,0.44 -3.25,8.53 -0.24,1.33 -0.28,6.88 -0.42,8.85l-18.13 -7.13c3.3,5.26 -1.17,1.74 5.64,5.73 8.09,4.74 10.3,-0.62 14.36,15.61 4.61,18.45 1.66,15.68 -1.7,31.2l-0.6 3.82c9.66,-3.92 7.77,-15.19 10.5,-32.33 0.98,-6.18 7.55,-29.98 7.5,-30.27 -4.9,5.51 -6.31,15.14 -8.67,20.36l-3.45 5.55c-2.79,-11.81 -2.81,-16.26 -0.41,-28.08 0.96,-4.72 1.67,-7.38 2.82,-12.25 2.61,-11.06 1.72,-5.12 0.6,-10.47 -0.07,-0.32 -0.29,-0.95 -0.51,-1.4l-4.29 22.28z"/>
   <path class="fil34" d="M311.8 408.7c-8.45,-20.16 1.59,-42.22 13.24,-53.24 6.87,-6.51 17.46,-9.15 28.98,-4.79 9.73,3.68 14.31,9.67 15.39,21.79 3.13,-2.45 2.71,-0.12 2.17,-7.46 -0.22,-2.91 -1.71,-6.13 -2.97,-8.53 -8.95,-17.12 -35.53,-13.12 -45.7,-5.06 -12.02,9.54 -22.25,39.21 -15.13,55.13 4.74,10.6 3.8,2.43 4.03,2.16z"/>
   <path class="fil31" d="M290.55 347.1c0.94,-9.61 1.34,-26.66 8.3,-33.99l2.47 21.06c5.54,-8.43 -3.07,-13.64 5.43,-21.57 -2.34,-18.93 -3.47,-13.92 -1.67,-33.7 -8.32,16.19 -23.29,47.9 -14.53,68.2z"/>
   <path class="fil36" d="M189.45 846.59l0 6.62c5.67,-0.99 8.35,-4.44 13.39,-7.38 5.69,-3.32 9.75,-3.44 15.27,-6.1 3.7,-8.29 0.52,-11.91 -2.72,-18.85l-5.38 2.19 -20.56 23.52z"/>
   <path class="fil37" d="M249.01 375.91c1.91,-7.68 4.67,-10.94 9.97,-14.12 4.48,2.75 2.32,2.33 5.65,4.67 -5.62,6.15 -1.71,-0.81 -5.01,8.54 0.67,-0.21 1.62,-1.4 1.98,-0.77 1.27,2.23 2.6,-0.91 3.42,-0.98 6.5,-0.51 -2.62,-2.68 2.99,0.72 -1.75,5.79 1.56,2.66 -6.07,6.38l2.87 13.19c-2.45,3.16 -0.73,-0.28 1.96,1.4 0.28,0.18 0.91,0.52 1.21,0.71 0.4,0.26 2.48,1.55 2.94,1.98 3.43,-16.58 4.75,-28.59 -7.3,-40.62 -12.24,0.53 -16.13,5.76 -16.33,18.83 3.13,4.22 -0.49,2.15 1.72,0.05z"/>
   <path class="fil38" d="M260.88 427.26c0.44,0.36 1.15,0.29 1.39,1.02 0.53,1.63 1.89,1.37 2.61,1.81 0.59,0.36 3.16,1.58 4.14,2.16l10.03 0 -1.84 -16.88c-3.12,5.18 -0.12,4.16 -4.46,6.99l-6.78 -16.42 4.95 -8.28c-0.45,-0.43 -2.54,-1.72 -2.94,-1.98 -0.3,-0.19 -0.93,-0.54 -1.21,-0.71 -2.68,-1.68 -4.41,1.76 -1.96,-1.4 -4.82,4.89 -6.94,9.64 -5.8,17.88 0.68,4.94 1.94,5.31 3.09,8.84 3.59,10.98 4.39,3.68 -1.22,6.99z"/>
   <path class="fil39" d="M355.35 416.36c11.5,-0.43 13.04,-10.22 12.59,-22.64 -2.61,-4.16 -2.1,-3.77 -7.48,-5.42 -9.74,4.59 -16.04,21.91 -5.12,28.07z"/>
   <path class="fil40" d="M681.76 494.67c-2.36,9.72 -1.15,19.72 8,22.15 17.89,8.69 11.25,8.86 7.11,22.54 4.9,-2.05 3.51,0.85 6.44,-4.96 3.92,-7.78 -3.57,-2.71 6.36,-14.14 6.31,-7.25 3.47,-0.49 2.73,-9.08 -2.49,1.33 -2.06,0.62 -4.26,2.14 -1.81,2.66 -2.34,3.24 -3.77,7.22 -11.21,-4.62 -17.93,-4.22 -21.3,-17.2 8.1,0.46 5.15,-0.69 9.89,3.61 2.15,-6.44 0.77,-5.05 6.99,-5.86 -1.48,-4.83 2.2,-1.63 -5.63,-4.68 -0.02,-4.33 1.24,-2.5 -1.19,-5.43l-11.38 3.7z"/>
   <path class="fil39" d="M409.51 405.33c-3.74,9.99 -5.99,15.25 0.45,22.69 9.28,0.13 13.96,-6.63 14.28,-16.68 0.46,-14.47 -8.43,-10.9 -14.73,-6.01z"/>
   <path class="fil41" d="M233.8 931c6.74,-3.27 9.11,-11.48 11.67,-19.91 2.79,-9.17 4.07,-17.84 6.4,-27.43 1.48,-6.1 12.39,-48.55 11.62,-54.14 -7.54,8.77 -11.2,38.91 -14.4,51.42l-6.94 28.56c-2.63,10.3 -6.65,15.56 -8.34,21.49z"/>
   <path class="fil42" d="M504.52 444.78c3.28,3.09 1.43,-0.16 1.85,4.17l-14.86 5.2c-1.19,4.59 -0.64,7.37 -1.09,11.36 12.16,-0.65 12.54,3.14 20.48,1.93 5,-3.49 3.11,-2.5 5.44,-7l-13.66 2.18c2.5,-9.38 7.18,-7.6 8.88,-17.85 2.3,-13.9 -3.66,-2.35 4.68,-22.6 -5.52,4.33 -2.97,3.21 -7.24,6.62 0.05,0.78 0.4,5.36 0.23,7.07 -1.32,13.75 0.49,5.55 -4.7,8.93z"/>
   <path class="fil43" d="M24.48 398.65l-2.57 3.13c4.63,2.63 1.85,-2.73 4.03,5.91 5.24,-4.23 3.36,-6.62 9.56,-3.65 5.12,10.21 -11.3,17.61 -21.29,14.5 0.34,0.43 0.87,0.49 1.02,1.31l3.07 6.24 3.12 -3.24c5.71,-3.43 13.59,-5.95 17.49,-11.44 5.38,-7.58 4.23,-20.33 -0.51,-27.3l-2.49 6.27c-5.99,-0.58 -6.61,-1.5 -10.34,-3.33l4.42 8.4 -5.51 3.2z"/>
   <path class="fil14" d="M9.95 411.35l4.26 7.19c10,3.11 26.41,-4.29 21.29,-14.5 -6.2,-2.96 -4.31,-0.57 -9.56,3.65 -2.18,-8.64 0.6,-3.28 -4.03,-5.91l2.57 -3.13c-8.22,3.05 -0.67,-0.84 -6.92,6.43 -2.75,3.2 -3.78,3.91 -7.61,6.26z"/>
   <path class="fil17" d="M504.05 396.39c6.07,2.49 3.72,-1.01 2.65,4.97 -0.11,0.62 -2.42,3.56 -2.91,4.42 -1.57,7.8 -1.21,1.96 2.51,4.23 2.82,-1.55 3.21,-1.32 4.53,-4.07l-16.43 34.42c6.17,-2.16 20.67,-28.09 22.69,-34.41l-8.81 -1.6c4.5,-4.78 9.12,-9.68 10.62,-17.03 -6.23,2.67 -11.19,4.85 -14.85,9.06z"/>
   <path class="fil13" d="M462.03 357.52c0.1,0.21 0.26,0.34 0.29,0.63l1.51 2.96c9.57,-2.89 24.66,-12.45 31.4,-12.57l-0.61 -2.99 -3.05 -8.51c-5.61,1.81 -9.69,5.44 -14.48,8.89 -5.37,3.87 -11.21,5.84 -15.06,11.59z"/>
   <path class="fil33" d="M495.69 693.39l6.09 3.83c-3.47,5.9 -13.57,12.25 -18.65,18.96 17.34,-4.84 23.63,-16.22 41.87,-14.95 -6.28,-4.83 -7.61,-2.89 -13.98,-3.9 2.37,-4.59 1.62,-2.83 2.46,-9.76 -0.47,0.29 -1.06,0.68 -1.39,0.89l-6.42 3.78c-5.52,2.16 -4.2,1.39 -9.98,1.15z"/>
   <path class="fil44" d="M302.68 725.41l4.63 13.24 4.21 -20.45c1.63,-7.92 3.81,-17.42 5.22,-26.09 -7.84,5.09 -15.97,17.71 -14.06,33.3z"/>
   <path class="fil45" d="M89.24 821.78c-13.72,-8.63 -19.46,-9.96 -29.05,-25.4 -6.73,-10.84 -9,-32.1 -14.59,-38.09 -2.6,19.57 12.39,46.85 32.58,61.46l3.14 2.5c0.21,0.17 0.67,0.59 1,0.88l6.91 -1.35z"/>
   <path class="fil7" d="M379.06 295.05l0.73 27.02 4.31 -10.69c4.39,-12.42 12.25,-22.33 16.01,-32.85 -8.07,4.23 -14.95,10.88 -21.05,16.53z"/>
   <path class="fil44" d="M491.54 681.23c-1.49,3.03 -2.85,5.49 -4.64,9.05l4.42 2.97 4.37 0.14c5.78,0.24 4.46,1.01 9.98,-1.15l6.42 -3.78c0.34,-0.21 0.93,-0.6 1.39,-0.89l-1 -6.88c-7.23,-1.46 -14.66,-0.08 -20.94,0.54z"/>
   <path class="fil43" d="M504.52 444.78c5.19,-3.38 3.38,4.82 4.7,-8.93 0.16,-1.71 -0.18,-6.29 -0.23,-7.07 4.28,-3.41 1.72,-2.29 7.24,-6.62 7.5,1.71 6.21,5.16 6.3,12.16 4.84,-1.49 0.67,0.34 1.92,-2.96 0.43,-10.39 -2.6,-6.38 -6,-14.16 3.84,-2.41 4.77,-4.69 10.12,-4.83 3.95,9.05 -0.11,7.83 2.49,13.78 3.76,-10.43 4.58,-17.14 -8.68,-16.7 -10.41,7.46 -21.2,17.46 -17.87,35.32z"/>
   <path class="fil36" d="M395.39 890.97l19.82 10.18 -0.81 -9.89c-8.25,-5.23 -7.92,-7.5 -13.64,-15.16 -2.1,1.78 -3.75,2.43 -5.23,6.83 -2.04,6.08 -1.68,-0.23 -0.14,8.04z"/>
   <path class="fil46" d="M439.91 453.21c5.33,3.37 32.73,5.03 36.55,3.15 -3.15,-7.45 -7.41,-8.34 -16.26,-8.14 -6.95,0.16 -15.83,2.18 -20.29,4.99z"/>
   <path class="fil22" d="M177.65 831.36c7.52,-0.79 7.48,0.05 10.83,-5.57 -3.75,3.03 -0.8,1.29 -1.93,-1.3 3.79,-7.03 5.23,-15.86 3.72,-24.04 -6.6,1.88 -3.79,-4.58 -8.21,13.24 -1.53,6.17 -3.39,10.81 -4.41,17.67z"/>
   <path class="fil14" d="M708.15 513.31c-3.69,0.98 -5.81,-0.81 -8.87,-2.62l0.68 -9.61c-6.22,0.81 -4.84,-0.58 -6.99,5.86 -4.74,-4.3 -1.79,-3.15 -9.89,-3.61 3.38,12.98 10.09,12.58 21.3,17.2 1.43,-3.98 1.96,-4.57 3.77,-7.22z"/>
   <path class="fil19" d="M372.33 980.99c-16.45,-23.34 -9.84,-35.87 -11.32,-62.02 -5.46,3.54 -1.07,4.83 -2.84,16.51 -1.88,12.39 -0.6,42.09 14.16,45.5z"/>
   <path class="fil47" d="M287.02 426.12l32.5 2.62c-3.62,-5.98 -10.61,-8.58 -15.79,-9.5 -7.1,-1.26 -13.55,0.57 -16.71,6.89z"/>
   <path class="fil48" d="M655.52 457.57c7.42,-1.85 8.47,-2.85 16.26,-2 8.34,0.91 10.13,-1.71 17.49,-0.62 8.49,1.26 16.47,15.11 21.41,19.59 1.76,-6.37 -1.46,-6.35 -5.86,-10.8 -4.53,-4.57 -3.84,-7.48 -9.06,-9.74 -4.4,-1.9 -34.55,-3.99 -38.37,0.96l-1.88 2.6z"/>
   <path class="fil16" d="M68.08 761.11c2.6,4.98 8.44,8 14.84,9.35 -0.89,-5.5 -2.22,-9.84 -1.96,-17.38 -11.24,1.46 -9.34,-0.09 -12.88,8.03z"/>
   <path class="fil49" d="M319.6 292.53c-4.12,6.38 -3.74,5.85 -4.19,13.2 0.33,0.53 1.4,2.21 1.73,2.47 3.25,2.64 -0.47,0.3 3.86,2.33 4.57,-3.48 5.82,-5.57 7.98,-10.37 -7.36,1.46 -2.18,0.96 -4.35,-1.35l0.09 -10.61c-2.46,1.41 -2.85,0.31 -5.11,4.34z"/>
   <path class="fil23" d="M249.01 375.91c2.63,-2.79 4.06,-4.63 9.82,-5.58 -0.68,7.9 -5.13,12.82 -5.06,22.66 3.48,-8.71 0.52,-9.55 7.77,-16.11l0.39 3.48c7.63,-3.72 4.32,-0.59 6.07,-6.38 -5.6,-3.4 3.52,-1.23 -2.99,-0.72 -0.82,0.06 -2.15,3.2 -3.42,0.98 -0.36,-0.63 -1.3,0.55 -1.98,0.77 3.3,-9.34 -0.61,-2.39 5.01,-8.54 -3.33,-2.35 -1.17,-1.92 -5.65,-4.67 -5.31,3.19 -8.06,6.44 -9.97,14.12z"/>
   <path class="fil13" d="M508.02 475.45l0.01 13.11c7.63,-8.85 14.19,-9.09 19.26,-18.06 -6.81,0.64 -14.58,1.17 -19.26,4.95z"/>
   <path class="fil39" d="M308.54 456.48c7.87,0.34 5.37,-10.31 5.52,-17.42 -17.28,2.04 -10.7,8.53 -5.52,17.42z"/>
   <path class="fil50" d="M224.04 438.75c-5.2,-7.63 3.3,-7.9 -6.03,-12.5 -4.27,-2.1 -15.24,-4.72 -21.03,-5.13l27.06 17.63z"/>
   <path class="fil51" d="M382.22 598.65c4.62,-4.58 3.25,-3.69 3.29,-10.48l9.36 2.59c-0.15,0.14 -0.65,0.23 -0.74,0.99l-1.76 6.03c-0.06,0.41 -0,1.14 0.05,1.71l10.81 -2.15 2.3 -7.13c-1.87,-0.1 -7.76,-0.15 -8.79,-0.4 -7.38,-1.78 -5.21,-1.57 -6.4,-6.24 -0.44,0.35 -1.13,0.27 -1.36,0.98 -1.93,6.09 0.34,-0.18 -2.56,1.71 -1.34,0.88 -2.02,1.25 -3.1,1.97l-1.11 10.43z"/>
   <path class="fil48" d="M712.4 511.18c4.43,0.41 2.17,2.46 5.13,-0.01 7.78,-12.65 5.78,-23.69 -1.88,-35.71 -2.6,-2.17 -1.17,-0.34 -4.97,-0.92 9.16,15.94 14.32,19.43 1.72,36.64z"/>
   <path class="fil23" d="M681.76 494.67l11.38 -3.7c2.43,2.93 1.17,1.1 1.19,5.43 7.82,3.05 4.14,-0.15 5.63,4.68 4.43,-0.97 2.93,4.88 3.74,-3.08 -5.17,-4.11 -5.27,-3.8 -5.1,-10.81 -7.62,1.52 -8.86,-0.96 -13.02,-3.82l-3.82 11.29z"/>
   <path class="fil14" d="M348.89 325.79c9.87,-8.84 11.9,-18.04 20.95,-18.78l-3.27 -8c-7.28,2.98 -15.03,18.76 -17.67,26.79z"/>
   <path class="fil25" d="M524.45 431.37l6.61 -5.21c-2.6,-5.95 1.46,-4.73 -2.49,-13.78 -5.34,0.14 -6.28,2.43 -10.12,4.83 3.39,7.78 6.43,3.77 6,14.16z"/>
   <path class="fil4" d="M440.09 480.9c8.36,-4.31 10.35,-2.79 11.25,-13.57l-10.23 -1.82c-0.28,7.87 -0.84,5.35 -1.99,10 -1.29,5.24 -2.88,2.51 0.97,5.39z"/>
   <path class="fil43" d="M406.95 276.35c0.34,-2.36 -0.78,-2.53 1.77,-2.42 4.23,0.19 -2.04,-4.67 2.72,1.94 3.29,-3.92 7.62,-13.1 5.41,-18.03 -8.59,0.74 -2.53,-0.03 -4.81,2.8l0.5 -1.09c-2.74,7.96 -1.29,3.23 -5.27,9.45 -0.02,0.03 -1.89,3.37 -1.9,3.4 -0.9,4.66 -1.39,1.21 1.58,3.95z"/>
   <path class="fil52" d="M426.79 620.7c-1.07,-7.22 -11.4,-6.77 -19.27,-6.33 1.62,5.11 0.21,5.01 6.23,6.53 4.52,1.14 8.75,0.74 13.04,-0.2z"/>
   <path class="fil53" d="M494.62 345.54l0.61 2.99 4.02 6.21 7.41 -9.24 -0.51 -6.33c-0.09,-0.26 -0.47,-0.81 -0.8,-1.12 -4.31,5.88 -3.62,5.82 -10.72,7.5z"/>
   <path class="fil46" d="M372.23 446.93c2.55,-1.48 2.55,-3.05 8.23,-1.23l4.09 1.92c0.77,0.35 1.46,0.83 2.22,1.19 -0.86,-6.68 1.31,-10.17 -7.26,-9.46 -5.17,0.43 -6.49,3.8 -7.28,7.59z"/>
   <path class="fil26" d="M407.74 570.58c9.33,1.59 13.12,0.68 16.46,-6.46 -8.99,-1.35 -12.77,2.09 -16.46,6.46z"/>
   <path class="fil54" d="M160.39 489.24c-9.18,-5.31 -14.03,-9.46 -23.56,-12.94 2.13,3.99 -0.67,1.51 3.75,4.86 0.64,0.49 4.45,2.37 6.02,3.34 6.48,4.02 5.8,5.3 13.79,4.74z"/>
   <path class="fil55" d="M418.68 578.82c10.95,6.62 14.69,-0.13 14.99,-0.37 -1.06,-0.47 -5.46,-2.6 -7.46,-2.77 -12.25,-1.04 -5.86,1.22 -7.53,3.13z"/>
   <path class="fil54" d="M180.92 499.89c-2.21,-2.18 1.26,-0.55 -4.75,-3.57 -1.3,-0.65 -4.19,-1.56 -5.48,-2.07 -3.93,-1.57 -6.13,-2.83 -10.3,-5.01 0.7,3.88 -1.37,2.33 0.87,5.02 8.11,1.89 9.35,4.92 19.65,5.64z"/>
   <path class="fil56" d="M377.37 981.52l7.7 1.58c-2.8,-4.33 -5.26,-5.79 -9,-9.92 -5.05,3.21 -4.09,-5 -4.21,4.06 6.7,2.97 3.76,2.55 5.52,4.28z"/>
   <path class="fil55" d="M416.31 586.34c5.73,2.27 10.55,3.22 16.15,-0.55 -18.76,-5.5 -15.89,0.33 -16.15,0.55z"/>
   <path class="fil57" d="M17.08 374.33l15.34 -13.5c-5.67,1.09 -5.83,0.87 -9.85,4.16 -4.74,3.88 -4.82,3.81 -5.48,9.34z"/>
   <path class="fil58" d="M390.67 603.25c2.97,6.1 1.91,4.27 9.57,4.57 -1.95,-4.76 -1.52,-7.2 -9.57,-4.57z"/>
   <path class="fil59" d="M358.16 524.82l6.16 -1.98c-2.03,-3.62 1.68,-1.76 -2.76,-3.72 -2.85,-1.26 -1.99,-0.52 -4.99,-0.69l1.59 6.39z"/>
   <path class="fil60" d="M223.63 943.41c4.19,-1.23 4.03,-1 6.9,-3.98 5.31,-5.51 3.05,-2.34 3.27,-8.43 -3.87,5.06 -6.9,9.05 -10.17,12.41z"/>
   <path class="fil52" d="M399.43 584.46c0.47,0.28 0.62,5.48 8.36,0 -0.94,-0.55 0.83,-2.16 -4.2,-1.8 -4.84,0.34 -1.41,-0.06 -4.16,1.8z"/>
   <path class="fil61" d="M402.17 576.94c8.54,7.1 7.12,0.15 7.29,0 -1.73,-1.07 1.8,-2.11 -3.89,-1.66 -3.99,0.32 -1.59,0.26 -3.4,1.66z"/>
   <path class="fil0" d="M151.87 317.6c-3.3,-4.92 -0.95,-3.88 -7.52,-5.64 3.3,4.92 0.95,3.88 7.52,5.64z"/>
   <path class="fil0" d="M157.51 321.36c-2.81,-4.04 -0.28,-2.47 -5.64,-3.76 2.81,4.04 0.28,2.47 5.64,3.76z"/>
   <path class="fil0" d="M262.74 28.19c-1.51,-5.66 0.02,-4.13 -5.64,-5.64l5.64 5.64z"/>
  </g>
 </g>
</svg>
